<?xml version="1.0" encoding="UTF-8" standalone="no"?>
<!-- Created with Inkscape (http://www.inkscape.org/) -->

<svg
   xmlns:dc="http://purl.org/dc/elements/1.1/"
   xmlns:cc="http://creativecommons.org/ns#"
   xmlns:rdf="http://www.w3.org/1999/02/22-rdf-syntax-ns#"
   xmlns:svg="http://www.w3.org/2000/svg"
   xmlns="http://www.w3.org/2000/svg"
   version="1.0"
   width="468pt"
   height="468pt"
   viewBox="0 0 468 468"
   id="svg2">
  <defs
     id="defs12" />
  <metadata
     id="metadata4">
Created by potrace 1.8, written by Peter Selinger 2001-2007
<rdf:RDF>
  <cc:Work
     rdf:about="">
    <dc:format>image/svg+xml</dc:format>
    <dc:type
       rdf:resource="http://purl.org/dc/dcmitype/StillImage" />
    <dc:title></dc:title>
  </cc:Work>
</rdf:RDF>
</metadata>
  <path
     d="m 146.98125,51.91875 c -7.3125,7.3125 -5.11875,11.334375 13.1625,29.25 28.15312,27.42188 82.63125,50.09063 121.3875,50.45625 18.28125,0.36563 59.9625,15.72187 61.425,22.66875 1.82812,9.50625 -30.34688,25.22813 -56.67188,27.42188 C 256.30312,184.275 234,178.425 202.92187,159.4125 158.31562,131.625 146.25,126.87188 117.73125,125.04375 84.09375,122.85 64.715625,129.79687 45.3375,151.00312 32.175,165.62812 31.078125,165.99375 29.98125,157.95 29.25,153.19688 31.078125,142.95938 34.36875,135.28125 41.315625,118.09688 35.465625,111.15 25.228125,124.67813 5.85,150.6375 1.4625,208.40625 17.55,230.34375 l 8.04375,10.96875 -7.3125,6.21563 c -4.021875,3.65625 -7.3125,7.67812 -7.3125,9.50624 0,1.82813 8.775,12.43126 19.74375,23.76563 10.603125,11.33437 31.078125,36.5625 44.971875,55.575 31.809375,43.14375 39.487505,50.45625 47.896875,45.3375 3.29062,-2.19375 6.58125,-8.40937 7.3125,-13.89375 1.09687,-9.50625 5.85,-12.43125 9.87187,-5.85 4.3875,7.3125 16.45313,3.65625 18.64688,-5.48438 2.55937,-10.60312 -5.48438,-21.9375 -18.28125,-25.95937 -17.91563,-5.11875 -46.434375,-21.20625 -50.090625,-27.7875 -4.753125,-8.40938 -1.4625,-13.52812 4.753125,-7.3125 6.21562,6.21562 34.36875,5.48437 49.35937,-1.4625 11.7,-5.85 13.52813,-5.85 25.95938,0 7.3125,3.65625 25.22812,7.3125 39.4875,8.40938 32.90625,2.55937 32.54062,5.48437 -7.3125,39.48749 -44.60625,38.39063 -60.69375,55.575 -60.69375,65.44688 0,15.35625 5.11875,13.89375 24.13125,-7.67813 10.60312,-11.69999 20.10937,-20.10937 21.57187,-18.64687 1.4625,1.09687 -3.29062,10.96875 -10.60312,21.9375 -13.89375,20.10937 -15.72188,26.69062 -9.50625,30.34687 5.85,3.65625 12.79687,-3.65625 24.8625,-24.8625 10.2375,-17.91562 21.20625,-28.51875 83.3625,-82.26562 14.25937,-12.06563 35.46562,-35.46563 46.8,-51.55312 24.49687,-35.46563 50.82187,-57.0375 64.35,-53.38125 19.37812,5.11874 48.2625,6.21562 58.86562,1.82812 14.625,-6.21563 17.18438,-19.0125 7.67813,-38.39063 -18.64688,-38.02499 -43.875,-54.47812 -80.07188,-50.82187 -21.20625,1.82813 -21.20625,1.82813 -59.59687,-22.30312 -51.1875,-32.54063 -81.9,-47.531255 -114.075,-56.67188 -30.34688,-8.409375 -47.16563,-9.140625 -53.38125,-2.925 z m 269.1,108.95625 c 10.60312,9.87188 10.2375,16.0875 -1.09688,21.9375 -8.04375,4.3875 -9.87187,4.02188 -16.45312,-1.82813 -6.94688,-6.58124 -9.87188,-20.10937 -4.75313,-24.86249 4.3875,-4.75313 14.25938,-2.55938 22.30313,4.75312 z"
     id="path8"
     style="fill:#000000;stroke:none" />
</svg>
