<?xml version="1.0" encoding="UTF-8" standalone="no"?>
<!-- Created with Inkscape (http://www.inkscape.org/) -->

<svg
   xmlns:dc="http://purl.org/dc/elements/1.1/"
   xmlns:cc="http://creativecommons.org/ns#"
   xmlns:rdf="http://www.w3.org/1999/02/22-rdf-syntax-ns#"
   xmlns:svg="http://www.w3.org/2000/svg"
   xmlns="http://www.w3.org/2000/svg"
   version="1.1"
   width="1093.1753"
   height="171.58685"
   id="svg3863">
  <defs
     id="defs3865" />
  <metadata
     id="metadata3868">
    <rdf:RDF>
      <cc:Work
         rdf:about="">
        <dc:format>image/svg+xml</dc:format>
        <dc:type
           rdf:resource="http://purl.org/dc/dcmitype/StillImage" />
        <dc:title></dc:title>
      </cc:Work>
    </rdf:RDF>
  </metadata>
  <g
     transform="translate(454.17517,-369.75373)"
     id="layer1"
     style="fill:#ffffff">
    <g
       id="text3016"
       style="font-size:100px;font-style:italic;font-variant:normal;font-weight:normal;font-stretch:normal;text-align:start;line-height:125%;letter-spacing:0px;word-spacing:0px;writing-mode:lr-tb;text-anchor:start;fill:#ffffff;fill-opacity:1;stroke:none;font-family:Zapf Calligraphic 801 SWA;-inkscape-font-specification:Sans Italic">
      <path
         d="m -102.09517,442.90308 c -0.55342,1.30215 -1.05798,2.68561 -1.51367,4.15039 -0.42321,1.46491 -0.81384,2.99485 -1.17188,4.58984 l -0.78125,-0.43945 c -0.48831,-1.00905 -1.18818,-1.7903 -2.09961,-2.34375 -0.91149,-0.55332 -1.95315,-0.83001 -3.125,-0.83008 -2.57164,7e-5 -4.52476,0.9278 -5.85937,2.7832 -1.33466,1.85553 -2.37632,5.50136 -3.125,10.9375 l -1.31836,9.17969 c 2.31118,4e-5 4.42706,-0.0651 6.34766,-0.19531 1.92054,-0.13017 3.77601,-0.32548 5.5664,-0.58594 l -1.61133,5.27344 -11.08398,0 -1.31836,9.52148 c -3.32033,23.11199 -6.60808,38.28124 -9.86328,45.50781 -3.22266,7.2591 -7.79622,10.88865 -13.7207,10.88868 -0.91145,-3e-5 -1.75781,-0.0489 -2.53907,-0.14649 -0.81379,-0.0977 -1.61131,-0.26044 -2.39257,-0.48828 l -0.29297,-0.68359 2.83203,-7.27539 1.17187,-0.3418 c 0.87892,1.23696 1.82293,2.16469 2.83203,2.7832 1.00912,0.61847 2.06707,0.92772 3.17383,0.92774 4.36198,-2e-5 8.02409,-13.76954 10.98633,-41.3086 0.8789,-8.17054 1.57877,-14.63212 2.09961,-19.38476 l -1.80664,0 c -1.10678,4e-5 -2.16472,0.0326 -3.17383,0.0976 -0.97657,0.0652 -1.9043,0.1628 -2.7832,0.29297 l 0,-1.5625 c 1.17187,-0.45569 2.47395,-0.97652 3.90625,-1.5625 1.43228,-0.58589 2.96223,-1.23693 4.58984,-1.95312 0.74869,-5.27339 1.51366,-9.09826 2.29492,-11.47461 0.81379,-2.4088 1.87173,-4.45958 3.17383,-6.15235 2.44139,-3.05983 5.33852,-5.71282 8.69141,-7.95898 3.35283,-2.27857 6.0221,-3.4179 8.00781,-3.41797 0.81377,7e-5 1.52991,0.0977 2.14844,0.29297 0.61845,0.19539 1.20439,0.48835 1.75781,0.87891"
         id="path3841"
         style="fill:#ffffff" />
      <path
         d="m -78.071732,482.84448 c -3.4e-5,-4.23173 -0.797559,-7.43811 -2.392578,-9.61914 -1.595082,-2.2135 -3.955106,-3.32027 -7.080078,-3.32031 -4.361999,4e-5 -7.991553,2.79952 -10.888672,8.39844 -2.86459,5.59899 -4.29688,12.64651 -4.29687,21.14257 -1e-5,4.45965 0.79751,7.84506 2.39257,10.15625 1.595042,2.27865 3.955066,3.41798 7.080082,3.41797 4.687476,10e-6 8.382134,-2.70181 11.083984,-8.10547 2.734342,-5.40363 4.101528,-12.76039 4.101562,-22.07031 m -6.787109,-15.91797 c 4.915332,5e-5 8.52861,1.33469 10.839844,4.00391 2.311157,2.66931 3.466755,6.83597 3.466797,12.5 -4.2e-5,9.60289 -2.473998,17.51303 -7.421875,23.73047 -4.947946,6.1849 -11.100284,9.27734 -18.457032,9.27734 -4.524753,0 -7.958993,-1.41601 -10.302733,-4.24804 -2.34375,-2.83203 -3.51563,-6.94986 -3.51563,-12.35352 0,-9.44008 2.44141,-17.28512 7.32422,-23.53516 4.882801,-6.24995 10.90493,-9.37495 18.066409,-9.375"
         id="path3843"
         style="fill:#ffffff" />
      <path
         d="m -48.140091,481.77026 -2.197266,8.64258 c -0.911475,3.64586 -1.643896,7.01499 -2.197265,10.10742 -0.520848,3.09246 -0.781265,5.25717 -0.78125,6.49414 -1.5e-5,0.71616 0.162745,1.23699 0.488281,1.5625 0.325505,0.29298 0.862614,0.43946 1.611328,0.43946 1.36717,0 3.336569,-1.15559 5.908203,-3.4668 2.604142,-2.31119 5.43617,-5.48501 8.496094,-9.52148 4.687464,-6.11977 8.300742,-15.08786 10.839844,-26.9043 l 0.146484,-0.68359 c 0.748655,-0.19527 1.529904,-0.39058 2.34375,-0.58594 0.846309,-0.19527 2.099563,-0.50451 3.759766,-0.92774 l 1.02539,0.58594 c -2.766973,9.99353 -4.915408,18.40823 -6.445312,25.24414 -1.529989,6.83595 -2.294962,11.36069 -2.294922,13.57422 -4e-5,0.91147 0.113892,1.59506 0.341797,2.05078 0.260376,0.42318 0.618448,0.63477 1.074219,0.63477 0.878863,0 1.953081,-0.39062 3.222656,-1.17188 1.269485,-0.78124 2.864535,-2.01822 4.785156,-3.71094 l 1.220703,1.70899 c -2.994839,3.02735 -5.957076,5.45248 -8.886718,7.27539 -2.929727,1.79036 -5.240923,2.68555 -6.933594,2.68555 -0.911493,0 -1.595086,-0.26042 -2.050781,-0.78125 -0.42321,-0.52084 -0.634799,-1.31836 -0.634766,-2.39258 -3.3e-5,-1.17187 0.325488,-3.48307 0.976562,-6.9336 0.68356,-3.48306 1.692673,-8.04034 3.027344,-13.67187 -4.9805,7.5521 -9.765652,13.41147 -14.355469,17.57812 -4.589861,4.13412 -8.512383,6.20118 -11.767578,6.20118 -1.171884,0 -2.050789,-0.42318 -2.636718,-1.26953 -0.585945,-0.87891 -0.878914,-2.18099 -0.878907,-3.90625 -7e-6,-2.89713 0.66731,-6.88476 2.001953,-11.9629 0.390616,-1.46482 0.667308,-2.55531 0.830079,-3.27148 l 1.708984,-7.76367 c 0.651029,-2.89711 1.155586,-5.43617 1.513672,-7.61719 0.390611,-2.2135 0.585924,-3.84111 0.585937,-4.88281 -1.3e-5,-0.61845 -0.09767,-1.04163 -0.292968,-1.26953 -0.195326,-0.22783 -0.537123,-0.34176 -1.025391,-0.3418 -0.91147,4e-5 -3.157561,1.18819 -6.738281,3.56445 l -0.878907,0.53711 -0.78125,-1.90429 c 4.394523,-3.15751 7.877593,-5.43616 10.449219,-6.83594 2.571598,-1.43225 4.524721,-2.14839 5.859375,-2.14844 0.781229,5e-5 1.35089,0.21164 1.708985,0.63477 0.390602,0.39067 0.585915,1.00916 0.585937,1.85547 -2.2e-5,1.23702 -0.585959,4.13415 -1.757812,8.6914 -0.390646,1.59509 -0.716166,2.8809 -0.976563,3.85742"
         id="path3845"
         style="fill:#ffffff" />
      <path
         d="m 5.8638153,489.43628 c 4.2968527,-6.60804 9.0494517,-11.97913 14.2578127,-16.11328 5.240848,-4.13407 9.619098,-6.20113 13.134765,-6.20117 1.171829,4e-5 2.050734,0.29301 2.636719,0.8789 0.585889,0.55343 0.878857,1.39979 0.878906,2.53906 -4.9e-5,0.94406 -0.309293,2.91346 -0.927734,5.90821 -0.618537,2.96227 -1.481166,6.62438 -2.587891,10.98633 l -1.904296,7.37304 c -0.781293,3.02736 -1.399782,5.66408 -1.855469,7.91016 -0.423219,2.21355 -0.634807,3.71095 -0.634766,4.49219 -4.1e-5,0.81381 0.08134,1.41602 0.244141,1.80664 0.195271,0.39063 0.471963,0.60222 0.830078,0.63476 0.943967,1e-5 2.067013,-0.35806 3.369141,-1.07422 1.302036,-0.74869 3.043571,-2.03449 5.224609,-3.85742 l 0.830078,2.19727 c -3.450569,2.89714 -6.55929,5.12695 -9.326172,6.68945 -2.734414,1.5625 -4.899126,2.34375 -6.49414,2.34375 -0.878942,0 -1.578811,-0.35807 -2.09961,-1.07422 -0.520866,-0.71614 -0.781283,-1.66015 -0.78125,-2.83203 -3.3e-5,-1.33463 0.651008,-4.4759 1.953125,-9.42383 0.651006,-2.47394 1.155563,-4.42706 1.513672,-5.85937 l 2.001953,-7.8125 c 0.683555,-2.7018 1.220664,-5.24086 1.611328,-7.61719 0.390585,-2.37627 0.585897,-4.08525 0.585938,-5.12695 -4.1e-5,-1.00908 -0.146525,-1.67639 -0.439453,-2.00196 -0.260457,-0.32548 -0.846394,-0.48824 -1.757813,-0.48828 -1.627641,4e-5 -4.00394,1.22075 -7.128906,3.66211 -3.092476,2.40889 -5.875676,5.35485 -8.349609,8.83789 -2.1810107,3.05992 -4.1178578,6.96617 -5.8105473,11.71875 -1.6601717,4.75262 -3.0273578,10.18881 -4.10156252,16.3086 -1.43230322,0.0977 -2.68555718,0.24414 -3.75976558,0.43945 -1.0742269,0.19531 -2.0996165,0.43945 -3.0761719,0.73242 l -0.8300781,-0.29297 c 2.5390546,-8.91926 4.5735578,-17.05727 6.10351558,-24.41406 1.52993496,-7.35674 2.29490812,-12.32093 2.29492192,-14.89258 -1.38e-5,-0.78121 -0.09767,-1.31832 -0.2929688,-1.61133 -0.19532572,-0.32548 -0.53712226,-0.48824 -1.02539062,-0.48828 -0.78126162,4e-5 -1.96941148,0.39067 -3.56445308,1.17188 -1.5625073,0.78129 -3.1738338,1.82295 -4.8339844,3.125 l -0.5859375,-2.00196 c 3.3203057,-2.66922 6.4453026,-4.81766 9.37499998,-6.44531 2.92967182,-1.62755 5.02927902,-2.44136 6.29882812,-2.4414 0.8463342,4e-5 1.4648232,0.24418 1.8554688,0.73242 0.4231557,0.45577 0.634744,1.17192 0.6347656,2.14844 -2.16e-5,1.30212 -0.3092661,3.6947 -0.9277344,7.17773 -0.6185096,3.48311 -1.4648629,7.56839 -2.5390625,12.25586"
         id="path3847"
         style="fill:#ffffff" />
      <path
         d="m 79.69194,473.71362 c -1.725295,-0.81376 -3.499381,-1.43225 -5.322265,-1.85547 -1.822946,-0.42313 -3.613309,-0.63472 -5.371094,-0.63476 -2.018253,4e-5 -3.727235,0.45577 -5.126953,1.36719 -1.367207,0.87894 -2.587909,2.36006 -3.66211,4.44336 -1.725275,3.32034 -3.255221,7.7637 -4.589843,13.33007 -1.334647,5.56643 -2.001964,10.31903 -2.001953,14.25782 -1.1e-5,1.5625 0.211578,2.7181 0.634765,3.46679 0.423166,0.74871 1.074207,1.12306 1.953125,1.12305 1.62759,10e-6 3.955062,-1.2207 6.982422,-3.66211 3.059873,-2.44139 5.794245,-5.41991 8.203125,-8.93555 2.213512,-3.22263 4.003874,-6.7057 5.371094,-10.44922 1.367153,-3.74345 2.343714,-7.89384 2.929687,-12.45117 m 11.816407,-31.88476 1.318359,1.2207 -10.009766,47.94922 -0.390625,1.9043 c -1.529985,7.6172 -2.294958,12.19076 -2.294922,13.7207 -3.6e-5,0.7487 0.113896,1.31837 0.341797,1.70898 0.227828,0.39063 0.537072,0.58595 0.927735,0.58594 0.683555,10e-6 1.806601,-0.43945 3.36914,-1.31836 1.562457,-0.91145 3.141232,-2.06705 4.736328,-3.4668 l 0.927735,2.09961 c -3.645877,3.15756 -6.819702,5.53386 -9.521485,7.12891 -2.669305,1.5625 -4.899121,2.34375 -6.689453,2.34375 -0.618519,0 -1.139352,-0.32552 -1.5625,-0.97656 -0.423206,-0.65104 -0.634794,-1.41602 -0.634765,-2.29492 -2.9e-5,-0.94401 0.325492,-3.07617 0.976562,-6.39649 0.683564,-3.35285 1.595021,-7.29165 2.734375,-11.8164 -4.557319,6.96616 -9.000674,12.28842 -13.330078,15.96679 -4.29689,3.67839 -8.235688,5.51758 -11.816406,5.51758 -1.367194,0 -2.392583,-0.69987 -3.076172,-2.09961 -0.683597,-1.43229 -1.025394,-3.597 -1.025391,-6.49414 -3e-6,-5.92446 0.846351,-11.86521 2.539063,-17.82227 1.725253,-5.98955 3.792308,-10.30269 6.201172,-12.93945 2.5716,-2.89709 5.3548,-5.17574 8.349609,-6.83594 3.027321,-1.6601 5.908177,-2.49018 8.642578,-2.49023 3.287729,5e-5 6.136033,0.29302 8.544922,0.87891 0.09762,4e-5 0.146447,4e-5 0.146484,0 l 1.513672,-9.17969 0.195313,-1.31836 c 0.651002,-4.00385 0.976522,-6.39642 0.976562,-7.17774 -4e-5,-0.81373 -0.358112,-1.35084 -1.074218,-1.61132 -0.683633,-0.26035 -2.490271,-0.39056 -5.419922,-0.39063 l -1.513672,0 0.24414,-2.09961 c 3.710902,-0.52076 6.754519,-1.1067 9.13086,-1.75781 2.376258,-0.68352 4.557245,-1.52988 6.542969,-2.53906"
         id="path3849"
         style="fill:#ffffff" />
      <path
         d="m 125.39507,473.61597 c -1.43233,-0.61845 -2.81579,-1.07418 -4.1504,-1.36719 -1.33466,-0.29293 -2.71812,-0.43941 -4.15039,-0.43945 -2.66929,4e-5 -4.58986,0.35811 -5.76171,1.07421 -1.1719,0.71619 -2.34377,2.22986 -3.51563,4.54102 -1.79038,3.51566 -3.4017,8.26826 -4.83398,14.25781 -1.4323,5.9896 -2.14845,10.83986 -2.14844,14.55078 -1e-5,1.07423 0.14648,1.95314 0.43945,2.63672 0.29296,0.65105 0.66731,0.97657 1.12305,0.97657 3.58072,0 7.89386,-3.64583 12.93945,-10.9375 5.04555,-7.29165 8.39841,-15.72263 10.0586,-25.29297 m 7.51953,-6.78711 0.97656,1.07422 c -2.66931,8.98441 -4.83402,17.23635 -6.49414,24.75586 -1.66019,7.51954 -2.49027,12.4349 -2.49024,14.74609 -3e-5,0.91146 0.1139,1.54623 0.3418,1.9043 0.22783,0.35807 0.61846,0.53711 1.17188,0.53711 0.5859,0 1.54619,-0.43945 2.88086,-1.31836 1.33459,-0.8789 2.70178,-2.01822 4.10156,-3.41797 l 0.92773,2.29492 c -3.54821,3.02735 -6.52672,5.28971 -8.93554,6.78711 -2.40889,1.49739 -4.29691,2.24609 -5.66407,2.24609 -0.81382,0 -1.46487,-0.3418 -1.95312,-1.02539 -0.45576,-0.68359 -0.68362,-1.64388 -0.6836,-2.88086 -2e-5,-1.23697 0.27667,-3.41796 0.83008,-6.54297 0.58591,-3.15754 1.38344,-6.77081 2.39258,-10.83984 -3.97138,6.34767 -8.13804,11.49089 -12.5,15.42969 -4.32944,3.90625 -7.861334,5.85937 -10.595703,5.85937 -1.106773,0 -1.953127,-0.65104 -2.539062,-1.95312 -0.585939,-1.30208 -0.878907,-3.22266 -0.878907,-5.76172 0,-2.57161 0.292968,-5.50129 0.878907,-8.78906 0.618487,-3.28775 1.497393,-6.78709 2.636718,-10.49805 1.139318,-3.61325 2.132156,-6.46156 2.978517,-8.54492 0.8789,-2.0833 1.72525,-3.67835 2.53906,-4.78516 1.62759,-2.2786 4.11783,-4.39449 7.4707,-6.34766 3.35285,-1.95307 6.42902,-2.92963 9.22852,-2.92968 1.23695,5e-5 2.55531,0.13025 3.95508,0.39062 1.43226,0.26047 3.49931,0.79758 6.20117,1.61133 l 3.22266,-2.00195"
         id="path3851"
         style="fill:#ffffff" />
      <path
         d="m 161.13725,449.64136 1.61133,0.39062 c -0.87893,3.41803 -2.0508,8.75657 -3.51562,16.01563 -0.4232,2.14848 -0.74872,3.77608 -0.97657,4.88281 1.59503,4e-5 3.27146,-0.0325 5.0293,-0.0977 1.79034,-0.0976 3.74346,-0.22782 5.85938,-0.39062 -0.1628,0.74874 -0.30928,1.54627 -0.43946,2.39258 -0.0977,0.81384 -0.19534,1.67647 -0.29297,2.58789 l -10.98632,0 -2.49024,13.08593 c -1.17189,6.38023 -1.93686,10.75848 -2.29492,13.13477 -0.32554,2.34376 -0.4883,4.10157 -0.48828,5.27344 -2e-5,0.71615 0.14647,1.30209 0.43945,1.75781 0.29295,0.42318 0.68358,0.63477 1.17188,0.63477 0.68357,0 1.888,-0.53711 3.61328,-1.61133 1.75779,-1.07421 3.84112,-2.60416 6.25,-4.58985 l 0.92773,2.00196 c -3.74351,3.48308 -7.11265,6.13607 -10.10742,7.95898 -2.96225,1.82292 -5.43621,2.73438 -7.42188,2.73438 -1.04167,0 -1.88802,-0.32552 -2.53906,-0.97657 -0.61849,-0.65104 -0.92774,-1.51367 -0.92773,-2.58789 -1e-5,-1.7578 0.66731,-5.68033 2.00195,-11.76757 0.58593,-2.83202 1.04166,-5.04556 1.36719,-6.64063 l 3.71094,-18.4082 c -1.3672,4e-5 -2.75067,0.0326 -4.15039,0.0976 -1.39975,0.0326 -2.79949,0.0977 -4.19922,0.19532 l 0.0488,-1.70899 c 2.14844,-0.61845 3.95507,-1.23694 5.41993,-1.85547 1.46483,-0.651 2.73436,-1.36714 3.80859,-2.14843 1.0742,-6.05464 1.77407,-10.1562 2.09961,-12.30469 0.3255,-2.14838 0.52082,-3.75971 0.58594,-4.83399 1.10675,-0.48822 2.2298,-0.99277 3.36914,-1.51367 1.17185,-0.52077 2.34373,-1.09043 3.51562,-1.70898"
         id="path3853"
         style="fill:#ffffff" />
      <path
         d="m 189.65288,485.62769 -1.80664,6.7871 c -1.26955,4.85028 -2.08335,8.17059 -2.44141,9.96094 -0.35809,1.79038 -0.53712,3.20639 -0.53711,4.24805 -1e-5,0.91146 0.11392,1.56251 0.3418,1.95312 0.22785,0.35808 0.63475,0.53712 1.2207,0.53711 1.13931,10e-6 3.67837,-1.3509 7.61719,-4.05273 l 0,-0.0488 1.31836,1.9043 c -3.38544,2.86459 -6.47788,5.14323 -9.27735,6.83594 -2.79949,1.66015 -4.85027,2.49023 -6.15234,2.49023 -1.04167,0 -1.8392,-0.39063 -2.39258,-1.17188 -0.52084,-0.74869 -0.78125,-1.85546 -0.78125,-3.32031 0,-1.72525 0.74869,-5.59895 2.2461,-11.62109 0.22785,-0.91144 0.40689,-1.61131 0.53711,-2.09961 l 0.92773,-3.71094 c 2.76692,-11.00257 4.15038,-17.10608 4.15039,-18.31055 -1e-5,-0.7161 -0.11394,-1.20438 -0.3418,-1.46484 -0.19532,-0.26037 -0.60222,-0.40686 -1.2207,-0.43945 -0.58595,4e-5 -1.54623,0.37439 -2.88086,1.12304 -1.30209,0.74874 -2.75066,1.74158 -4.3457,2.97852 l -0.87891,-2.00195 c 4.52473,-3.32027 7.99153,-5.6803 10.40039,-7.08008 2.44139,-1.39969 4.23176,-2.09956 5.3711,-2.09961 0.78123,5e-5 1.41599,0.27674 1.90429,0.83008 0.48826,0.52088 0.7324,1.20447 0.73243,2.05078 -3e-5,1.56254 -0.78128,5.11072 -2.34375,10.64453 -0.58596,2.18102 -1.04169,3.87373 -1.36719,5.07813 m 4.10156,-42.08985 c 1.23696,7e-5 2.21352,0.37442 2.92969,1.12305 0.71612,0.74877 1.07419,1.80671 1.07422,3.17383 -3e-5,1.79043 -0.52086,3.3041 -1.5625,4.54101 -1.04169,1.23704 -2.3275,1.85553 -3.85743,1.85547 -1.26955,6e-5 -2.27866,-0.37429 -3.02734,-1.12305 -0.71616,-0.78118 -1.07423,-1.83912 -1.07422,-3.17382 -1e-5,-1.7252 0.52082,-3.22259 1.5625,-4.49219 1.0742,-1.26946 2.39256,-1.90423 3.95508,-1.9043"
         id="path3855"
         style="fill:#ffffff" />
      <path
         d="m 233.06108,482.84448 c -3e-5,-4.23173 -0.79756,-7.43811 -2.39258,-9.61914 -1.59508,-2.2135 -3.9551,-3.32027 -7.08008,-3.32031 -4.36199,4e-5 -7.99155,2.79952 -10.88867,8.39844 -2.86459,5.59899 -4.29688,12.64651 -4.29687,21.14257 -1e-5,4.45965 0.79751,7.84506 2.39258,10.15625 1.59503,2.27865 3.95506,3.41798 7.08007,3.41797 4.68748,10e-6 8.38214,-2.70181 11.08399,-8.10547 2.73434,-5.40363 4.10153,-12.76039 4.10156,-22.07031 m -6.78711,-15.91797 c 4.91533,5e-5 8.52861,1.33469 10.83985,4.00391 2.31115,2.66931 3.46675,6.83597 3.46679,12.5 -4e-5,9.60289 -2.474,17.51303 -7.42187,23.73047 -4.94795,6.1849 -11.10029,9.27734 -18.45703,9.27734 -4.52475,0 -7.959,-1.41601 -10.30274,-4.24804 -2.34375,-2.83203 -3.51563,-6.94986 -3.51562,-12.35352 -1e-5,-9.44008 2.4414,-17.28512 7.32422,-23.53516 4.88279,-6.24995 10.90492,-9.37495 18.0664,-9.375"
         id="path3857"
         style="fill:#ffffff" />
      <path
         d="m 261.33257,489.43628 c 4.29685,-6.60804 9.04945,-11.97913 14.25781,-16.11328 5.24085,-4.13407 9.6191,-6.20113 13.13476,-6.20117 1.17183,4e-5 2.05074,0.29301 2.63672,0.8789 0.58589,0.55343 0.87886,1.39979 0.87891,2.53906 -5e-5,0.94406 -0.3093,2.91346 -0.92774,5.90821 -0.61853,2.96227 -1.48116,6.62438 -2.58789,10.98633 l -1.90429,7.37304 c -0.7813,3.02736 -1.39979,5.66408 -1.85547,7.91016 -0.42322,2.21355 -0.63481,3.71095 -0.63477,4.49219 -4e-5,0.81381 0.0813,1.41602 0.24414,1.80664 0.19527,0.39063 0.47197,0.60222 0.83008,0.63476 0.94397,1e-5 2.06701,-0.35806 3.36914,-1.07422 1.30204,-0.74869 3.04357,-2.03449 5.22461,-3.85742 l 0.83008,2.19727 c -3.45057,2.89714 -6.55929,5.12695 -9.32617,6.68945 -2.73442,1.5625 -4.89913,2.34375 -6.49414,2.34375 -0.87894,0 -1.57881,-0.35807 -2.09961,-1.07422 -0.52087,-0.71614 -0.78129,-1.66015 -0.78125,-2.83203 -4e-5,-1.33463 0.65101,-4.4759 1.95312,-9.42383 0.65101,-2.47394 1.15557,-4.42706 1.51367,-5.85937 l 2.00196,-7.8125 c 0.68355,-2.7018 1.22066,-5.24086 1.61133,-7.61719 0.39058,-2.37627 0.58589,-4.08525 0.58593,-5.12695 -4e-5,-1.00908 -0.14652,-1.67639 -0.43945,-2.00196 -0.26046,-0.32548 -0.84639,-0.48824 -1.75781,-0.48828 -1.62764,4e-5 -4.00394,1.22075 -7.12891,3.66211 -3.09248,2.40889 -5.87568,5.35485 -8.34961,8.83789 -2.18101,3.05992 -4.11786,6.96617 -5.81055,11.71875 -1.66017,4.75262 -3.02735,10.18881 -4.10156,16.3086 -1.4323,0.0977 -2.68555,0.24414 -3.75976,0.43945 -1.07423,0.19531 -2.09962,0.43945 -3.07618,0.73242 l -0.83007,-0.29297 c 2.53905,-8.91926 4.57355,-17.05727 6.10351,-24.41406 1.52994,-7.35674 2.29491,-12.32093 2.29492,-14.89258 -1e-5,-0.78121 -0.0977,-1.31832 -0.29296,-1.61133 -0.19533,-0.32548 -0.53713,-0.48824 -1.0254,-0.48828 -0.78126,4e-5 -1.96941,0.39067 -3.56445,1.17188 -1.56251,0.78129 -3.17383,1.82295 -4.83398,3.125 l -0.58594,-2.00196 c 3.32031,-2.66922 6.4453,-4.81766 9.375,-6.44531 2.92967,-1.62755 5.02928,-2.44136 6.29883,-2.4414 0.84633,4e-5 1.46482,0.24418 1.85547,0.73242 0.42315,0.45577 0.63474,1.17192 0.63476,2.14844 -2e-5,1.30212 -0.30926,3.6947 -0.92773,7.17773 -0.61851,3.48311 -1.46487,7.56839 -2.53906,12.25586"
         id="path3859"
         style="fill:#ffffff" />
    </g>
    <rect
       width="64"
       height="64"
       x="-454.17517"
       y="450.28976"
       id="rect3846"
       style="fill:#ffffff;fill-opacity:1;fill-rule:evenodd;stroke-width:20;stroke-linecap:round;stroke-miterlimit:4;stroke-dasharray:none" />
    <g
       id="text3012"
       style="font-size:40px;font-style:normal;font-variant:normal;font-weight:normal;font-stretch:normal;text-align:start;line-height:125%;letter-spacing:0px;word-spacing:0px;writing-mode:lr-tb;text-anchor:start;fill:#ffffff;fill-opacity:1;stroke:none;font-family:Sans;-inkscape-font-specification:Sans">
      <path
         d="m -86.087814,373.34262 c -0.319062,1.84575 -0.581106,3.70284 -0.786133,5.57129 -0.205129,1.84574 -0.364634,3.73702 -0.478516,5.67383 l -2.734375,0 c -4.7e-5,-0.18226 -4.7e-5,-0.46709 0,-0.85449 -0.04562,-3.21286 -0.64946,-5.35478 -1.811523,-6.42579 -1.298872,-1.23042 -3.076214,-2.21024 -5.332031,-2.93945 -2.233111,-0.72912 -4.580118,-1.0937 -7.041018,-1.09375 -5.83336,5e-5 -10.45901,1.87993 -13.87695,5.63965 -3.3952,3.73702 -5.09279,8.82978 -5.09277,15.27832 -2e-5,6.72202 1.84568,12.12241 5.5371,16.20117 3.69139,4.07878 8.53351,6.11817 14.52637,6.11817 1.41273,0 2.73434,-0.12533 3.964846,-0.37598 1.253216,-0.25065 2.460897,-0.63802 3.623047,-1.16211 0.0911,-0.77473 0.159463,-1.57226 0.205078,-2.39258 0.04553,-0.84309 0.06832,-1.95962 0.06836,-3.34961 l 0,-1.74316 c -4.2e-5,-2.62043 -0.398805,-4.15851 -1.196289,-4.61426 -0.77478,-0.45571 -2.962277,-0.71776 -6.562502,-0.78613 l 0,-2.56348 c 3.235642,0.11395 5.662397,0.19371 7.280275,0.23926 1.617796,0.0228 3.110307,0.0342 4.477539,0.0342 1.549432,2e-5 3.06473,-0.0228 4.545899,-0.0684 1.481068,-0.0455 2.928006,-0.11391 4.34082,-0.20508 l -0.03418,2.3584 c -1.207736,0.0684 -2.016655,0.38739 -2.426758,0.95703 -0.410209,0.56968 -0.615286,2.00522 -0.615235,4.30664 l 0,1.60645 c -5.1e-5,1.59506 0.01134,2.93946 0.03418,4.0332 0.02273,1.07097 0.05691,2.13054 0.102539,3.17871 -3.737027,1.3444 -7.451216,2.3584 -11.142578,3.04199 -3.668661,0.6836 -7.280311,1.02539 -10.834961,1.02539 -8.40822,0 -14.94793,-2.13053 -19.61914,-6.3916 -4.67123,-4.26106 -7.00684,-10.20832 -7.00684,-17.84179 0,-8.11195 2.63183,-14.48076 7.89551,-19.10645 5.26366,-4.6256 12.48696,-6.93843 21.66992,-6.93848 3.32679,5e-5 6.528284,0.30767 9.604495,0.92286 3.098913,0.59249 6.004184,1.48116 8.715821,2.66601"
         id="path3808"
         style="font-size:70px;font-weight:bold;fill:#ffffff;font-family:Zapf Calligraphic 801 SWA;-inkscape-font-specification:Zapf Calligraphic 801 SWA Bold" />
      <path
         d="m -76.209885,370.95004 c 1.38997,0.0912 2.859695,0.15956 4.40918,0.20508 1.549471,0.0456 3.24706,0.0684 5.092773,0.0684 1.982408,5e-5 4.625635,-0.0455 7.929688,-0.13672 3.326799,-0.0911 5.662409,-0.13667 7.006836,-0.13672 5.559863,5e-5 9.501916,0.77479 11.826172,2.32422 2.324177,1.54952 3.486285,4.113 3.486328,7.69043 -4.3e-5,2.71162 -0.922893,5.17256 -2.768555,7.38281 -1.822954,2.21032 -4.443394,4.02184 -7.861328,5.43457 l 10.90332,16.30371 c 0.205036,0.29624 0.478473,0.71779 0.820313,1.26465 2.050736,3.16733 3.90783,4.75098 5.571289,4.75098 l 0.273437,0 0,2.87109 c -0.524137,-0.0228 -1.287483,-0.0456 -2.290039,-0.0684 -2.255904,-0.0911 -3.964887,-0.13671 -5.126953,-0.13671 -0.410198,0 -1.059611,0.0228 -1.948242,0.0684 -0.865925,0.0456 -1.857134,0.11394 -2.973633,0.20508 l -12.578125,-19.10644 c -0.592472,-0.88865 -1.219099,-1.76593 -1.879883,-2.63184 -0.660829,-0.88865 -1.344422,-1.74314 -2.050781,-2.56347 l 0.546875,-1.33301 0.375977,0 c 3.326798,2e-5 5.981418,-0.92283 7.963867,-2.76856 2.005177,-1.84567 3.00778,-4.29521 3.007812,-7.34863 -3.2e-5,-2.6204 -0.84313,-4.69397 -2.529296,-6.2207 -1.66344,-1.54944 -3.919297,-2.32418 -6.767579,-2.32422 -0.91148,4e-5 -1.731792,0.0228 -2.460937,0.0684 -0.7064,0.0456 -1.3786,0.11397 -2.016602,0.20508 -0.136737,0.82035 -0.227883,1.68624 -0.273437,2.59765 -0.04559,0.88871 -0.06838,2.18754 -0.06836,3.89649 l 0,28.50586 0,0.0684 c -1.9e-5,2.77996 0.273418,4.46616 0.820312,5.0586 0.546855,0.59245 1.925435,0.88867 4.135742,0.88867 l 0.854492,0 -0.03418,2.93945 c -1.731794,-0.0684 -3.474956,-0.11393 -5.229492,-0.13672 -1.754575,-0.0456 -3.531917,-0.0684 -5.332032,-0.0684 -1.276054,0 -2.825531,0.0228 -4.648437,0.0684 -1.800138,0.0228 -3.86231,0.0684 -6.186524,0.13672 l 0,-2.93945 c 1.481116,0 2.586258,-0.0456 3.31543,-0.13672 0.72916,-0.11393 1.207675,-0.27343 1.435547,-0.47851 0.341789,-0.31901 0.59244,-1.66341 0.751953,-4.03321 0.159497,-2.36978 0.239249,-6.25487 0.239258,-11.65527 l 0,-15.34668 c -9e-6,-0.75192 0.01139,-1.70895 0.03418,-2.87109 0.02278,-1.16207 0.03417,-1.94821 0.03418,-2.3584 -8e-6,-2.39254 -0.330412,-3.88505 -0.991211,-4.47754 -0.660814,-0.61519 -2.267258,-0.94559 -4.819336,-0.99121 l 0,-2.73438"
         id="path3810"
         style="font-size:70px;font-weight:bold;fill:#ffffff;font-family:Zapf Calligraphic 801 SWA;-inkscape-font-specification:Zapf Calligraphic 801 SWA Bold" />
      <path
         d="m -26.3759,370.95004 c 2.711584,0.0684 5.366203,0.12538 7.963867,0.1709 2.597644,0.0228 5.491521,0.0342 8.6816405,0.0342 l 1.6064454,0 c 0.7747185,5e-5 2.6204198,-0.0113 5.5371093,-0.0342 2.91663801,-0.0455 6.8472981,-0.10249 11.7919922,-0.1709 l 0.9228516,0.99121 c -0.1595436,1.64067 -0.2962622,3.24712 -0.4101563,4.81934 -0.1139702,1.57231 -0.205116,3.15596 -0.2734375,4.75098 l -2.5292968,0 c -0.045608,-1.13929 -0.1139675,-2.15328 -0.2050782,-3.042 -0.091181,-0.88863 -0.205113,-1.70894 -0.3417968,-2.46093 -0.8659193,-0.41012 -2.1305665,-0.69495 -3.7939454,-0.8545 -1.66344068,-0.18224 -4.6028909,-0.27339 -8.8183593,-0.27343 l -3.9306637,0 c -0.136737,1.20772 -0.239276,2.4268 -0.307618,3.65722 -0.06838,1.20772 -0.102556,2.41541 -0.102539,3.62305 l 0,9.94629 2.3242191,0 3.828125,0 c 3.44072785,3e-5 5.5826528,-0.30759 6.4257813,-0.92285 0.8658542,-0.63799 1.2987964,-1.94821 1.2988281,-3.93067 l 0,-1.12793 2.4267578,0 c -3.41e-5,1.25329 -0.011427,2.7458 -0.03418,4.47754 -0.02282,1.7318 -0.034214,2.83694 -0.03418,3.31543 -3.4e-5,1.93687 -3.4e-5,3.45217 0,4.5459 0.022752,1.09377 0.045539,2.14195 0.068359,3.14453 l -2.4951172,0 c -0.022818,-3.96482 -3.19013255,-5.97003 -9.5019531,-6.01562 -1.8001505,-0.0228 -3.2243027,-0.0455 -4.272461,-0.0684 l -0.03418,19.24316 c 0.455711,1e-5 1.0937315,0.0114 1.9140629,0.0342 0.8430784,0.0228 1.4469189,0.0342 1.8115234,0.0342 2.9850016,10e-6 5.6624077,-0.0798 8.0322266,-0.23926 2.3925462,-0.18228 4.0445627,-0.39875 4.9560546,-0.64941 0.4784807,-0.1595 0.8886365,-0.75195 1.2304688,-1.77734 0.3417608,-1.02539 0.6835573,-2.76855 1.0253906,-5.2295 l 2.6660161,0 c -0.182331,1.61785 -0.341836,3.37241 -0.478516,5.26368 -0.113971,1.86849 -0.21651,4.01041 -0.307617,6.42578 -1.1393607,0.11393 -2.1191774,0.20508 -2.9394534,0.27343 -0.7975609,0.0456 -1.4925472,0.0684 -2.0849609,0.0684 -1.5267248,0 -4.42060213,-0.0456 -8.6816407,-0.13672 -4.2383019,-0.0911 -7.713233,-0.13671 -10.424805,-0.13671 -1.43556,0 -3.03061,0.0228 -4.785156,0.0684 -1.754565,0.0456 -3.634446,0.11393 -5.639648,0.20507 l 0,-1.74316 c 0.660802,-0.25065 1.264643,-0.53548 1.811523,-0.85449 0.546869,-0.3418 1.059563,-0.74056 1.538086,-1.19629 0.02278,-0.5013 0.06835,-1.21907 0.136719,-2.15332 0.09114,-1.57226 0.136711,-2.57486 0.136719,-3.00781 l 0,-29.39454 0,-1.19628 c -8e-6,-3.48629 -1.891282,-5.37756 -5.673829,-5.67383 -0.02279,4e-5 -0.04557,4e-5 -0.06836,0 l 0.03418,-2.80274"
         id="path3812"
         style="font-size:70px;font-weight:bold;fill:#ffffff;font-family:Zapf Calligraphic 801 SWA;-inkscape-font-specification:Zapf Calligraphic 801 SWA Bold" />
      <path
         d="m 38.018631,381.64828 -6.425781,17.08985 c 1.162091,0.0456 2.244446,0.0798 3.24707,0.10254 1.002583,0.0228 1.993793,0.0342 2.973633,0.0342 1.458308,2e-5 3.725559,-0.0456 6.801758,-0.13672 l 0.410156,0 -7.006836,-17.08985 m 0.717773,-11.10839 4.614258,0 10.629883,24.91699 c 3.281207,7.72462 5.468705,12.79461 6.5625,15.20996 1.093703,2.41537 1.822869,3.85092 2.1875,4.30664 0.318962,0.43295 0.80887,0.75196 1.469727,0.95703 0.683543,0.20508 1.549427,0.30762 2.597656,0.30762 l -0.03418,2.73437 c -1.48117,-0.0684 -3.007862,-0.11393 -4.580078,-0.13672 -1.549525,-0.0456 -3.554732,-0.0684 -6.015625,-0.0684 -0.569703,0 -1.731811,0.0228 -3.486328,0.0684 -1.754594,0.0228 -4.226922,0.0684 -7.416992,0.13672 l -0.03418,-2.73437 0.717773,0 c 1.617806,0 2.814094,-0.12532 3.588868,-0.37598 0.774703,-0.27343 1.162073,-0.68359 1.162109,-1.23047 -3.6e-5,-0.86588 -0.227901,-1.81151 -0.683594,-2.83691 -3.5e-5,1e-5 -0.01143,-0.0114 -0.03418,-0.0342 l -3.691407,-9.36523 c -1.139353,-0.0228 -2.381214,-0.0342 -3.725586,-0.0342 -1.321641,-0.0228 -3.281274,-0.0342 -5.878906,-0.0342 -0.957052,1e-5 -1.982442,0.0114 -3.076172,0.0342 -1.093768,1e-5 -2.255876,0.0114 -3.486328,0.0342 l -2.734375,7.21191 c -0.341809,0.86589 -0.62664,1.77735 -0.854492,2.73437 -0.227876,0.93425 -0.341809,1.60645 -0.341797,2.01661 0.02277,1.07096 1.629218,1.6862 4.819336,1.8457 0.227848,0.0228 0.398746,0.0342 0.512695,0.0342 l -0.03418,2.73437 c -1.435563,-0.0684 -2.779963,-0.11393 -4.033203,-0.13672 -1.230481,-0.0456 -2.32423,-0.0684 -3.28125,-0.0684 -1.389983,0 -2.791349,0.0228 -4.204102,0.0684 -1.389978,0.0228 -2.791344,0.0684 -4.204102,0.13672 l 0,-2.73437 c 2.506507,-0.13672 4.340815,-1.42415 5.50293,-3.86231 l 0.170899,-0.34179 c 1.503897,-3.23567 3.8509,-8.68163 7.041015,-16.33789 3.212874,-7.65622 6.630839,-16.04163 10.253906,-25.15625"
         id="path3814"
         style="font-size:70px;font-weight:bold;fill:#ffffff;font-family:Zapf Calligraphic 801 SWA;-inkscape-font-specification:Zapf Calligraphic 801 SWA Bold" />
      <path
         d="m 62.833084,370.95004 c 5.081374,0.0684 9.581695,0.12538 13.500977,0.1709 3.919251,0.0228 7.246071,0.0342 9.980468,0.0342 4.693981,5e-5 10.436163,-0.0569 17.226561,-0.1709 1.36715,-0.0227 2.34696,-0.0341 2.93946,-0.0342 -0.20513,1.75461 -0.36463,3.58891 -0.47852,5.50293 -0.11398,1.91411 -0.19373,3.93071 -0.23926,6.04981 l -2.70019,0 c -0.0228,-0.50127 -0.057,-1.20765 -0.10254,-2.11914 -0.0684,-2.59762 -0.52413,-4.05595 -1.36719,-4.375 -0.5697,-0.20504 -1.971067,-0.37594 -4.204102,-0.5127 -2.21032,-0.13667 -4.773794,-0.20503 -7.69043,-0.20508 -0.09117,0.752 -0.170926,1.44699 -0.239257,2.08496 -0.0456,0.63807 -0.06839,1.16215 -0.06836,1.57227 l 0,30.14648 0,0.8545 c -2.8e-5,2.96224 0.296196,4.7168 0.888672,5.26367 0.592418,0.54688 2.301401,0.82031 5.126953,0.82031 l 0,2.93945 c -1.777376,-0.0684 -3.531931,-0.11393 -5.263672,-0.13672 -1.709011,-0.0456 -3.680038,-0.0684 -5.913086,-0.0684 -1.86851,0 -3.680032,0.0228 -5.43457,0.0684 -1.754573,0.0228 -3.486342,0.0684 -5.195312,0.13672 l 0,-2.93945 c 2.779932,-0.0684 4.466129,-0.35319 5.058593,-0.85449 0.59243,-0.5013 0.888654,-1.86849 0.888672,-4.10156 l 0,-1.98243 0,-30.14648 c -1.8e-5,-0.54683 -0.0228,-1.1165 -0.06836,-1.70898 -0.02281,-0.6152 -0.07977,-1.26461 -0.170899,-1.94825 l -3.144531,0 c -2.233085,5e-5 -4.204112,0.0912 -5.913086,0.27344 -1.686205,0.15955 -2.80274,0.37602 -3.349609,0.64941 -0.387375,0.20513 -0.694992,1.56092 -0.922852,4.06739 -0.09115,0.93428 -0.170903,1.67484 -0.239257,2.22168 l -2.666016,0 0,-2.73438 c -2e-6,-1.68615 -0.02279,-3.23563 -0.06836,-4.64844 -0.04557,-1.4355 -0.102541,-2.82547 -0.170899,-4.16992"
         id="path3816"
         style="font-size:70px;font-weight:bold;fill:#ffffff;font-family:Zapf Calligraphic 801 SWA;-inkscape-font-specification:Zapf Calligraphic 801 SWA Bold" />
      <path
         d="m 143.01863,394.32895 0,20.91797 c 0.56964,0.0228 1.11652,0.0456 1.64063,0.0684 0.52406,0 1.04815,0.0114 1.57226,0.0342 3.50909,0 6.16371,-0.93424 7.96387,-2.80274 1.8001,-1.86848 2.70016,-4.60285 2.70019,-8.20312 -3e-5,-3.62303 -0.83173,-6.1979 -2.49511,-7.72461 -1.66344,-1.52667 -4.47757,-2.29002 -8.44239,-2.29004 l -2.93945,0 m 2.80274,-3.55469 c 3.19008,3e-5 5.61683,-0.76332 7.28027,-2.29004 1.68617,-1.52666 2.52927,-3.74834 2.5293,-6.66504 -3e-5,-2.52925 -0.68363,-4.37496 -2.05079,-5.53711 -1.34442,-1.16206 -3.48635,-1.74312 -6.42578,-1.74316 -0.18231,4e-5 -0.59247,0.0228 -1.23047,0.0684 -0.63804,0.0228 -1.49253,0.0684 -2.56347,0.13672 -0.11395,1.34444 -0.2051,2.48376 -0.27344,3.41797 -0.0456,0.93428 -0.0684,1.73181 -0.0684,2.39257 l 0,10.21973 2.80274,0 m -18.5254,-19.82422 c 1.91406,0.0684 3.66862,0.12538 5.26368,0.1709 1.61783,0.0228 3.05337,0.0342 4.30664,0.0342 1.16209,5e-5 3.1673,-0.0341 6.01562,-0.10254 2.87108,-0.0683 5.16111,-0.10249 6.87012,-0.10254 5.76494,5e-5 9.87789,0.72922 12.33887,2.1875 2.4609,1.45838 3.69136,3.82817 3.6914,7.10938 -4e-5,3.05342 -1.071,5.58271 -3.21289,7.58789 -2.11917,1.98245 -5.20674,3.32685 -9.26269,4.0332 5.01298,0.41018 8.61324,1.52672 10.80078,3.34961 2.18746,1.82294 3.28121,4.60288 3.28125,8.33984 -4e-5,4.76239 -1.78878,8.52215 -5.36621,11.2793 -3.57751,2.75716 -8.51077,4.13574 -14.79981,4.13574 -1.23049,0 -2.95086,-0.0456 -5.16113,-0.13672 -2.18751,-0.0911 -3.75978,-0.13671 -4.7168,-0.13671 -0.79753,0 -2.43816,0.057 -4.92187,0.17089 -1.0254,0.0456 -1.80014,0.0798 -2.32422,0.10254 l -0.0342,-1.74316 c 0.47851,-0.25065 0.94563,-0.53548 1.40137,-0.85449 0.45572,-0.31901 0.96841,-0.71777 1.53808,-1.19629 0.0228,-0.5013 0.0683,-1.21907 0.13672,-2.15332 0.0911,-1.57226 0.13671,-2.57486 0.13672,-3.00781 l 0,-29.39454 c -10e-6,-3.30399 -0.27345,-5.24084 -0.82031,-5.81054 -0.54688,-0.56962 -2.27865,-0.92281 -5.19531,-1.05957 l 0.0342,-2.80274"
         id="path3818"
         style="font-size:70px;font-weight:bold;fill:#ffffff;font-family:Zapf Calligraphic 801 SWA;-inkscape-font-specification:Zapf Calligraphic 801 SWA Bold" />
      <path
         d="m 195.79207,381.64828 -6.42578,17.08985 c 1.16209,0.0456 2.24444,0.0798 3.24707,0.10254 1.00258,0.0228 1.99379,0.0342 2.97363,0.0342 1.45831,2e-5 3.72556,-0.0456 6.80176,-0.13672 l 0.41015,0 -7.00683,-17.08985 m 0.71777,-11.10839 4.61426,0 10.62988,24.91699 c 3.28121,7.72462 5.46871,12.79461 6.5625,15.20996 1.09371,2.41537 1.82287,3.85092 2.1875,4.30664 0.31896,0.43295 0.80887,0.75196 1.46973,0.95703 0.68354,0.20508 1.54943,0.30762 2.59766,0.30762 l -0.0342,2.73437 c -1.48117,-0.0684 -3.00787,-0.11393 -4.58008,-0.13672 -1.54953,-0.0456 -3.55473,-0.0684 -6.01563,-0.0684 -0.5697,0 -1.73181,0.0228 -3.48633,0.0684 -1.75459,0.0228 -4.22692,0.0684 -7.41699,0.13672 l -0.0342,-2.73437 0.71778,0 c 1.6178,0 2.81409,-0.12532 3.58886,-0.37598 0.77471,-0.27343 1.16208,-0.68359 1.16211,-1.23047 -3e-5,-0.86588 -0.2279,-1.81151 -0.68359,-2.83691 -4e-5,1e-5 -0.0114,-0.0114 -0.0342,-0.0342 l -3.69141,-9.36523 c -1.13935,-0.0228 -2.38121,-0.0342 -3.72558,-0.0342 -1.32164,-0.0228 -3.28128,-0.0342 -5.87891,-0.0342 -0.95705,1e-5 -1.98244,0.0114 -3.07617,0.0342 -1.09377,1e-5 -2.25588,0.0114 -3.48633,0.0342 l -2.73437,7.21191 c -0.34181,0.86589 -0.62664,1.77735 -0.8545,2.73437 -0.22787,0.93425 -0.34181,1.60645 -0.34179,2.01661 0.0228,1.07096 1.62921,1.6862 4.81933,1.8457 0.22785,0.0228 0.39875,0.0342 0.5127,0.0342 l -0.0342,2.73437 c -1.43556,-0.0684 -2.77996,-0.11393 -4.0332,-0.13672 -1.23049,-0.0456 -2.32423,-0.0684 -3.28125,-0.0684 -1.38999,0 -2.79135,0.0228 -4.20411,0.0684 -1.38997,0.0228 -2.79134,0.0684 -4.2041,0.13672 l 0,-2.73437 c 2.50651,-0.13672 4.34082,-1.42415 5.50293,-3.86231 l 0.1709,-0.34179 c 1.5039,-3.23567 3.8509,-8.68163 7.04102,-16.33789 3.21287,-7.65622 6.63083,-16.04163 10.2539,-25.15625"
         id="path3820"
         style="font-size:70px;font-weight:bold;fill:#ffffff;font-family:Zapf Calligraphic 801 SWA;-inkscape-font-specification:Zapf Calligraphic 801 SWA Bold" />
      <path
         d="m 229.35652,370.95004 c 1.38997,0.0912 2.8597,0.15956 4.40918,0.20508 1.54947,0.0456 3.24706,0.0684 5.09277,0.0684 1.98241,5e-5 4.62564,-0.0455 7.92969,-0.13672 3.3268,-0.0911 5.66241,-0.13667 7.00684,-0.13672 5.55986,5e-5 9.50191,0.77479 11.82617,2.32422 2.32418,1.54952 3.48629,4.113 3.48633,7.69043 -4e-5,2.71162 -0.92289,5.17256 -2.76856,7.38281 -1.82295,2.21032 -4.44339,4.02184 -7.86132,5.43457 l 10.90332,16.30371 c 0.20503,0.29624 0.47847,0.71779 0.82031,1.26465 2.05073,3.16733 3.90783,4.75098 5.57129,4.75098 l 0.27343,0 0,2.87109 c -0.52413,-0.0228 -1.28748,-0.0456 -2.29003,-0.0684 -2.25591,-0.0911 -3.96489,-0.13671 -5.12696,-0.13671 -0.4102,0 -1.05961,0.0228 -1.94824,0.0684 -0.86592,0.0456 -1.85713,0.11394 -2.97363,0.20508 l -12.57813,-19.10644 c -0.59247,-0.88865 -1.2191,-1.76593 -1.87988,-2.63184 -0.66083,-0.88865 -1.34442,-1.74314 -2.05078,-2.56347 l 0.54687,-1.33301 0.37598,0 c 3.3268,2e-5 5.98142,-0.92283 7.96387,-2.76856 2.00517,-1.84567 3.00778,-4.29521 3.00781,-7.34863 -3e-5,-2.6204 -0.84313,-4.69397 -2.5293,-6.2207 -1.66344,-1.54944 -3.91929,-2.32418 -6.76758,-2.32422 -0.91148,4e-5 -1.73179,0.0228 -2.46093,0.0684 -0.7064,0.0456 -1.3786,0.11397 -2.0166,0.20508 -0.13674,0.82035 -0.22789,1.68624 -0.27344,2.59765 -0.0456,0.88871 -0.0684,2.18754 -0.0684,3.89649 l 0,28.50586 0,0.0684 c -2e-5,2.77996 0.27342,4.46616 0.82031,5.0586 0.54686,0.59245 1.92544,0.88867 4.13574,0.88867 l 0.8545,0 -0.0342,2.93945 c -1.7318,-0.0684 -3.47496,-0.11393 -5.2295,-0.13672 -1.75457,-0.0456 -3.53191,-0.0684 -5.33203,-0.0684 -1.27605,0 -2.82553,0.0228 -4.64843,0.0684 -1.80014,0.0228 -3.86231,0.0684 -6.18653,0.13672 l 0,-2.93945 c 1.48112,0 2.58626,-0.0456 3.31543,-0.13672 0.72916,-0.11393 1.20768,-0.27343 1.43555,-0.47851 0.34179,-0.31901 0.59244,-1.66341 0.75195,-4.03321 0.1595,-2.36978 0.23925,-6.25487 0.23926,-11.65527 l 0,-15.34668 c -1e-5,-0.75192 0.0114,-1.70895 0.0342,-2.87109 0.0228,-1.16207 0.0342,-1.94821 0.0342,-2.3584 -1e-5,-2.39254 -0.33041,-3.88505 -0.99121,-4.47754 -0.66082,-0.61519 -2.26726,-0.94559 -4.81934,-0.99121 l 0,-2.73438"
         id="path3822"
         style="font-size:70px;font-weight:bold;fill:#ffffff;font-family:Zapf Calligraphic 801 SWA;-inkscape-font-specification:Zapf Calligraphic 801 SWA Bold" />
      <path
         d="m 279.94246,370.95004 c 1.38997,0.0912 2.85969,0.15956 4.40918,0.20508 1.54947,0.0456 3.24706,0.0684 5.09277,0.0684 1.98241,5e-5 4.62564,-0.0455 7.92969,-0.13672 3.3268,-0.0911 5.66241,-0.13667 7.00684,-0.13672 5.55986,5e-5 9.50191,0.77479 11.82617,2.32422 2.32417,1.54952 3.48628,4.113 3.48633,7.69043 -5e-5,2.71162 -0.9229,5.17256 -2.76856,7.38281 -1.82295,2.21032 -4.44339,4.02184 -7.86133,5.43457 l 10.90332,16.30371 c 0.20504,0.29624 0.47848,0.71779 0.82032,1.26465 2.05073,3.16733 3.90783,4.75098 5.57128,4.75098 l 0.27344,0 0,2.87109 c -0.52414,-0.0228 -1.28748,-0.0456 -2.29004,-0.0684 -2.2559,-0.0911 -3.96488,-0.13671 -5.12695,-0.13671 -0.4102,0 -1.05961,0.0228 -1.94824,0.0684 -0.86593,0.0456 -1.85714,0.11394 -2.97363,0.20508 l -12.57813,-19.10644 c -0.59247,-0.88865 -1.2191,-1.76593 -1.87988,-2.63184 -0.66083,-0.88865 -1.34443,-1.74314 -2.05078,-2.56347 l 0.54687,-1.33301 0.37598,0 c 3.3268,2e-5 5.98142,-0.92283 7.96386,-2.76856 2.00518,-1.84567 3.00778,-4.29521 3.00782,-7.34863 -4e-5,-2.6204 -0.84313,-4.69397 -2.5293,-6.2207 -1.66344,-1.54944 -3.9193,-2.32418 -6.76758,-2.32422 -0.91148,4e-5 -1.73179,0.0228 -2.46094,0.0684 -0.7064,0.0456 -1.3786,0.11397 -2.0166,0.20508 -0.13673,0.82035 -0.22788,1.68624 -0.27343,2.59765 -0.0456,0.88871 -0.0684,2.18754 -0.0684,3.89649 l 0,28.50586 0,0.0684 c -2e-5,2.77996 0.27342,4.46616 0.82031,5.0586 0.54685,0.59245 1.92543,0.88867 4.13574,0.88867 l 0.85449,0 -0.0342,2.93945 c -1.73179,-0.0684 -3.47495,-0.11393 -5.22949,-0.13672 -1.75457,-0.0456 -3.53192,-0.0684 -5.33203,-0.0684 -1.27605,0 -2.82553,0.0228 -4.64844,0.0684 -1.80013,0.0228 -3.86231,0.0684 -6.18652,0.13672 l 0,-2.93945 c 1.48111,0 2.58626,-0.0456 3.31543,-0.13672 0.72916,-0.11393 1.20767,-0.27343 1.43555,-0.47851 0.34178,-0.31901 0.59244,-1.66341 0.75195,-4.03321 0.1595,-2.36978 0.23925,-6.25487 0.23926,-11.65527 l 0,-15.34668 c -1e-5,-0.75192 0.0114,-1.70895 0.0342,-2.87109 0.0228,-1.16207 0.0342,-1.94821 0.0342,-2.3584 -1e-5,-2.39254 -0.33042,-3.88505 -0.99121,-4.47754 -0.66082,-0.61519 -2.26726,-0.94559 -4.81934,-0.99121 l 0,-2.73438"
         id="path3824"
         style="font-size:70px;font-weight:bold;fill:#ffffff;font-family:Zapf Calligraphic 801 SWA;-inkscape-font-specification:Zapf Calligraphic 801 SWA Bold" />
      <path
         d="m 330.5284,370.95004 c 0.97981,0.0684 2.06217,0.12538 3.24707,0.1709 1.20767,0.0228 3.06477,0.0342 5.57129,0.0342 2.07355,5e-5 4.19269,-0.0113 6.35742,-0.0342 2.18748,-0.0455 4.42055,-0.10249 6.69922,-0.1709 l 0.0342,2.73438 c -2.80276,4e-5 -4.51174,0.29627 -5.12696,0.88867 -0.59246,0.59249 -0.88869,2.63188 -0.88867,6.11816 l 0,28.40332 0,0.44434 c -2e-5,3.19011 0.28481,5.06999 0.85449,5.63965 0.59243,0.56966 2.31281,0.85449 5.16114,0.85449 l -0.0342,2.93945 c -1.77737,-0.0684 -3.53193,-0.11393 -5.26368,-0.13672 -1.709,-0.0456 -3.68002,-0.0684 -5.91308,-0.0684 -1.8685,0 -3.69142,0.0228 -5.46875,0.0684 -1.77735,0.0228 -3.52051,0.0684 -5.22949,0.13672 l 0,-2.93945 c 2.75715,-0.0456 4.43196,-0.30761 5.02441,-0.78613 0.61523,-0.5013 0.92284,-1.97103 0.92285,-4.40918 l 0,-1.74317 0,-28.40332 0,-1.91406 c -1e-5,-2.34696 -0.36459,-3.78251 -1.09375,-4.30664 -0.70638,-0.52404 -2.32422,-0.78609 -4.85351,-0.78613 l 0,-2.73438"
         id="path3826"
         style="font-size:70px;font-weight:bold;fill:#ffffff;font-family:Zapf Calligraphic 801 SWA;-inkscape-font-specification:Zapf Calligraphic 801 SWA Bold" />
      <path
         d="m 356.98347,370.95004 c 2.71159,0.0684 5.36621,0.12538 7.96387,0.1709 2.59765,0.0228 5.49152,0.0342 8.68164,0.0342 l 1.60645,0 c 0.77472,5e-5 2.62042,-0.0113 5.53711,-0.0342 2.91664,-0.0455 6.8473,-0.10249 11.79199,-0.1709 l 0.92285,0.99121 c -0.15954,1.64067 -0.29626,3.24712 -0.41016,4.81934 -0.11397,1.57231 -0.20511,3.15596 -0.27343,4.75098 l -2.5293,0 c -0.0456,-1.13929 -0.11397,-2.15328 -0.20508,-3.042 -0.0912,-0.88863 -0.20511,-1.70894 -0.34179,-2.46093 -0.86592,-0.41012 -2.13057,-0.69495 -3.79395,-0.8545 -1.66344,-0.18224 -4.60289,-0.27339 -8.81836,-0.27343 l -3.93066,0 c -0.13674,1.20772 -0.23928,2.4268 -0.30762,3.65722 -0.0684,1.20772 -0.10256,2.41541 -0.10254,3.62305 l 0,9.94629 2.32422,0 3.82812,0 c 3.44073,3e-5 5.58266,-0.30759 6.42579,-0.92285 0.86585,-0.63799 1.29879,-1.94821 1.29882,-3.93067 l 0,-1.12793 2.42676,0 c -3e-5,1.25329 -0.0114,2.7458 -0.0342,4.47754 -0.0228,1.7318 -0.0342,2.83694 -0.0342,3.31543 -3e-5,1.93687 -3e-5,3.45217 0,4.5459 0.0228,1.09377 0.0455,2.14195 0.0684,3.14453 l -2.49512,0 c -0.0228,-3.96482 -3.19013,-5.97003 -9.50195,-6.01562 -1.80015,-0.0228 -3.2243,-0.0455 -4.27246,-0.0684 l -0.0342,19.24316 c 0.45571,1e-5 1.09373,0.0114 1.91406,0.0342 0.84308,0.0228 1.44692,0.0342 1.81153,0.0342 2.985,10e-6 5.6624,-0.0798 8.03222,-0.23926 2.39255,-0.18228 4.04457,-0.39875 4.95606,-0.64941 0.47848,-0.1595 0.88863,-0.75195 1.23047,-1.77734 0.34176,-1.02539 0.68355,-2.76855 1.02539,-5.2295 l 2.66601,0 c -0.18233,1.61785 -0.34183,3.37241 -0.47851,5.26368 -0.11397,1.86849 -0.21651,4.01041 -0.30762,6.42578 -1.13936,0.11393 -2.11918,0.20508 -2.93945,0.27343 -0.79756,0.0456 -1.49255,0.0684 -2.08496,0.0684 -1.52673,0 -4.42061,-0.0456 -8.68164,-0.13672 -4.23831,-0.0911 -7.71324,-0.13671 -10.42481,-0.13671 -1.43556,0 -3.03061,0.0228 -4.78516,0.0684 -1.75456,0.0456 -3.63444,0.11393 -5.63964,0.20507 l 0,-1.74316 c 0.6608,-0.25065 1.26464,-0.53548 1.81152,-0.85449 0.54687,-0.3418 1.05956,-0.74056 1.53809,-1.19629 0.0228,-0.5013 0.0684,-1.21907 0.13671,-2.15332 0.0911,-1.57226 0.13671,-2.57486 0.13672,-3.00781 l 0,-29.39454 0,-1.19628 c -1e-5,-3.48629 -1.89128,-5.37756 -5.67383,-5.67383 -0.0228,4e-5 -0.0456,4e-5 -0.0684,0 l 0.0342,-2.80274"
         id="path3828"
         style="font-size:70px;font-weight:bold;fill:#ffffff;font-family:Zapf Calligraphic 801 SWA;-inkscape-font-specification:Zapf Calligraphic 801 SWA Bold" />
      <path
         d="m 400.5284,370.95004 c 1.38997,0.0912 2.85969,0.15956 4.40918,0.20508 1.54947,0.0456 3.24706,0.0684 5.09277,0.0684 1.98241,5e-5 4.62563,-0.0455 7.92969,-0.13672 3.3268,-0.0911 5.66241,-0.13667 7.00683,-0.13672 5.55987,5e-5 9.50192,0.77479 11.82618,2.32422 2.32417,1.54952 3.48628,4.113 3.48632,7.69043 -4e-5,2.71162 -0.92289,5.17256 -2.76855,7.38281 -1.82296,2.21032 -4.4434,4.02184 -7.86133,5.43457 l 10.90332,16.30371 c 0.20504,0.29624 0.47847,0.71779 0.82031,1.26465 2.05074,3.16733 3.90783,4.75098 5.57129,4.75098 l 0.27344,0 0,2.87109 c -0.52414,-0.0228 -1.28748,-0.0456 -2.29004,-0.0684 -2.2559,-0.0911 -3.96489,-0.13671 -5.12695,-0.13671 -0.4102,0 -1.05961,0.0228 -1.94824,0.0684 -0.86593,0.0456 -1.85714,0.11394 -2.97364,0.20508 l -12.57812,-19.10644 c -0.59247,-0.88865 -1.2191,-1.76593 -1.87989,-2.63184 -0.66082,-0.88865 -1.34442,-1.74314 -2.05078,-2.56347 l 0.54688,-1.33301 0.37598,0 c 3.32679,2e-5 5.98141,-0.92283 7.96386,-2.76856 2.00518,-1.84567 3.00778,-4.29521 3.00781,-7.34863 -3e-5,-2.6204 -0.84313,-4.69397 -2.52929,-6.2207 -1.66344,-1.54944 -3.9193,-2.32418 -6.76758,-2.32422 -0.91148,4e-5 -1.73179,0.0228 -2.46094,0.0684 -0.7064,0.0456 -1.3786,0.11397 -2.0166,0.20508 -0.13674,0.82035 -0.22788,1.68624 -0.27344,2.59765 -0.0456,0.88871 -0.0684,2.18754 -0.0684,3.89649 l 0,28.50586 0,0.0684 c -10e-6,2.77996 0.27342,4.46616 0.82032,5.0586 0.54685,0.59245 1.92543,0.88867 4.13574,0.88867 l 0.85449,0 -0.0342,2.93945 c -1.73179,-0.0684 -3.47495,-0.11393 -5.22949,-0.13672 -1.75458,-0.0456 -3.53192,-0.0684 -5.33203,-0.0684 -1.27606,0 -2.82553,0.0228 -4.64844,0.0684 -1.80014,0.0228 -3.86231,0.0684 -6.18652,0.13672 l 0,-2.93945 c 1.48111,0 2.58625,-0.0456 3.31543,-0.13672 0.72916,-0.11393 1.20767,-0.27343 1.43554,-0.47851 0.34179,-0.31901 0.59244,-1.66341 0.75196,-4.03321 0.15949,-2.36978 0.23925,-6.25487 0.23925,-11.65527 l 0,-15.34668 c 0,-0.75192 0.0114,-1.70895 0.0342,-2.87109 0.0228,-1.16207 0.0342,-1.94821 0.0342,-2.3584 -10e-6,-2.39254 -0.33041,-3.88505 -0.99121,-4.47754 -0.66081,-0.61519 -2.26726,-0.94559 -4.81933,-0.99121 l 0,-2.73438"
         id="path3830"
         style="font-size:70px;font-weight:bold;fill:#ffffff;font-family:Zapf Calligraphic 801 SWA;-inkscape-font-specification:Zapf Calligraphic 801 SWA Bold" />
      <path
         d="m 468.61433,370.95004 c 1.38997,0.0912 2.8597,0.15956 4.40918,0.20508 1.54947,0.0456 3.24706,0.0684 5.09278,0.0684 1.9824,5e-5 4.62563,-0.0455 7.92968,-0.13672 3.3268,-0.0911 5.66241,-0.13667 7.00684,-0.13672 5.55986,5e-5 9.50192,0.77479 11.82617,2.32422 2.32418,1.54952 3.48629,4.113 3.48633,7.69043 -4e-5,2.71162 -0.92289,5.17256 -2.76855,7.38281 -1.82296,2.21032 -4.4434,4.02184 -7.86133,5.43457 l 10.90332,16.30371 c 0.20503,0.29624 0.47847,0.71779 0.82031,1.26465 2.05074,3.16733 3.90783,4.75098 5.57129,4.75098 l 0.27344,0 0,2.87109 c -0.52414,-0.0228 -1.28749,-0.0456 -2.29004,-0.0684 -2.25591,-0.0911 -3.96489,-0.13671 -5.12695,-0.13671 -0.4102,0 -1.05962,0.0228 -1.94825,0.0684 -0.86592,0.0456 -1.85713,0.11394 -2.97363,0.20508 L 490.3868,399.93442 c -0.59248,-0.88865 -1.2191,-1.76593 -1.87989,-2.63184 -0.66083,-0.88865 -1.34442,-1.74314 -2.05078,-2.56347 l 0.54688,-1.33301 0.37597,0 c 3.3268,2e-5 5.98142,-0.92283 7.96387,-2.76856 2.00518,-1.84567 3.00778,-4.29521 3.00781,-7.34863 -3e-5,-2.6204 -0.84313,-4.69397 -2.52929,-6.2207 -1.66344,-1.54944 -3.9193,-2.32418 -6.76758,-2.32422 -0.91148,4e-5 -1.7318,0.0228 -2.46094,0.0684 -0.7064,0.0456 -1.3786,0.11397 -2.0166,0.20508 -0.13674,0.82035 -0.22788,1.68624 -0.27344,2.59765 -0.0456,0.88871 -0.0684,2.18754 -0.0684,3.89649 l 0,28.50586 0,0.0684 c -2e-5,2.77996 0.27342,4.46616 0.82031,5.0586 0.54686,0.59245 1.92544,0.88867 4.13575,0.88867 l 0.85449,0 -0.0342,2.93945 c -1.73179,-0.0684 -3.47496,-0.11393 -5.22949,-0.13672 -1.75458,-0.0456 -3.53192,-0.0684 -5.33203,-0.0684 -1.27606,0 -2.82554,0.0228 -4.64844,0.0684 -1.80014,0.0228 -3.86231,0.0684 -6.18653,0.13672 l 0,-2.93945 c 1.48112,0 2.58626,-0.0456 3.31543,-0.13672 0.72916,-0.11393 1.20768,-0.27343 1.43555,-0.47851 0.34179,-0.31901 0.59244,-1.66341 0.75195,-4.03321 0.1595,-2.36978 0.23925,-6.25487 0.23926,-11.65527 l 0,-15.34668 c -1e-5,-0.75192 0.0114,-1.70895 0.0342,-2.87109 0.0228,-1.16207 0.0342,-1.94821 0.0342,-2.3584 -1e-5,-2.39254 -0.33041,-3.88505 -0.99121,-4.47754 -0.66081,-0.61519 -2.26726,-0.94559 -4.81934,-0.99121 l 0,-2.73438"
         id="path3832"
         style="font-size:70px;font-weight:bold;fill:#ffffff;font-family:Zapf Calligraphic 801 SWA;-inkscape-font-specification:Zapf Calligraphic 801 SWA Bold" />
      <path
         d="m 518.44832,370.95004 c 2.71158,0.0684 5.3662,0.12538 7.96387,0.1709 2.59764,0.0228 5.49152,0.0342 8.68164,0.0342 l 1.60644,0 c 0.77472,5e-5 2.62042,-0.0113 5.53711,-0.0342 2.91664,-0.0455 6.8473,-0.10249 11.79199,-0.1709 l 0.92285,0.99121 c -0.15954,1.64067 -0.29626,3.24712 -0.41015,4.81934 -0.11397,1.57231 -0.20512,3.15596 -0.27344,4.75098 l -2.5293,0 c -0.0456,-1.13929 -0.11396,-2.15328 -0.20507,-3.042 -0.0912,-0.88863 -0.20512,-1.70894 -0.3418,-2.46093 -0.86592,-0.41012 -2.13057,-0.69495 -3.79395,-0.8545 -1.66344,-0.18224 -4.60289,-0.27339 -8.81836,-0.27343 l -3.93066,0 c -0.13674,1.20772 -0.23928,2.4268 -0.30762,3.65722 -0.0684,1.20772 -0.10255,2.41541 -0.10254,3.62305 l 0,9.94629 2.32422,0 3.82813,0 c 3.44073,3e-5 5.58265,-0.30759 6.42578,-0.92285 0.86585,-0.63799 1.2988,-1.94821 1.29883,-3.93067 l 0,-1.12793 2.42676,0 c -4e-5,1.25329 -0.0114,2.7458 -0.0342,4.47754 -0.0228,1.7318 -0.0342,2.83694 -0.0342,3.31543 -4e-5,1.93687 -4e-5,3.45217 0,4.5459 0.0227,1.09377 0.0455,2.14195 0.0684,3.14453 l -2.49512,0 c -0.0228,-3.96482 -3.19013,-5.97003 -9.50196,-6.01562 -1.80015,-0.0228 -3.2243,-0.0455 -4.27246,-0.0684 l -0.0342,19.24316 c 0.45572,1e-5 1.09374,0.0114 1.91407,0.0342 0.84308,0.0228 1.44692,0.0342 1.81152,0.0342 2.985,10e-6 5.66241,-0.0798 8.03223,-0.23926 2.39254,-0.18228 4.04456,-0.39875 4.95605,-0.64941 0.47848,-0.1595 0.88864,-0.75195 1.23047,-1.77734 0.34176,-1.02539 0.68356,-2.76855 1.02539,-5.2295 l 2.66602,0 c -0.18233,1.61785 -0.34184,3.37241 -0.47852,5.26368 -0.11397,1.86849 -0.21651,4.01041 -0.30762,6.42578 -1.13936,0.11393 -2.11917,0.20508 -2.93945,0.27343 -0.79756,0.0456 -1.49255,0.0684 -2.08496,0.0684 -1.52673,0 -4.4206,-0.0456 -8.68164,-0.13672 -4.2383,-0.0911 -7.71323,-0.13671 -10.42481,-0.13671 -1.43556,0 -3.03061,0.0228 -4.78515,0.0684 -1.75457,0.0456 -3.63445,0.11393 -5.63965,0.20507 l 0,-1.74316 c 0.6608,-0.25065 1.26464,-0.53548 1.81152,-0.85449 0.54687,-0.3418 1.05957,-0.74056 1.53809,-1.19629 0.0228,-0.5013 0.0684,-1.21907 0.13672,-2.15332 0.0911,-1.57226 0.13671,-2.57486 0.13672,-3.00781 l 0,-29.39454 0,-1.19628 c -10e-6,-3.48629 -1.89129,-5.37756 -5.67383,-5.67383 -0.0228,4e-5 -0.0456,4e-5 -0.0684,0 l 0.0342,-2.80274"
         id="path3834"
         style="font-size:70px;font-weight:bold;fill:#ffffff;font-family:Zapf Calligraphic 801 SWA;-inkscape-font-specification:Zapf Calligraphic 801 SWA Bold" />
      <path
         d="m 561.24129,370.95004 c 2.71158,0.0684 5.3662,0.12538 7.96386,0.1709 2.59765,0.0228 5.49153,0.0342 8.68165,0.0342 l 1.60644,0 c 0.77472,5e-5 2.62042,-0.0113 5.53711,-0.0342 2.91664,-0.0455 6.8473,-0.10249 11.79199,-0.1709 l 0.92285,0.99121 c -0.15954,1.64067 -0.29626,3.24712 -0.41015,4.81934 -0.11397,1.57231 -0.20512,3.15596 -0.27344,4.75098 l -2.5293,0 c -0.0456,-1.13929 -0.11396,-2.15328 -0.20508,-3.042 -0.0912,-0.88863 -0.20511,-1.70894 -0.34179,-2.46093 -0.86592,-0.41012 -2.13057,-0.69495 -3.79395,-0.8545 -1.66344,-0.18224 -4.60289,-0.27339 -8.81836,-0.27343 l -3.93066,0 c -0.13674,1.20772 -0.23928,2.4268 -0.30762,3.65722 -0.0684,1.20772 -0.10255,2.41541 -0.10254,3.62305 l 0,9.94629 2.32422,0 3.82813,0 c 3.44072,3e-5 5.58265,-0.30759 6.42578,-0.92285 0.86585,-0.63799 1.29879,-1.94821 1.29883,-3.93067 l 0,-1.12793 2.42675,0 c -3e-5,1.25329 -0.0114,2.7458 -0.0342,4.47754 -0.0228,1.7318 -0.0342,2.83694 -0.0342,3.31543 -3e-5,1.93687 -3e-5,3.45217 0,4.5459 0.0228,1.09377 0.0455,2.14195 0.0684,3.14453 l -2.49511,0 c -0.0228,-3.96482 -3.19014,-5.97003 -9.50196,-6.01562 -1.80015,-0.0228 -3.2243,-0.0455 -4.27246,-0.0684 l -0.0342,19.24316 c 0.45571,1e-5 1.09373,0.0114 1.91407,0.0342 0.84307,0.0228 1.44691,0.0342 1.81152,0.0342 2.985,10e-6 5.66241,-0.0798 8.03223,-0.23926 2.39254,-0.18228 4.04456,-0.39875 4.95605,-0.64941 0.47848,-0.1595 0.88864,-0.75195 1.23047,-1.77734 0.34176,-1.02539 0.68356,-2.76855 1.02539,-5.2295 l 2.66602,0 c -0.18234,1.61785 -0.34184,3.37241 -0.47852,5.26368 -0.11397,1.86849 -0.21651,4.01041 -0.30762,6.42578 -1.13936,0.11393 -2.11917,0.20508 -2.93945,0.27343 -0.79756,0.0456 -1.49255,0.0684 -2.08496,0.0684 -1.52673,0 -4.4206,-0.0456 -8.68164,-0.13672 -4.2383,-0.0911 -7.71324,-0.13671 -10.42481,-0.13671 -1.43556,0 -3.03061,0.0228 -4.78515,0.0684 -1.75457,0.0456 -3.63445,0.11393 -5.63965,0.20507 l 0,-1.74316 c 0.6608,-0.25065 1.26464,-0.53548 1.81152,-0.85449 0.54687,-0.3418 1.05956,-0.74056 1.53809,-1.19629 0.0228,-0.5013 0.0684,-1.21907 0.13672,-2.15332 0.0911,-1.57226 0.13671,-2.57486 0.13672,-3.00781 l 0,-29.39454 0,-1.19628 c -1e-5,-3.48629 -1.89129,-5.37756 -5.67383,-5.67383 -0.0228,4e-5 -0.0456,4e-5 -0.0684,0 l 0.0342,-2.80274"
         id="path3836"
         style="font-size:70px;font-weight:bold;fill:#ffffff;font-family:Zapf Calligraphic 801 SWA;-inkscape-font-specification:Zapf Calligraphic 801 SWA Bold" />
      <path
         d="m 637.94051,370.88168 1.05957,1.05957 c -0.13676,1.5951 -0.2393,3.23572 -0.30762,4.92188 -0.0684,1.68624 -0.10258,3.40661 -0.10254,5.16113 l -2.66602,-0.0342 c -0.0228,-0.91142 -0.0912,-1.85706 -0.20507,-2.83691 -0.0912,-0.97978 -0.2279,-2.00517 -0.41016,-3.07617 -1.25329,-0.4329 -2.64326,-0.74052 -4.16992,-0.92286 -1.50394,-0.18224 -3.47496,-0.27339 -5.91309,-0.27343 -0.63804,4e-5 -1.33303,0.0228 -2.08496,0.0684 -0.72919,0.0228 -1.77736,0.0912 -3.14453,0.20507 -0.0684,0.56971 -0.11395,1.16216 -0.13672,1.77735 -0.0228,0.61527 -0.0342,1.49255 -0.0342,2.63183 l 0,12.78321 c 1.27602,-0.0228 2.89386,-0.0342 4.85352,-0.0342 5.26364,-0.0228 7.89547,-1.6406 7.89551,-4.85352 l 0,-0.75195 2.63183,0 c -3e-5,1.32164 -0.0114,2.62047 -0.0342,3.89648 -3e-5,1.25329 -3e-5,2.60908 0,4.06739 -3e-5,1.66343 -3e-5,3.0648 0,4.2041 0.0227,1.11655 0.0455,2.2103 0.0684,3.28125 l -2.80273,0 0,-1.29883 c -3e-5,-3.25844 -3.0762,-4.92185 -9.22852,-4.99024 -1.41278,-0.0228 -2.54071,-0.0455 -3.38379,-0.0684 l 0,14.21875 0,0.27343 c -2e-5,3.73699 1.77733,5.63965 5.33203,5.70801 0.56964,0.0228 1.01398,0.0342 1.33301,0.0342 l -0.0342,2.93945 c -1.80015,-0.0684 -3.65725,-0.11393 -5.57129,-0.13672 -1.89129,-0.0456 -3.85092,-0.0684 -5.8789,-0.0684 -2.98504,0 -5.26368,0.0228 -6.83594,0.0684 -1.54949,0.0228 -2.99642,0.0684 -4.34082,0.13672 l -0.0342,-2.93945 c 1.86848,-0.0456 3.11034,-0.10254 3.72558,-0.1709 0.63802,-0.0911 1.04817,-0.21647 1.23047,-0.37597 0.41015,-0.3418 0.68359,-1.49251 0.82032,-3.45215 0.15949,-1.95963 0.23925,-6.06119 0.23925,-12.30469 l 0,-15.34668 c 0,-0.79749 0.0114,-1.77731 0.0342,-2.93945 0.0228,-1.16207 0.0342,-1.92542 0.0342,-2.29004 -10e-6,-2.36975 -0.31902,-3.85087 -0.95703,-4.44336 -0.63803,-0.61519 -2.26726,-0.95699 -4.88769,-1.02539 l -0.0342,-2.73438 c 0.0456,5e-5 0.11393,5e-5 0.20507,0 5.94726,0.18234 10.39062,0.27349 13.33008,0.27344 2.80272,5e-5 7.36001,-0.0683 13.67188,-0.20508 2.96221,-0.0683 5.20667,-0.11388 6.7334,-0.13672"
         id="path3838"
         style="font-size:70px;font-weight:bold;fill:#ffffff;font-family:Zapf Calligraphic 801 SWA;-inkscape-font-specification:Zapf Calligraphic 801 SWA Bold" />
    </g>
  </g>
</svg>
