<?xml version="1.0" encoding="UTF-8" standalone="no"?>
<!-- Created with Inkscape (http://www.inkscape.org/) -->

<svg
   xmlns:dc="http://purl.org/dc/elements/1.1/"
   xmlns:cc="http://creativecommons.org/ns#"
   xmlns:rdf="http://www.w3.org/1999/02/22-rdf-syntax-ns#"
   xmlns:svg="http://www.w3.org/2000/svg"
   xmlns="http://www.w3.org/2000/svg"
   version="1.1"
   width="141.73169"
   height="55.38525"
   id="svg8673">
  <defs
     id="defs8675">
    <clipPath
       id="clipPath4959">
      <path
         d="m 0,0 841.89,0 0,595.276 L 0,595.276 0,0 z"
         id="path4961" />
    </clipPath>
    <clipPath
       id="clipPath4923">
      <path
         d="m 0,0 841.89,0 0,595.276 L 0,595.276 0,0 z"
         id="path4925" />
    </clipPath>
    <clipPath
       id="clipPath4907">
      <path
         d="m 0,0 841.89,0 0,595.276 L 0,595.276 0,0 z"
         id="path4909" />
    </clipPath>
    <clipPath
       id="clipPath4751">
      <path
         d="m 0,0 841.89,0 0,595.276 L 0,595.276 0,0 z"
         id="path4753" />
    </clipPath>
    <clipPath
       id="clipPath4907-2">
      <path
         d="m 0,0 841.89,0 0,595.276 L 0,595.276 0,0 z"
         id="path4909-5" />
    </clipPath>
    <clipPath
       id="clipPath4751-8">
      <path
         d="m 0,0 841.89,0 0,595.276 L 0,595.276 0,0 z"
         id="path4753-3" />
    </clipPath>
    <clipPath
       id="clipPath4923-2">
      <path
         d="m 0,0 841.89,0 0,595.276 L 0,595.276 0,0 z"
         id="path4925-0" />
    </clipPath>
    <clipPath
       id="clipPath4959-1">
      <path
         d="m 0,0 841.89,0 0,595.276 L 0,595.276 0,0 z"
         id="path4961-1" />
    </clipPath>
    <clipPath
       id="clipPath4987">
      <path
         d="m 0,0 841.89,0 0,595.276 L 0,595.276 0,0 z"
         id="path4989" />
    </clipPath>
  </defs>
  <metadata
     id="metadata8678">
    <rdf:RDF>
      <cc:Work
         rdf:about="">
        <dc:format>image/svg+xml</dc:format>
        <dc:type
           rdf:resource="http://purl.org/dc/dcmitype/StillImage" />
        <dc:title></dc:title>
      </cc:Work>
    </rdf:RDF>
  </metadata>
  <g
     transform="translate(40.775045,-459.74175)"
     id="layer1">
    <g
       transform="matrix(1.25,0,0,-1.25,-683.66442,757.37925)"
       id="g4747">
      <g
         clip-path="url(#clipPath4751-8)"
         id="g4749">
        <g
           transform="translate(556.2496,195.7076)"
           id="g4755">
          <path
             d="m 0,0 -0.356,-0.857 0.715,0 L 0,0 z m -1.172,-1.72 c 0.083,0.01 0.159,0.025 0.214,0.096 0.043,0.054 0.121,0.212 0.234,0.478 l 0.759,1.785 0.118,0 0.905,-2.059 c 0.06,-0.137 0.105,-0.213 0.133,-0.24 0.047,-0.042 0.133,-0.052 0.193,-0.061 l 0,-0.133 -0.988,0 0,0.135 c 0.071,0.006 0.159,0.006 0.225,0.034 0.011,0.005 0.024,0.02 0.024,0.067 0,0.054 -0.042,0.168 -0.064,0.218 l -0.139,0.323 -0.891,0 c -0.089,-0.22 -0.141,-0.356 -0.159,-0.407 -0.017,-0.05 -0.024,-0.086 -0.024,-0.111 0,-0.048 0.018,-0.075 0.052,-0.092 0.045,-0.022 0.142,-0.027 0.194,-0.032 l 0,-0.135 -0.786,0 0,0.134 z"
             id="path4757"
             style="fill:#231f20;fill-opacity:1;fill-rule:nonzero;stroke:none" />
        </g>
        <g
           transform="translate(560.199,196.1668)"
           id="g4759">
          <path
             d="M 0,0 C -0.068,-0.005 -0.227,-0.014 -0.281,-0.063 -0.308,-0.087 -0.33,-0.155 -0.33,-0.289 l 0,-1.149 c 0,-0.185 0.025,-0.325 0.073,-0.424 0.088,-0.176 0.255,-0.267 0.513,-0.267 0.539,0 0.639,0.315 0.639,0.767 l 0,0.935 c 0,0.198 -0.026,0.305 -0.061,0.342 -0.061,0.065 -0.196,0.078 -0.276,0.086 l 0,0.136 0.905,0 0,-0.136 C 1.384,-0.007 1.237,-0.022 1.181,-0.091 1.149,-0.13 1.126,-0.237 1.126,-0.427 l 0,-0.935 c 0,-0.252 -0.039,-0.452 -0.119,-0.599 -0.148,-0.272 -0.431,-0.404 -0.832,-0.404 -0.396,0 -0.677,0.13 -0.825,0.398 -0.08,0.143 -0.118,0.33 -0.118,0.555 l 0,1.123 c 0,0.133 -0.023,0.2 -0.05,0.224 -0.053,0.05 -0.208,0.06 -0.276,0.065 l 0,0.137 L 0,0.137 0,0 z"
             id="path4761"
             style="fill:#231f20;fill-opacity:1;fill-rule:nonzero;stroke:none" />
        </g>
        <g
           transform="translate(563.5989,194.2513)"
           id="g4763">
          <path
             d="m 0,0 c 0.136,-0.159 0.303,-0.238 0.504,-0.238 0.106,0 0.196,0.034 0.272,0.1 0.075,0.064 0.114,0.154 0.114,0.275 0,0.108 -0.038,0.2 -0.116,0.28 C 0.649,0.542 0.268,0.762 0.127,0.85 0.032,0.909 -0.045,0.971 -0.102,1.034 c -0.108,0.118 -0.162,0.253 -0.162,0.4 0,0.406 0.298,0.671 0.696,0.671 0.088,0 0.19,-0.023 0.307,-0.065 0.12,-0.041 0.178,-0.057 0.186,-0.057 0.041,0 0.057,0.01 0.062,0.018 0.025,0.029 0.032,0.067 0.04,0.104 l 0.136,0 0.087,-0.84 -0.156,0 C 1.05,1.443 0.979,1.642 0.82,1.755 0.695,1.843 0.575,1.885 0.458,1.885 0.284,1.885 0.129,1.781 0.129,1.594 0.129,1.509 0.154,1.439 0.204,1.381 0.256,1.318 0.34,1.251 0.457,1.179 L 0.772,0.985 C 0.971,0.862 1.115,0.748 1.199,0.641 1.284,0.53 1.327,0.401 1.327,0.253 1.327,0.054 1.251,-0.113 1.1,-0.247 0.951,-0.379 0.76,-0.445 0.532,-0.445 c -0.116,0 -0.236,0.022 -0.361,0.065 -0.125,0.044 -0.186,0.061 -0.196,0.061 -0.034,0 -0.047,-0.01 -0.053,-0.02 -0.019,-0.033 -0.023,-0.065 -0.029,-0.101 l -0.142,0 -0.118,0.838 0.151,0 C -0.163,0.257 -0.099,0.116 0,0"
             id="path4765"
             style="fill:#231f20;fill-opacity:1;fill-rule:nonzero;stroke:none" />
        </g>
        <g
           transform="translate(568.697,196.3043)"
           id="g4767">
          <path
             d="m 0,0 0.022,-0.684 -0.154,0 c -0.022,0.1 -0.067,0.305 -0.156,0.384 -0.052,0.048 -0.176,0.078 -0.384,0.078 l -0.164,0 0,-1.802 c 0,-0.142 0.023,-0.21 0.05,-0.23 0.06,-0.046 0.231,-0.056 0.299,-0.061 l 0,-0.136 -1.121,0 0,0.136 c 0.299,0.023 0.34,0.024 0.34,0.332 l 0,1.761 -0.163,0 c -0.198,0 -0.322,-0.03 -0.383,-0.078 -0.095,-0.077 -0.135,-0.281 -0.155,-0.384 l -0.156,0 L -2.101,0 0,0 z"
             id="path4769"
             style="fill:#231f20;fill-opacity:1;fill-rule:nonzero;stroke:none" />
        </g>
        <g
           transform="translate(571.7109,195.6437)"
           id="g4771">
          <path
             d="M 0,0 C 0,0.195 -0.079,0.323 -0.234,0.392 -0.32,0.43 -0.435,0.45 -0.582,0.45 -0.688,0.45 -0.738,0.442 -0.75,0.434 -0.755,0.43 -0.767,0.416 -0.767,0.363 l 0,-0.849 c 0.238,0.011 0.404,0.038 0.504,0.078 C -0.087,-0.337 0,-0.203 0,0 m -1.248,-1.584 c 0.024,0.03 0.043,0.11 0.043,0.262 l 0,1.556 c 0,0.128 -0.022,0.196 -0.048,0.222 -0.048,0.051 -0.197,0.062 -0.261,0.067 l 0,0.138 1.031,0 c 0.21,0 0.388,-0.027 0.531,-0.082 0.275,-0.104 0.417,-0.301 0.417,-0.583 0,-0.188 -0.062,-0.336 -0.189,-0.44 -0.109,-0.092 -0.253,-0.154 -0.429,-0.188 l 0.701,-0.861 c 0.099,-0.121 0.168,-0.147 0.32,-0.162 l 0,-0.135 -0.634,0 -0.855,1.104 -0.146,-0.006 0,-0.672 c 0,-0.135 0.021,-0.203 0.047,-0.227 0.054,-0.047 0.211,-0.058 0.278,-0.064 l 0,-0.135 -1.072,0 0,0.135 c 0.061,0.005 0.223,0.018 0.266,0.071"
             id="path4773"
             style="fill:#231f20;fill-opacity:1;fill-rule:nonzero;stroke:none" />
        </g>
        <g
           transform="translate(575.0714,195.7076)"
           id="g4775">
          <path
             d="m 0,0 -0.356,-0.857 0.716,0 L 0,0 z m -1.172,-1.72 c 0.083,0.01 0.16,0.025 0.214,0.096 0.043,0.054 0.121,0.212 0.234,0.478 l 0.759,1.785 0.118,0 0.905,-2.059 c 0.061,-0.137 0.105,-0.213 0.133,-0.24 0.048,-0.042 0.133,-0.052 0.193,-0.061 l 0,-0.133 -0.988,0 0,0.135 c 0.071,0.006 0.159,0.006 0.225,0.034 0.012,0.005 0.024,0.02 0.024,0.067 0,0.054 -0.042,0.168 -0.063,0.218 l -0.139,0.323 -0.891,0 c -0.089,-0.22 -0.142,-0.356 -0.16,-0.407 -0.017,-0.05 -0.024,-0.086 -0.024,-0.111 0,-0.048 0.018,-0.075 0.053,-0.092 0.044,-0.022 0.142,-0.027 0.193,-0.032 l 0,-0.135 -0.786,0 0,0.134 z"
             id="path4777"
             style="fill:#231f20;fill-opacity:1;fill-rule:nonzero;stroke:none" />
        </g>
        <g
           transform="translate(578.1882,194.0538)"
           id="g4779">
          <path
             d="m 0,0 c 0.026,0.022 0.047,0.088 0.047,0.226 l 0,1.598 c 0,0.129 -0.021,0.197 -0.048,0.223 -0.049,0.052 -0.203,0.061 -0.268,0.066 l 0,0.137 1.089,0 0,-0.138 C 0.748,2.108 0.601,2.102 0.54,2.054 0.51,2.029 0.487,1.968 0.487,1.848 l 0,-1.726 C 0.487,0.086 0.493,0.062 0.501,0.046 0.506,0.039 0.52,0.028 0.562,0.023 L 0.645,0.016 0.812,0.014 c 0.32,0 0.527,0.027 0.631,0.076 C 1.59,0.158 1.7,0.369 1.762,0.496 l 0.163,0 -0.196,-0.696 -1.998,0 0,0.135 C -0.205,-0.059 -0.051,-0.044 0,0"
             id="path4781"
             style="fill:#231f20;fill-opacity:1;fill-rule:nonzero;stroke:none" />
        </g>
        <g
           transform="translate(581.8673,194.0499)"
           id="g4783">
          <path
             d="m 0,0 c 0.027,0.021 0.051,0.089 0.051,0.23 l 0,1.598 c 0,0.133 -0.024,0.202 -0.053,0.227 -0.058,0.051 -0.225,0.058 -0.297,0.061 l 0,0.138 1.137,0 0,-0.138 C 0.768,2.113 0.599,2.106 0.542,2.055 0.513,2.03 0.489,1.961 0.489,1.828 l 0,-1.598 C 0.489,0.089 0.513,0.021 0.54,0 0.599,-0.046 0.77,-0.056 0.838,-0.061 l 0,-0.135 -1.137,0 0,0.135 C -0.229,-0.056 -0.059,-0.046 0,0"
             id="path4785"
             style="fill:#231f20;fill-opacity:1;fill-rule:nonzero;stroke:none" />
        </g>
        <g
           transform="translate(585.3696,195.7076)"
           id="g4787">
          <path
             d="m 0,0 -0.356,-0.857 0.716,0 L 0,0 z m -1.173,-1.72 c 0.084,0.01 0.161,0.025 0.216,0.096 0.042,0.054 0.12,0.212 0.233,0.478 l 0.759,1.785 0.119,0 0.904,-2.059 c 0.06,-0.137 0.104,-0.213 0.133,-0.24 0.048,-0.042 0.133,-0.052 0.193,-0.061 l 0,-0.133 -0.988,0 0,0.135 c 0.071,0.006 0.16,0.006 0.226,0.034 0.011,0.005 0.023,0.02 0.023,0.067 0,0.054 -0.042,0.168 -0.063,0.218 l -0.14,0.323 -0.891,0 c -0.088,-0.22 -0.141,-0.356 -0.158,-0.407 -0.017,-0.05 -0.024,-0.086 -0.024,-0.111 0,-0.048 0.017,-0.075 0.052,-0.092 0.045,-0.022 0.141,-0.027 0.192,-0.032 l 0,-0.135 -0.786,0 0,0.134 z"
             id="path4789"
             style="fill:#231f20;fill-opacity:1;fill-rule:nonzero;stroke:none" />
        </g>
        <g
           transform="translate(553.2225,205.3814)"
           id="g4791">
          <path
             d="m 0,0 0,-1.765 0.375,0 c 0.543,0 0.975,0.431 0.975,0.937 0,0.507 -0.432,0.901 -0.975,0.901 C 0.375,0.073 0.199,0.093 0,0 M 2.119,-0.828 C 2.124,-1.334 1.706,-1.775 1.106,-1.953 L 2.41,-3.66 c 0.131,-0.15 0.253,-0.328 0.431,-0.328 l 0.028,0 0,-0.122 -1.012,0 -1.566,2.063 -0.291,0 0,-1.472 c 0,-0.3 0.121,-0.469 0.413,-0.469 l 0.028,0 0,-0.122 -1.613,0 0,0.122 0.046,0 c 0.282,0 0.404,0.169 0.404,0.469 l 0,3.292 c 0,0.29 -0.122,0.468 -0.404,0.468 l -0.046,0 0,0.122 1.172,0 c 1.725,0.094 2.112,-0.48 2.119,-1.191"
             id="path4793"
             style="fill:#231f20;fill-opacity:1;fill-rule:nonzero;stroke:none" />
        </g>
        <g
           transform="translate(517.9115,201.2898)"
           id="g4795">
          <path
             d="m 0,0 0,0.161 -0.253,0 c -0.272,0 -0.497,0.252 -0.497,0.533 l 0,4.501 1.041,0 c 0.432,0 0.694,-0.318 0.722,-0.947 l 0.141,0 -0.057,1.351 c 0,0.019 -0.028,0.047 -0.037,0.047 l -4.567,0 c 0,0 -0.038,-0.028 -0.038,-0.047 L -3.6,4.248 l 0.149,0 c 0.029,0.629 0.291,0.947 0.722,0.947 l 1.042,0 0,-4.501 c 0,-0.281 -0.226,-0.533 -0.507,-0.533 l -0.263,0 L -2.457,0 0,0 z"
             id="path4797"
             style="fill:#231f20;fill-opacity:1;fill-rule:nonzero;stroke:none" />
        </g>
        <g
           transform="translate(535.1142,206.3824)"
           id="g4799">
          <path
             d="m 0,0 c 0,0.272 -0.159,0.394 -0.375,0.394 l -0.215,0 0,0.169 1.622,0 0,-0.169 -0.188,0 C 0.601,0.394 0.46,0.272 0.46,0 l 0,-3.282 c 0,-1.06 -0.816,-1.876 -2.157,-1.876 -1.341,0 -2.223,0.835 -2.223,1.97 l 0,3.057 c 0,0.272 -0.215,0.525 -0.506,0.525 l -0.066,0 0,0.169 2.082,0 0,-0.169 -0.075,0 c -0.281,0 -0.505,-0.253 -0.505,-0.525 l 0,-3.085 c 0,-0.825 0.514,-1.491 1.377,-1.491 0.825,0 1.613,0.497 1.613,1.425 L 0,0 z"
             id="path4801"
             style="fill:#231f20;fill-opacity:1;fill-rule:nonzero;stroke:none" />
        </g>
        <g
           transform="translate(522.5628,203.4195)"
           id="g4803">
          <path
             d="m 0,0 -1.913,0 0,-1.538 c 0,-0.3 0.123,-0.469 0.403,-0.469 l 0.028,0 0,-0.123 -1.603,0 0,0.123 0.028,0 c 0.31,0 0.403,0.169 0.403,0.469 l 0,3.292 c 0,0.29 -0.093,0.468 -0.403,0.468 l -0.028,0 0,0.122 1.603,0 0,-0.122 -0.028,0 c -0.28,0 -0.403,-0.178 -0.403,-0.468 l 0,-1.436 1.913,0 0,1.436 c 0,0.29 -0.122,0.468 -0.422,0.468 l -0.028,0 0,0.122 1.622,0 0,-0.122 -0.047,0 c -0.29,0 -0.403,-0.178 -0.403,-0.468 l 0,-3.292 c 0,-0.3 0.113,-0.469 0.403,-0.469 l 0.047,0 0,-0.123 -1.622,0 0,0.123 0.028,0 c 0.3,0 0.422,0.169 0.422,0.469 L 0,0 z"
             id="path4805"
             style="fill:#231f20;fill-opacity:1;fill-rule:nonzero;stroke:none" />
        </g>
        <g
           transform="translate(525.4326,203.4947)"
           id="g4807">
          <path
             d="m 0,0 0,-1.65 c 0,-0.132 0.103,-0.227 0.225,-0.227 l 1.125,0 c 0.619,0 0.9,0.367 1.05,0.873 l 0.132,0 -0.375,-1.201 -3.329,0 0,0.122 0.028,0 c 0.29,0 0.412,0.17 0.412,0.47 l 0,3.291 c 0,0.291 -0.122,0.468 -0.412,0.468 l -0.028,0 0,0.123 3.226,0 0.075,-1.022 -0.113,0 C 1.988,1.715 1.725,1.969 1.388,1.969 l -1.388,0 0,-1.632 1.294,0 c 0.215,0 0.319,0.234 0.319,0.422 l 0,0.029 0.131,0 0,-1.239 -0.131,0 0,0.028 C 1.613,-0.217 1.509,0 1.294,0 L 0,0 z"
             id="path4809"
             style="fill:#231f20;fill-opacity:1;fill-rule:nonzero;stroke:none" />
        </g>
        <g
           transform="translate(542.532,201.8818)"
           id="g4811">
          <path
             d="m 0,0 c 0,-0.3 0.122,-0.47 0.412,-0.47 l 0.02,0 0,-0.122 -1.595,0 0,0.122 0.019,0 c 0.309,0 0.431,0.17 0.431,0.47 l 0,3.291 c 0,0.291 -0.122,0.468 -0.431,0.468 l -0.019,0 0,0.123 1.595,0 0,-0.123 -0.02,0 C 0.122,3.759 0,3.582 0,3.291 L 0,0 z"
             id="path4813"
             style="fill:#231f20;fill-opacity:1;fill-rule:nonzero;stroke:none" />
        </g>
        <g
           transform="translate(545.7489,201.3186)"
           id="g4815">
          <path
             d="M 0,0 1.547,3.929 C 1.669,4.183 1.781,4.323 1.96,4.323 l 0,0.122 -1.032,0 0,-0.122 0.066,0 c 0.131,0 0.272,-0.132 0.215,-0.3 L 0.103,1.265 -1.107,4.023 c -0.065,0.168 0.084,0.3 0.197,0.3 l 0.15,0 0,0.122 -1.519,0 0,-0.122 c 0.178,0 0.3,-0.132 0.413,-0.375 L -0.16,0 C -0.122,-0.047 -0.038,-0.065 0,0"
             id="path4817"
             style="fill:#231f20;fill-opacity:1;fill-rule:nonzero;stroke:none" />
        </g>
        <g
           transform="translate(549.3778,203.4947)"
           id="g4819">
          <path
             d="m 0,0 0,-1.65 c 0,-0.132 0.103,-0.227 0.225,-0.227 l 1.125,0 c 0.61,0 0.891,0.367 1.05,0.873 l 0.131,0 -0.385,-1.201 -3.319,0 0,0.122 0.028,0 c 0.292,0 0.403,0.17 0.403,0.47 l 0,3.291 c 0,0.291 -0.111,0.468 -0.403,0.468 l -0.028,0 0,0.123 3.217,0 0.084,-1.022 -0.112,0 C 1.987,1.715 1.716,1.969 1.388,1.969 l -1.388,0 0,-1.632 1.285,0 c 0.225,0 0.327,0.234 0.327,0.422 l 0,0.029 0.132,0 0,-1.239 -0.132,0 0,0.028 C 1.612,-0.217 1.51,0 1.285,0 L 0,0 z"
             id="path4821"
             style="fill:#231f20;fill-opacity:1;fill-rule:nonzero;stroke:none" />
        </g>
        <g
           transform="translate(556.5604,202.8092)"
           id="g4823">
          <path
             d="m 0,0 -0.131,0 0,-1.519 0.131,0 c 0.057,0.198 0.226,0.291 0.384,0.198 0.544,-0.292 1.22,-0.338 1.689,0.028 0.45,0.328 0.646,0.974 0.366,1.482 C 2.176,0.686 1.472,1.07 0.928,1.351 0.3,1.706 0.281,2.307 0.76,2.617 1.341,2.955 2.204,2.364 2.204,1.51 l 0.112,0 0,1.445 -0.112,0 C 2.166,2.739 2.007,2.72 1.782,2.814 1.162,3.095 0.657,3.086 0.226,2.692 -0.262,2.242 -0.375,1.332 0.422,0.844 0.901,0.544 1.547,0.207 1.782,-0.112 1.997,-0.402 2.035,-0.75 1.623,-1.106 1.022,-1.631 0,-0.994 0,0"
             id="path4825"
             style="fill:#231f20;fill-opacity:1;fill-rule:nonzero;stroke:none" />
        </g>
        <g
           transform="translate(537.4586,205.7639)"
           id="g4827">
          <path
             d="m 0,0 -1.144,0 0,-0.123 c 0.188,0 0.309,-0.018 0.403,-0.131 0.104,-0.112 0.169,-0.197 0.3,-0.347 l 0,-3.413 c 0,-0.215 -0.196,-0.329 -0.394,-0.329 l -0.046,0 0,-0.131 1.247,0 0,0.131 -0.028,0 c -0.206,0 -0.413,0.114 -0.413,0.329 l 0,2.964 2.954,-3.424 0.094,0 0,4.014 c 0,0.226 0.206,0.337 0.403,0.337 l 0.028,0 0,0.123 -1.238,0 0,-0.123 0.038,0 c 0.197,0 0.394,-0.111 0.394,-0.337 l 0,-2.55 L 0,0 z"
             id="path4829"
             style="fill:#231f20;fill-opacity:1;fill-rule:nonzero;stroke:none" />
        </g>
        <g
           transform="translate(560.7335,201.8818)"
           id="g4831">
          <path
             d="m 0,0 c 0,-0.3 0.122,-0.47 0.412,-0.47 l 0.029,0 0,-0.122 -1.613,0 0,0.122 0.047,0 c 0.29,0 0.403,0.17 0.403,0.47 l 0,3.291 c 0,0.291 -0.113,0.468 -0.403,0.468 l -0.047,0 0,0.123 1.613,0 0,-0.123 -0.029,0 C 0.122,3.759 0,3.582 0,3.291 L 0,0 z"
             id="path4833"
             style="fill:#231f20;fill-opacity:1;fill-rule:nonzero;stroke:none" />
        </g>
        <g
           transform="translate(567.6072,203.1944)"
           id="g4835">
          <path
             d="M 0,0 -1.369,2.09 C -1.51,2.353 -1.661,2.447 -1.838,2.447 l 0,0.131 1.585,0 0,-0.131 -0.103,0 c -0.132,0 -0.254,-0.159 -0.169,-0.329 L 0.6,0.402 1.622,2.147 c 0.075,0.122 -0.019,0.3 -0.141,0.3 l -0.112,0 0,0.131 1.097,0 0,-0.131 C 2.269,2.447 2.091,2.316 1.96,2.109 l -1.219,-2.081 0,-1.35 c 0,-0.31 0.122,-0.46 0.422,-0.46 l 0.028,0 0,-0.123 -1.631,0 0,0.123 0.028,0 C -0.113,-1.782 0,-1.613 0,-1.304 L 0,0 z"
             id="path4837"
             style="fill:#231f20;fill-opacity:1;fill-rule:nonzero;stroke:none" />
        </g>
        <g
           transform="translate(563.9409,201.853)"
           id="g4839">
          <path
             d="m 0,0 c 0,-0.3 0.122,-0.441 0.412,-0.441 l 0.018,0 0,-0.122 -1.593,0 0,0.122 0.018,0 c 0.291,0 0.431,0.141 0.431,0.441 l 0,3.573 -0.899,0 c -0.338,0 -0.534,-0.235 -0.562,-0.722 l -0.104,0 0.037,1.031 c 0,0.01 0.02,0.029 0.029,0.029 l 3.694,0 C 1.49,3.911 1.51,3.892 1.51,3.882 l 0.046,-1.031 -0.112,0 C 1.415,3.338 1.237,3.573 0.89,3.573 L 0,3.573 0,0 z"
             id="path4841"
             style="fill:#231f20;fill-opacity:1;fill-rule:nonzero;stroke:none" />
        </g>
        <g
           transform="translate(578.9025,201.8628)"
           id="g4843">
          <path
             d="m 0,0 c 0,-0.3 0.122,-0.46 0.403,-0.46 l 0.047,0 0,-0.113 -1.613,0 0,0.113 0.028,0 c 0.3,0 0.412,0.178 0.412,0.469 l 0,3.282 c 0,0.3 -0.112,0.487 -0.412,0.487 l -0.028,0 0,0.122 3.422,0 0.076,-1.031 -0.104,0 C 2.203,3.328 1.932,3.591 1.604,3.591 l -1.604,0 0,-1.622 1.303,0 c 0.225,0 0.319,0.205 0.319,0.422 l 0,0.028 0.121,0 0,-1.238 -0.121,0 0,0.019 c 0,0.215 -0.094,0.431 -0.319,0.431 L 0,1.631 0,0 z"
             id="path4845"
             style="fill:#231f20;fill-opacity:1;fill-rule:nonzero;stroke:none" />
        </g>
        <g
           transform="translate(595.2371,203.4939)"
           id="g4847">
          <path
             d="m 0,0 0,-1.65 c 0,-0.142 0.113,-0.235 0.244,-0.235 l 1.116,0 c 0.61,0 0.891,0.375 1.051,0.882 l 0.121,0 -0.366,-1.201 -3.329,0 0,0.113 0.029,0 c 0.299,0 0.412,0.178 0.412,0.468 l 0,3.292 c 0,0.291 -0.113,0.478 -0.412,0.478 l -0.029,0 0,0.122 3.217,0 0.075,-1.032 -0.103,0 C 2.007,1.716 1.726,1.96 1.388,1.96 L 0,1.96 0,0.338 l 1.304,0 c 0.205,0 0.328,0.205 0.328,0.421 l 0,0.029 0.112,0 0,-1.238 -0.112,0 0,0.018 C 1.632,-0.216 1.509,0 1.304,0 L 0,0 z"
             id="path4849"
             style="fill:#231f20;fill-opacity:1;fill-rule:nonzero;stroke:none" />
        </g>
        <g
           transform="translate(592.8459,205.3319)"
           id="g4851">
          <path
             d="m 0,0 c 0,0.197 -0.131,0.309 -0.309,0.309 l -0.123,0 0,0.122 1.22,0 0,-0.122 -0.141,0 C 0.47,0.309 0.356,0.197 0.356,0 l 0,-2.616 c 0,-0.845 -0.646,-1.473 -1.706,-1.473 -1.07,0 -1.773,0.656 -1.773,1.557 l 0,2.41 c 0,0.215 -0.168,0.431 -0.393,0.431 l -0.01,0 0,0.122 1.566,0 0,-0.122 -0.028,0 c -0.206,0 -0.384,-0.216 -0.384,-0.431 l 0,-2.438 c 0,-0.647 0.403,-1.191 1.078,-1.191 0.666,0 1.294,0.403 1.294,1.135 L 0,0 z"
             id="path4853"
             style="fill:#231f20;fill-opacity:1;fill-rule:nonzero;stroke:none" />
        </g>
        <g
           transform="translate(599.1763,203.4939)"
           id="g4855">
          <path
             d="m 0,0 0,-1.65 c 0,-0.142 0.103,-0.235 0.225,-0.235 l 1.125,0 c 0.619,0 0.891,0.375 1.05,0.882 l 0.131,0 -0.385,-1.201 -3.309,0 0,0.113 0.018,0 c 0.291,0 0.414,0.178 0.414,0.468 l 0,3.292 c 0,0.291 -0.123,0.478 -0.414,0.478 l -0.018,0 0,0.122 3.207,0 0.074,-1.032 -0.102,0 C 1.988,1.716 1.716,1.96 1.387,1.96 L 0,1.96 0,0.338 l 1.285,0 c 0.224,0 0.346,0.205 0.346,0.421 l 0,0.029 0.113,0 0,-1.238 -0.113,0 0,0.018 C 1.631,-0.216 1.509,0 1.285,0 L 0,0 z"
             id="path4857"
             style="fill:#231f20;fill-opacity:1;fill-rule:nonzero;stroke:none" />
        </g>
        <g
           transform="translate(611.1879,201.8908)"
           id="g4859">
          <path
             d="m 0,0 c 0,-0.141 0.113,-0.282 0.235,-0.282 l 1.041,0 c 0.609,0 0.89,0.385 1.05,0.9 l 0.131,0 -0.365,-1.219 -3.255,0 0,0.122 0.038,0 c 0.281,0 0.403,0.179 0.403,0.479 l 0,3.263 c 0,0.3 -0.122,0.487 -0.403,0.487 l -0.038,0 0,0.122 1.613,0 0,-0.122 -0.028,0 C 0.113,3.75 0,3.563 0,3.263 L 0,0 z"
             id="path4861"
             style="fill:#231f20;fill-opacity:1;fill-rule:nonzero;stroke:none" />
        </g>
        <g
           transform="translate(606.8275,202.7999)"
           id="g4863">
          <path
             d="m 0,0 -0.131,0 0,-1.51 0.131,0 c 0.047,0.207 0.216,0.291 0.385,0.197 0.544,-0.281 1.219,-0.347 1.697,0.019 0.45,0.338 0.646,0.975 0.366,1.482 C 2.185,0.694 1.463,1.07 0.938,1.36 0.3,1.716 0.272,2.325 0.769,2.617 1.332,2.963 2.204,2.382 2.204,1.51 l 0.131,0 0,1.463 -0.131,0 C 2.157,2.748 2.006,2.72 1.792,2.813 1.163,3.114 0.648,3.085 0.216,2.701 -0.263,2.251 -0.366,1.331 0.431,0.843 0.91,0.544 1.557,0.216 1.792,-0.112 1.988,-0.384 2.044,-0.741 1.632,-1.107 1.032,-1.623 0,-0.984 0,0"
             id="path4865"
             style="fill:#231f20;fill-opacity:1;fill-rule:nonzero;stroke:none" />
        </g>
        <g
           transform="translate(602.8325,205.7631)"
           id="g4867">
          <path
             d="m 0,0 -1.144,0 0,-0.122 c 0.188,0 0.32,-0.028 0.394,-0.131 0.113,-0.123 0.188,-0.197 0.32,-0.356 l 0,-3.405 c 0,-0.224 -0.207,-0.338 -0.404,-0.338 l -0.037,0 0,-0.121 1.237,0 0,0.121 -0.028,0 c -0.206,0 -0.403,0.114 -0.403,0.338 l 0,2.964 2.944,-3.423 0.094,0 0,4.013 c 0,0.217 0.197,0.338 0.394,0.338 l 0.038,0 0,0.122 -1.229,0 0,-0.122 0.029,0 c 0.196,0 0.412,-0.121 0.412,-0.338 l 0,-2.559 L 0,0 z"
             id="path4869"
             style="fill:#231f20;fill-opacity:1;fill-rule:nonzero;stroke:none" />
        </g>
        <g
           transform="translate(619.4307,205.7631)"
           id="g4871">
          <path
             d="m 0,0 -1.144,0 0,-0.122 c 0.178,0 0.309,-0.028 0.385,-0.131 0.112,-0.123 0.187,-0.197 0.318,-0.356 l 0,-3.405 c 0,-0.224 -0.206,-0.338 -0.403,-0.338 l -0.028,0 0,-0.121 1.228,0 0,0.121 -0.019,0 c -0.215,0 -0.412,0.114 -0.412,0.338 l 0,2.964 2.944,-3.423 0.094,0 0,4.013 c 0,0.217 0.197,0.338 0.394,0.338 l 0.047,0 0,0.122 -1.21,0 0,-0.122 c 0.198,0 0.413,-0.121 0.413,-0.338 l 0,-2.559 L 0,0 z"
             id="path4873"
             style="fill:#231f20;fill-opacity:1;fill-rule:nonzero;stroke:none" />
        </g>
        <g
           transform="translate(617.6936,201.8125)"
           id="g4875">
          <path
             d="m 0,0 c 0.103,-0.243 0.235,-0.384 0.413,-0.384 l 0.046,0 0,-0.122 -1.556,0 0,0.122 0.123,0 c 0.14,0 0.28,0.141 0.214,0.31 l -0.431,0.993 -1.584,0 -0.423,-0.993 c -0.065,-0.169 0.094,-0.31 0.254,-0.31 l 0.056,0 0,-0.122 -1.191,0 0,0.122 0.084,0 c 0.178,0 0.338,0.141 0.46,0.404 l 1.651,3.994 c 0.098,0.112 0.152,-0.015 0.152,-0.015 L 0,0 z m -2.654,1.248 1.313,0 -0.654,1.513 -0.659,-1.513 z"
             id="path4877"
             style="fill:#231f20;fill-opacity:1;fill-rule:nonzero;stroke:none" />
        </g>
        <g
           transform="translate(627.6946,203.522)"
           id="g4879">
          <path
             d="m 0,0 c 0,-1.257 -1.003,-2.242 -2.306,-2.242 l -2.073,0 0,0.123 0.037,0 c 0.291,0 0.404,0.178 0.404,0.478 l 0,3.263 c 0,0.301 -0.113,0.487 -0.404,0.487 l -0.037,0 0,0.123 1.7,0 C 0.18,2.321 0,0 0,0 m -3.123,1.913 0,-3.807 c 0.178,-0.047 0.272,-0.057 0.441,-0.057 1.35,0 1.997,0.797 1.997,1.96 0.01,0.049 0.08,2.03 -2.009,1.979 0,0 -0.267,0.04 -0.429,-0.075"
             id="path4881"
             style="fill:#231f20;fill-opacity:1;fill-rule:nonzero;stroke:none" />
        </g>
        <g
           transform="translate(574.6169,207.0726)"
           id="g4883">
          <path
             d="m 0,0 c 1.643,-0.023 2.682,-1.285 2.682,-2.878 0,-1.575 -1.05,-2.87 -2.682,-2.87 -1.632,0 -2.682,1.295 -2.682,2.87 C -2.541,0.129 0,0 0,0 M -1.679,-2.878 C -1.675,-4.384 -0.983,-5.427 0,-5.41 c 0.918,0 1.678,0.923 1.678,2.574 C 1.643,-0.668 0.529,-0.375 0,-0.347 -1.241,-0.41 -1.683,-1.653 -1.679,-2.878"
             id="path4885"
             style="fill:#231f20;fill-opacity:1;fill-rule:nonzero;stroke:none" />
        </g>
        <g
           transform="translate(586.2682,206.9799)"
           id="g4887">
          <path
             d="m 0,0 c 0,0 2.67,-0.005 2.714,-2.919 0,-1.294 -0.684,-2.342 -1.81,-2.708 0.244,-0.553 0.91,-1.181 1.829,-1.237 l 0,-0.15 c -1.275,0 -2.401,0.413 -3.254,1.294 -1.331,0.253 -2.156,1.434 -2.156,2.841 0,1.587 1.04,2.867 2.677,2.879 m 0,-0.347 c 0,0 -1.635,0.077 -1.656,-2.532 0,-1.66 0.741,-2.532 1.679,-2.532 0.909,0 1.669,0.872 1.669,2.532 0,1.66 -0.783,2.532 -1.692,2.532"
             id="path4889"
             style="fill:#231f20;fill-opacity:1;fill-rule:nonzero;stroke:none" />
        </g>
        <g
           transform="translate(580.8396,217.4637)"
           id="g4891">
          <path
             d="m 0,0 c 0.005,-0.158 0.009,-0.321 0.012,-0.436 l 0.357,0.27 c 0.136,0.1 0.21,0.236 0.21,0.383 0,0.181 -0.099,0.141 -0.214,0.056 L 0,0 z m -0.202,0.074 c 0,0 0.123,0.109 0.206,0.165 L 0.387,0.52 c 0.273,0.203 0.41,0.166 0.41,-0.074 0,-0.269 -0.163,-0.465 -0.203,-0.512 0.074,0.04 0.184,0.059 0.184,-0.162 0,-0.166 0.019,-0.302 0.066,-0.325 L 0.612,-0.73 c -0.033,0.041 -0.033,0.118 -0.033,0.185 0,0.261 -0.048,0.339 -0.247,0.191 l -0.317,-0.24 0,-0.585 -0.217,-0.162 0,1.415 z"
             id="path4893"
             style="fill:#231f20;fill-opacity:1;fill-rule:nonzero;stroke:none" />
        </g>
        <g
           transform="translate(578.355,215.3409)"
           id="g4895">
          <path
             d="m 0,0 0.011,-0.447 0.391,0.214 c 0.141,0.078 0.225,0.207 0.225,0.355 0,0.143 -0.084,0.179 -0.225,0.102 L 0,0 z m -0.015,0.587 0.01,-0.402 0.374,0.209 c 0.111,0.059 0.199,0.177 0.199,0.309 0,0.152 -0.073,0.162 -0.199,0.096 L -0.015,0.587 z m 0.032,-1.253 -0.267,-0.138 0,1.471 c 0,0 0.102,0.065 0.218,0.122 L 0.402,1.028 C 0.645,1.157 0.8,1.127 0.8,0.88 0.8,0.733 0.731,0.589 0.609,0.464 0.775,0.508 0.863,0.416 0.863,0.22 0.863,-0.012 0.716,-0.273 0.366,-0.465 L 0.017,-0.666 z"
             id="path4897"
             style="fill:#231f20;fill-opacity:1;fill-rule:nonzero;stroke:none" />
        </g>
      </g>
    </g>
    <g
       transform="matrix(1.25,0,0,-1.25,38.153452,488.88088)"
       id="g4899">
      <path
         d="M 0,0 -0.245,0.527 -0.439,-0.199 0,0 z M -0.5,-0.43 -0.617,-0.874 -0.89,-0.999 -0.4,0.715 -0.153,0.83 0.481,-0.38 0.23,-0.494 0.078,-0.167 -0.5,-0.43 z"
         id="path4901"
         style="fill:#231f20;fill-opacity:1;fill-rule:nonzero;stroke:none" />
    </g>
    <g
       transform="matrix(1.25,0,0,-1.25,-683.66442,757.37925)"
       id="g4903">
      <g
         clip-path="url(#clipPath4907-2)"
         id="g4905">
        <g
           transform="translate(570.4597,210.7325)"
           id="g4911">
          <path
             d="M 0,0 -0.239,0.657 -0.476,0.032 0,0 z m -0.552,-0.188 -0.148,-0.391 -0.284,0.023 0.601,1.46 0.295,-0.023 0.601,-1.541 -0.291,0.019 -0.14,0.406 c -0.178,0.011 -0.505,0.036 -0.634,0.047"
             id="path4913"
             style="fill:#231f20;fill-opacity:1;fill-rule:nonzero;stroke:none" />
        </g>
      </g>
    </g>
    <g
       transform="matrix(1.25,0,0,-1.25,24.411582,489.96463)"
       id="g4915">
      <path
         d="M 0,0 -0.21,0.701 -0.422,0.163 0,0 z m -0.494,-0.01 -0.133,-0.34 -0.265,0.096 0.557,1.264 0.246,-0.092 0.535,-1.603 -0.262,0.07 -0.114,0.381 -0.564,0.224 z"
         id="path4917"
         style="fill:#231f20;fill-opacity:1;fill-rule:nonzero;stroke:none" />
    </g>
    <g
       transform="matrix(1.25,0,0,-1.25,-683.66442,757.37925)"
       id="g4919">
      <g
         clip-path="url(#clipPath4923-2)"
         id="g4921">
        <g
           transform="translate(566.8631,212.3706)"
           id="g4927">
          <path
             d="m 0,0 0,-1.856 c 1.069,-0.464 2.466,-0.67 3.985,-0.67 1.522,0 2.915,0.206 3.985,0.67 l 0,1.854 C 6.716,-0.333 5.386,-0.517 3.985,-0.517 1.952,-0.524 0.005,-0.002 0.004,-0.002 L 0,0 z M -8.18,7.695 -8.186,5.303 c 2.34,-1.894 4.902,-3.756 8.135,-4.645 L 2.076,1.934 C -1.246,2.612 -5.866,4.901 -8.18,7.695 M -4.794,5.65 C -5.041,6.051 -5.289,6.427 -5.65,7.002 l 0,-0.8 C -5.367,5.989 -4.794,5.65 -4.794,5.65 M 11.578,4.856 z m 1.169,0.729 c 0.513,0.338 0.909,0.617 0.909,0.617 L 13.62,7.002 12.747,5.585 z M 16.16,7.703 C 13.845,4.905 9.219,2.612 5.898,1.934 L 8.021,0.658 c 0,0 2.563,0.796 4.504,1.997 2.765,1.711 3.635,2.736 3.635,2.736 l 0,2.312 z m -21.814,-5.087 0,-0.336 c 0,-0.456 -0.059,-0.438 0.339,-0.696 l 1.559,-1.007 0,0.92 c -0.666,0.349 -1.299,0.726 -1.898,1.119 m 19.905,0.422 0,-0.82 C 14.251,1.591 14.195,1.466 13.845,1.23 13.292,0.862 12.426,0.264 11.099,-0.517 l 0,1.7 C 10.309,0.802 9.477,0.466 8.606,0.195 L 8.6,-2.294 C 7.42,-2.811 5.751,-3.153 3.985,-3.153 c -1.766,0 -3.441,0.342 -4.62,0.859 l 0,2.49 c -0.87,0.271 -1.702,0.606 -2.49,0.985 l 0,-1.698 c -1.331,0.781 -2.197,1.379 -2.75,1.747 -0.35,0.236 -0.406,0.361 -0.406,0.988 l 0,0.822 C -7.216,3.694 -8.06,4.377 -8.805,5.031 l 0,3.616 2.845,0 C -4.806,6.84 -3.959,5.546 -3.513,4.824 -1.932,3.921 -0.236,3.199 1.409,2.745 1.91,2.609 2.4,2.494 2.879,2.409 l 0,-2.249 c 0.361,-0.025 1.854,-0.025 2.216,0 l 0,2.249 c 0.475,0.085 0.969,0.2 1.467,0.336 1.643,0.454 3.376,1.176 4.961,2.079 0,0 1.273,2.043 2.407,3.823 L 16.776,8.644 16.779,5.031 C 16.033,4.376 15.186,3.692 14.251,3.038 M 13.289,1.584 c 0.398,0.258 0.335,0.24 0.335,0.696 l 0,0.333 C 13.024,2.222 12.391,1.845 11.726,1.496 l 0,-0.919 c 0,0 0.884,0.572 1.563,1.007"
             id="path4929"
             style="fill:#231f20;fill-opacity:1;fill-rule:nonzero;stroke:none" />
        </g>
        <g
           transform="translate(561.5767,237.474)"
           id="g4931">
          <path
             d="m 0,0 0,-11.15 c 0,-4.303 3.889,-8.695 9.316,-10.322 5.413,1.627 9.301,6.019 9.301,10.322 L 18.617,0 0,0 z m 9.316,-22.107 c -5.427,1.448 -9.952,6.107 -9.952,10.972 l 0,11.771 19.904,0 0,-11.771 c 0,-4.865 -4.525,-9.524 -9.952,-10.972"
             id="path4933"
             style="fill:#231f20;fill-opacity:1;fill-rule:nonzero;stroke:none" />
        </g>
      </g>
    </g>
    <g
       transform="matrix(1.25,0,0,-1.25,22.849582,490.08825)"
       id="g4935">
      <path
         d="m 0,0 0.254,-0.1 0,1.453 L 0,1.464 0,0 z"
         id="path4937"
         style="fill:#231f20;fill-opacity:1;fill-rule:nonzero;stroke:none" />
    </g>
    <g
       transform="matrix(1.25,0,0,-1.25,21.264452,487.80775)"
       id="g4939">
      <path
         d="m 0,0 0.391,-0.188 0,-1.249 0.251,-0.122 0,1.231 0.412,-0.169 0,0.22 L 0,0.225 0,0 z"
         id="path4941"
         style="fill:#231f20;fill-opacity:1;fill-rule:nonzero;stroke:none" />
    </g>
    <g
       transform="matrix(1.25,0,0,-1.25,19.684082,488.49813)"
       id="g4943">
      <path
         d="m 0,0 0.229,-0.137 0,1.084 0.007,-0.004 0.561,-1.408 0.231,-0.132 0,1.489 -0.206,0.118 0,-1.099 L 0.814,-0.085 0.254,1.323 0,1.471 0,0 z"
         id="path4945"
         style="fill:#231f20;fill-opacity:1;fill-rule:nonzero;stroke:none" />
    </g>
    <g
       transform="matrix(1.25,0,0,-1.25,18.260712,487.61888)"
       id="g4947">
      <path
         d="m 0,0 0.895,-0.575 0,0.225 -0.678,0.435 0,0.431 0.616,-0.394 0,0.21 -0.616,0.395 0,0.386 0.667,-0.427 0,0.221 L 0,1.471 0,0 z"
         id="path4949"
         style="fill:#231f20;fill-opacity:1;fill-rule:nonzero;stroke:none" />
    </g>
    <g
       transform="matrix(1.25,0,0,-1.25,17.711952,487.23138)"
       id="g4951">
      <path
         d="m 0,0 0.232,-0.151 0,1.445 L 0,1.445 0,0 z"
         id="path4953"
         style="fill:#231f20;fill-opacity:1;fill-rule:nonzero;stroke:none" />
    </g>
    <g
       transform="matrix(1.25,0,0,-1.25,-683.66442,757.37925)"
       id="g4955">
      <g
         clip-path="url(#clipPath4959-1)"
         id="g4957">
        <g
           transform="translate(560.8801,217.3164)"
           id="g4963">
          <path
             d="m 0,0 c -0.022,0.328 -0.218,0.634 -0.465,0.788 -0.324,0.204 -0.519,-0.025 -0.519,-0.449 0,-0.42 0.195,-0.888 0.519,-1.091 0.266,-0.162 0.45,-0.037 0.465,0.31 l -0.184,0.114 c -0.015,-0.206 -0.111,-0.321 -0.281,-0.214 -0.232,0.144 -0.331,0.483 -0.331,0.763 0,0.284 0.099,0.501 0.331,0.358 0.163,-0.096 0.244,-0.274 0.273,-0.461 L 0,0 z"
             id="path4965"
             style="fill:#231f20;fill-opacity:1;fill-rule:nonzero;stroke:none" />
        </g>
        <g
           transform="translate(558.9264,218.2636)"
           id="g4967">
          <path
             d="m 0,0 c 0.004,-0.365 0.196,-0.66 0.428,-0.822 0.202,-0.14 0.405,-0.151 0.405,0.177 0,0.155 -0.063,0.365 -0.199,0.513 C 0.583,-0.07 0.358,0.17 0.343,0.188 0.269,0.269 0.221,0.361 0.221,0.464 0.221,0.612 0.324,0.583 0.405,0.523 0.531,0.439 0.62,0.309 0.627,0.111 L 0.804,-0.011 C 0.804,0.295 0.627,0.583 0.413,0.73 0.229,0.859 0.041,0.848 0.041,0.553 0.041,0.405 0.092,0.213 0.265,0.026 0.405,-0.125 0.502,-0.221 0.571,-0.306 0.612,-0.358 0.656,-0.435 0.656,-0.545 0.656,-0.66 0.597,-0.73 0.439,-0.619 0.295,-0.52 0.181,-0.351 0.181,-0.125 L 0,0 z"
             id="path4969"
             style="fill:#231f20;fill-opacity:1;fill-rule:nonzero;stroke:none" />
        </g>
        <g
           transform="translate(572.4175,211.1858)"
           id="g4971">
          <path
             d="m 0,0 c -0.037,0.325 -0.317,0.494 -0.671,0.476 -0.464,-0.026 -0.737,-0.398 -0.73,-0.83 0.008,-0.427 0.291,-0.77 0.756,-0.74 0.38,0.021 0.638,0.283 0.656,0.645 l -0.265,-0.015 c -0.019,-0.218 -0.152,-0.402 -0.395,-0.417 -0.332,-0.022 -0.475,0.259 -0.479,0.542 -0.007,0.288 0.129,0.583 0.461,0.601 0.228,0.015 0.346,-0.107 0.394,-0.277 L 0,0 z"
             id="path4973"
             style="fill:#231f20;fill-opacity:1;fill-rule:nonzero;stroke:none" />
        </g>
      </g>
    </g>
    <g
       transform="matrix(1.25,0,0,-1.25,43.647582,486.08425)"
       id="g4975">
      <path
         d="m 0,0 0.782,0.697 0,0.218 -0.594,-0.532 0,0.417 0.538,0.479 0,0.203 -0.538,-0.483 0,0.372 0.583,0.524 0,0.21 L 0,1.415 0,0 z"
         id="path4977"
         style="fill:#231f20;fill-opacity:1;fill-rule:nonzero;stroke:none" />
    </g>
    <g
       transform="matrix(1.25,0,0,-1.25,35.543462,490.68325)"
       id="g4979">
      <path
         d="m 0,0 1.039,0.384 0,0.224 -0.774,-0.279 0,1.249 L 0,1.472 0,0 z"
         id="path4981"
         style="fill:#231f20;fill-opacity:1;fill-rule:nonzero;stroke:none" />
    </g>
    <g
       transform="matrix(1.25,0,0,-1.25,-683.66442,757.37925)"
       clip-path="url(#clipPath4987)"
       id="g4985">
      <g
         transform="translate(580.2575,216.6418)"
         id="g4991">
        <path
           d="m 0,0 c -0.048,0.236 -0.195,0.376 -0.446,0.143 -0.251,-0.228 -0.306,-0.556 -0.262,-0.792 0.045,-0.236 0.185,-0.364 0.443,-0.147 C 0.129,-0.359 0,0 0,0 m -0.91,-0.84 c -0.07,0.357 0.081,0.84 0.427,1.161 0.35,0.32 0.616,0.22 0.686,-0.133 0,0 0.148,-0.584 -0.431,-1.158 -0.345,-0.295 -0.616,-0.221 -0.682,0.13"
           id="path4993"
           style="fill:#231f20;fill-opacity:1;fill-rule:nonzero;stroke:none" />
      </g>
      <g
         transform="translate(576.6197,224.2505)"
         id="g4995">
        <path
           d="m 0,0 c 0.582,-0.574 1.031,-1.341 1.372,-2.362 l 0,12.554 C 0.558,7.752 -0.876,6.746 -3.257,6.377 c 0.37,2.381 1.361,3.815 3.8,4.643 l -12.554,0 c 2.454,-0.828 3.445,-2.262 3.815,-4.643 -2.381,0.369 -3.815,1.375 -4.643,3.815 l 0,-10.192 0.092,0 -0.092,0 0,-2.362 c 0.344,1.015 0.794,1.782 1.373,2.359 l 0.002,0 c 0.813,0.806 1.879,1.234 3.268,1.441 -0.082,-0.523 -0.193,-1 -0.345,-1.437 l 0,0 c -0.534,-1.538 -1.558,-2.558 -3.47,-3.192 l 12.554,0 C -1.358,-2.557 -2.379,-1.537 -2.912,0 l 0,0.001 C -3.064,0.437 -3.176,0.915 -3.257,1.438 -1.874,1.223 -0.81,0.798 -0.002,0 L 0,0 z m -5.491,5.236 c 0,0.37 0.34,0.739 0.902,0.739 0.591,0 0.591,-0.133 1.109,-0.133 l 0,-3.194 -1.035,0 c -0.444,0 -0.68,-0.015 -0.976,-0.192 l 0,2.78 z m -2.484,0.606 c 0.517,0 0.517,0.133 1.108,0.133 0.562,0 0.903,-0.369 0.903,-0.739 l 0,-2.78 C -6.275,2.633 -6.497,2.648 -6.94,2.648 l -1.035,0 0,3.194 z m -1.373,-3.356 -0.994,0 c -0.073,-0.133 -0.236,-0.222 -0.399,-0.222 -0.251,0 -0.458,0.192 -0.458,0.443 l 0,0.045 -0.074,0 c -0.089,0 -0.148,0.059 -0.148,0.148 0,0.073 0.059,0.133 0.148,0.133 l 0.074,0 0,0.044 c 0,0.237 0.207,0.444 0.458,0.444 0.178,0 0.34,-0.119 0.399,-0.281 L -9.34,3.253 -9.348,2.486 z m 0,2.085 -0.994,0 c -0.073,-0.133 -0.236,-0.222 -0.399,-0.222 -0.251,0 -0.458,0.192 -0.458,0.443 l 0,0.045 -0.074,0 c -0.089,0 -0.148,0.059 -0.148,0.147 0,0.075 0.059,0.134 0.148,0.134 l 0.074,0 0,0.044 c 0,0.237 0.207,0.444 0.458,0.444 0.178,0 0.34,-0.119 0.399,-0.281 L -9.34,5.338 -9.348,4.571 z m 6.607,-2.706 -1.922,0 c -0.458,0 -0.399,-0.252 -1.065,-0.252 -0.68,0 -0.621,0.252 -1.065,0.252 l -1.922,0 0,3.8 0.266,0.177 0,-3.667 1.494,0 c 0.858,0 0.621,-0.252 1.227,-0.252 0.592,0 0.37,0.252 1.228,0.252 l 1.493,0 0,3.667 0.266,-0.177 0,-3.8 z m 1.996,0.621 -1.38,0 0,0.767 1.306,10e-4 c 0.341,0 0.563,-0.059 0.563,-0.34 0,-0.325 -0.178,-0.428 -0.489,-0.428 m 0,2.085 -1.38,0 0,0.767 1.306,0.001 c 0.341,0 0.563,-0.059 0.563,-0.34 0,-0.325 -0.178,-0.428 -0.489,-0.428 m -10.002,0.731 c -0.088,0 -0.158,-0.078 -0.158,-0.174 l 0,-0.01 0.321,0 c 0,0.106 -0.074,0.184 -0.163,0.184 m -0.158,-2.576 c 0,-0.095 0.07,-0.173 0.158,-0.173 0.089,0 0.163,0.078 0.163,0.173 l 0,0.026 -0.321,0 0,-0.026 z m 0,2.085 c 0,-0.095 0.07,-0.173 0.158,-0.173 0.089,0 0.163,0.078 0.163,0.173 l 0,0.026 -0.321,0 0,-0.026 z m 0.158,-1.594 c -0.088,0 -0.158,-0.078 -0.158,-0.174 l 0,-0.01 0.321,0 c 0,0.106 -0.074,0.184 -0.163,0.184"
           id="path4997"
           style="fill:#231f20;fill-opacity:1;fill-rule:nonzero;stroke:none" />
      </g>
    </g>
  </g>
</svg>
