<?xml version="1.0" encoding="UTF-8" standalone="no"?>
<!-- Created with Inkscape (http://www.inkscape.org/) -->

<svg
   xmlns:dc="http://purl.org/dc/elements/1.1/"
   xmlns:cc="http://creativecommons.org/ns#"
   xmlns:rdf="http://www.w3.org/1999/02/22-rdf-syntax-ns#"
   xmlns:svg="http://www.w3.org/2000/svg"
   xmlns="http://www.w3.org/2000/svg"
   version="1.1"
   width="135.44862"
   height="38.69875"
   id="svg8742">
  <defs
     id="defs8744">
    <clipPath
       id="clipPath4656">
      <path
         d="m 605.157,435.973 108.359,0 0,30.959 -108.359,0 0,-30.959 z"
         id="path4658" />
    </clipPath>
  </defs>
  <metadata
     id="metadata8747">
    <rdf:RDF>
      <cc:Work
         rdf:about="">
        <dc:format>image/svg+xml</dc:format>
        <dc:type
           rdf:resource="http://purl.org/dc/dcmitype/StillImage" />
        <dc:title></dc:title>
      </cc:Work>
    </rdf:RDF>
  </metadata>
  <g
     transform="translate(-63.70426,-464.4414)"
     id="layer1"
     style="fill:#ffffff">
    <g
       transform="matrix(1.25,0,0,-1.25,-692.74199,1048.1064)"
       id="g4652"
       style="fill:#ffffff">
      <g
         clip-path="url(#clipPath4656)"
         id="g4654"
         style="fill:#ffffff">
        <g
           transform="translate(628.8686,361.3637)"
           id="g4660"
           style="fill:#ffffff">
          <path
             d="m 0,0 c 0,0 0.13,0.115 0.217,0.173 l 0.402,0.295 c 0.287,0.213 0.43,0.174 0.43,-0.077 0,-0.283 -0.171,-0.488 -0.213,-0.538 0.078,0.042 0.194,0.062 0.194,-0.17 0,-0.174 0.019,-0.318 0.069,-0.341 L 0.855,-0.844 C 0.82,-0.802 0.82,-0.72 0.82,-0.65 c 0,0.275 -0.05,0.356 -0.259,0.201 l -0.333,-0.252 0,-0.615 L 0,-1.486 0,0 z m 0.212,-0.077 c 0.006,-0.167 0.01,-0.338 0.013,-0.459 L 0.6,-0.252 c 0.143,0.105 0.22,0.248 0.22,0.403 0,0.19 -0.104,0.147 -0.224,0.058 L 0.212,-0.077 z"
             id="path4662"
             style="fill:#ffffff;fill-opacity:1;fill-rule:nonzero;stroke:none" />
        </g>
        <g
           transform="translate(626.4897,358.3578)"
           id="g4664"
           style="fill:#ffffff">
          <path
             d="m 0,0 -0.281,-0.145 0,1.544 c 0,0 0.108,0.069 0.23,0.129 L 0.405,1.779 C 0.66,1.914 0.823,1.883 0.823,1.624 0.823,1.469 0.749,1.318 0.622,1.187 0.796,1.233 0.889,1.136 0.889,0.931 0.889,0.687 0.734,0.412 0.366,0.211 L 0,0 z m -0.033,1.316 0.01,-0.422 0.393,0.219 c 0.116,0.061 0.209,0.186 0.209,0.325 0,0.159 -0.078,0.17 -0.209,0.1 L -0.033,1.316 z M -0.018,0.699 -0.006,0.23 0.405,0.455 c 0.147,0.082 0.236,0.216 0.236,0.372 0,0.151 -0.089,0.189 -0.236,0.108 L -0.018,0.699 z"
             id="path4666"
             style="fill:#ffffff;fill-opacity:1;fill-rule:nonzero;stroke:none" />
        </g>
        <g
           transform="translate(625.0007,358.0361)"
           id="g4668"
           style="fill:#ffffff">
          <path
             d="m 0,0 -0.123,-0.466 -0.286,-0.132 0.514,1.8 0.26,0.121 L 1.031,0.052 0.767,-0.067 0.607,0.276 0,0 z M 0.525,0.452 0.268,1.004 0.065,0.242 l 0.46,0.21 z"
             id="path4670"
             style="fill:#ffffff;fill-opacity:1;fill-rule:nonzero;stroke:none" />
        </g>
        <g
           transform="translate(617.6006,354.0204)"
           id="g4672"
           style="fill:#ffffff">
          <path
             d="M 0,0 -0.155,-0.41 -0.453,-0.387 0.178,1.146 0.487,1.122 1.119,-0.495 0.813,-0.476 0.666,-0.05 C 0.48,-0.039 0.136,-0.011 0,0 M 0.58,0.197 0.329,0.887 0.081,0.231 0.58,0.197 z"
             id="path4674"
             style="fill:#ffffff;fill-opacity:1;fill-rule:nonzero;stroke:none" />
        </g>
        <g
           transform="translate(613.4626,357.5666)"
           id="g4676"
           style="fill:#ffffff">
          <path
             d="M 0,0 -0.139,-0.357 -0.418,-0.256 0.167,1.072 0.426,0.975 0.987,-0.708 0.712,-0.636 0.592,-0.235 0,0 z M 0.519,0.01 0.298,0.747 0.076,0.182 0.519,0.01 z"
             id="path4678"
             style="fill:#ffffff;fill-opacity:1;fill-rule:nonzero;stroke:none" />
        </g>
        <g
           transform="translate(628.3589,357.601)"
           id="g4680"
           style="fill:#ffffff">
          <path
             d="m 0,0 c 0.418,0.271 0.352,0.252 0.352,0.731 l 0,0.35 C -0.278,0.67 -0.943,0.274 -1.641,-0.092 l 0,-0.965 c 0,0 0.928,0.6 1.641,1.057 m 1.01,1.527 0,-0.861 c 0,-0.658 -0.058,-0.79 -0.426,-1.038 -0.58,-0.386 -1.49,-1.014 -2.883,-1.834 l 0,1.785 C -3.13,-0.82 -4.003,-1.174 -4.917,-1.458 l -0.007,-2.614 c -1.239,-0.543 -2.992,-0.902 -4.846,-0.902 -1.854,0 -3.614,0.359 -4.852,0.902 l 0,2.614 c -0.914,0.285 -1.787,0.637 -2.615,1.035 l 0,-1.783 c -1.397,0.82 -2.307,1.448 -2.888,1.834 -0.367,0.248 -0.425,0.38 -0.425,1.038 l 0,0.863 c -0.983,0.687 -1.869,1.405 -2.652,2.091 l 0,3.797 2.988,0 c 1.212,-1.897 2.101,-3.256 2.57,-4.014 1.66,-0.949 3.442,-1.707 5.168,-2.183 0.527,-0.144 1.041,-0.264 1.545,-0.353 l 0,-2.361 c 0.379,-0.028 1.946,-0.028 2.326,0 l 0,2.361 c 0.499,0.089 1.018,0.209 1.54,0.353 1.727,0.476 3.546,1.234 5.211,2.183 0,0 1.337,2.145 2.527,4.014 L 3.661,7.415 3.665,3.62 C 2.881,2.933 1.992,2.214 1.01,1.527 m -20.902,-0.443 0,-0.353 c 0,-0.479 -0.062,-0.46 0.356,-0.731 l 1.637,-1.057 0,0.966 c -0.699,0.367 -1.364,0.762 -1.993,1.175 M 3.015,6.426 C 0.584,3.488 -4.274,1.08 -7.761,0.368 l 2.23,-1.34 c 0,0 2.691,0.835 4.729,2.097 2.903,1.797 3.817,2.873 3.817,2.873 l 0,2.428 z M -0.57,4.202 C -0.031,4.557 0.386,4.85 0.386,4.85 L 0.348,5.69 -0.57,4.202 z M -1.796,3.436 z M -18.99,4.27 c -0.259,0.421 -0.519,0.817 -0.898,1.42 l 0,-0.84 c 0.297,-0.224 0.898,-0.58 0.898,-0.58 m -3.555,2.147 -0.006,-2.511 c 2.457,-1.989 5.147,-3.945 8.542,-4.878 l 2.234,1.34 c -3.488,0.712 -8.34,3.115 -10.77,6.049 m 8.59,-8.08 0,-1.949 c 1.123,-0.487 2.59,-0.704 4.185,-0.704 1.598,0 3.061,0.217 4.184,0.704 l 0,1.947 c -1.316,-0.348 -2.713,-0.541 -4.184,-0.541 -2.135,-0.008 -4.179,0.541 -4.181,0.541 l -0.004,0.002 z"
             id="path4682"
             style="fill:#ffffff;fill-opacity:1;fill-rule:nonzero;stroke:none" />
        </g>
        <g
           transform="translate(618.6359,359.084)"
           id="g4684"
           style="fill:#ffffff">
          <path
             d="m 0,0 c -5.699,1.522 -10.451,6.413 -10.451,11.522 l 0,12.361 20.902,0 0,-12.361 C 10.451,6.413 5.699,1.522 0,0 m -9.783,23.215 0,-11.708 C -9.783,6.988 -5.699,2.376 0,0.668 5.684,2.376 9.767,6.988 9.767,11.507 l 0,11.708 -19.55,0 z"
             id="path4686"
             style="fill:#ffffff;fill-opacity:1;fill-rule:nonzero;stroke:none" />
        </g>
        <g
           transform="translate(612.6694,357.4732)"
           id="g4688"
           style="fill:#ffffff">
          <path
             d="m 0,0 0.267,-0.105 0,1.526 L 0,1.537 0,0 z"
             id="path4690"
             style="fill:#ffffff;fill-opacity:1;fill-rule:nonzero;stroke:none" />
        </g>
        <g
           transform="translate(611.3376,359.3894)"
           id="g4692"
           style="fill:#ffffff">
          <path
             d="m 0,0 0.41,-0.197 0,-1.312 0.264,-0.128 0,1.292 0.433,-0.177 0,0.231 L 0,0.236 0,0 z"
             id="path4694"
             style="fill:#ffffff;fill-opacity:1;fill-rule:evenodd;stroke:none" />
        </g>
        <g
           transform="translate(610.0099,358.8093)"
           id="g4696"
           style="fill:#ffffff">
          <path
             d="m 0,0 0.24,-0.144 0,1.139 0.008,-0.004 0.588,-1.479 0.244,-0.139 0,1.564 -0.217,0.123 0,-1.153 L 0.855,-0.089 0.267,1.389 0,1.544 0,0 z"
             id="path4698"
             style="fill:#ffffff;fill-opacity:1;fill-rule:nonzero;stroke:none" />
        </g>
        <g
           transform="translate(608.8142,359.5477)"
           id="g4700"
           style="fill:#ffffff">
          <path
             d="m 0,0 0.94,-0.604 0,0.237 -0.712,0.456 0,0.453 0.646,-0.414 0,0.22 -0.646,0.416 0,0.405 0.701,-0.448 0,0.231 L 0,1.545 0,0 z"
             id="path4702"
             style="fill:#ffffff;fill-opacity:1;fill-rule:evenodd;stroke:none" />
        </g>
        <g
           transform="translate(608.3533,359.8735)"
           id="g4704"
           style="fill:#ffffff">
          <path
             d="m 0,0 0.244,-0.159 0,1.518 L 0,1.517 0,0 z"
             id="path4706"
             style="fill:#ffffff;fill-opacity:1;fill-rule:nonzero;stroke:none" />
        </g>
        <g
           transform="translate(608.1212,361.1317)"
           id="g4708"
           style="fill:#ffffff">
          <path
             d="m 0,0 c -0.023,0.344 -0.228,0.666 -0.488,0.828 -0.341,0.213 -0.546,-0.027 -0.546,-0.472 0,-0.441 0.205,-0.933 0.546,-1.146 0.279,-0.17 0.472,-0.039 0.488,0.325 l -0.194,0.12 c -0.015,-0.216 -0.116,-0.336 -0.294,-0.225 -0.244,0.152 -0.348,0.508 -0.348,0.802 0,0.298 0.104,0.526 0.348,0.376 0.171,-0.101 0.256,-0.288 0.286,-0.484 L 0,0 z"
             id="path4710"
             style="fill:#ffffff;fill-opacity:1;fill-rule:nonzero;stroke:none" />
        </g>
        <g
           transform="translate(606.0695,362.1264)"
           id="g4712"
           style="fill:#ffffff">
          <path
             d="m 0,0 c 0.004,-0.383 0.205,-0.693 0.449,-0.863 0.213,-0.147 0.426,-0.159 0.426,0.185 0,0.163 -0.066,0.384 -0.209,0.539 C 0.612,-0.074 0.375,0.178 0.36,0.197 0.283,0.282 0.232,0.379 0.232,0.488 0.232,0.643 0.341,0.612 0.426,0.55 0.557,0.46 0.651,0.325 0.658,0.116 L 0.844,-0.012 C 0.844,0.31 0.658,0.612 0.434,0.766 0.24,0.902 0.043,0.89 0.043,0.581 0.043,0.425 0.097,0.224 0.279,0.027 0.426,-0.132 0.527,-0.232 0.6,-0.322 0.643,-0.376 0.689,-0.457 0.689,-0.573 0.689,-0.693 0.627,-0.766 0.461,-0.65 0.31,-0.546 0.19,-0.368 0.19,-0.132 L 0,0 z"
             id="path4714"
             style="fill:#ffffff;fill-opacity:1;fill-rule:nonzero;stroke:none" />
        </g>
        <g
           transform="translate(620.2368,354.6939)"
           id="g4716"
           style="fill:#ffffff">
          <path
             d="m 0,0 c -0.039,0.341 -0.333,0.519 -0.705,0.5 -0.487,-0.028 -0.774,-0.418 -0.766,-0.871 0.008,-0.449 0.306,-0.81 0.793,-0.779 0.399,0.023 0.67,0.298 0.689,0.678 l -0.278,-0.016 c -0.02,-0.228 -0.159,-0.422 -0.414,-0.437 -0.349,-0.023 -0.5,0.271 -0.504,0.569 -0.007,0.302 0.136,0.612 0.484,0.631 0.24,0.015 0.364,-0.112 0.414,-0.291 L 0,0 z"
             id="path4718"
             style="fill:#ffffff;fill-opacity:1;fill-rule:nonzero;stroke:none" />
        </g>
        <g
           transform="translate(630.1416,360.8373)"
           id="g4720"
           style="fill:#ffffff">
          <path
             d="m 0,0 0.821,0.732 0,0.228 -0.623,-0.558 0,0.438 0.565,0.503 0,0.213 -0.565,-0.507 0,0.391 0.611,0.549 0,0.221 L 0,1.486 0,0 z"
             id="path4722"
             style="fill:#ffffff;fill-opacity:1;fill-rule:evenodd;stroke:none" />
        </g>
        <g
           transform="translate(623.3334,356.9736)"
           id="g4724"
           style="fill:#ffffff">
          <path
             d="m 0,0 1.091,0.403 0,0.236 -0.813,-0.294 0,1.312 L 0,1.545 0,0 z"
             id="path4726"
             style="fill:#ffffff;fill-opacity:1;fill-rule:evenodd;stroke:none" />
        </g>
        <g
           transform="translate(627.5137,359.5406)"
           id="g4728"
           style="fill:#ffffff">
          <path
             d="m 0,0 c -0.073,0.375 0.085,0.882 0.449,1.22 0.368,0.336 0.646,0.231 0.72,-0.14 0,0 0.156,-0.613 -0.453,-1.216 C 0.354,-0.446 0.07,-0.368 0,0 M 0.956,0.882 C 0.906,1.13 0.751,1.278 0.488,1.033 0.224,0.793 0.167,0.449 0.213,0.201 0.26,-0.047 0.407,-0.182 0.678,0.046 1.092,0.506 0.956,0.882 0.956,0.882"
             id="path4730"
             style="fill:#ffffff;fill-opacity:1;fill-rule:evenodd;stroke:none" />
        </g>
        <g
           transform="translate(626.0901,368.4131)"
           id="g4732"
           style="fill:#ffffff">
          <path
             d="m 0,0 0,-2.48 c -0.358,1.073 -0.83,1.879 -1.442,2.482 L 0,0 z m -4.499,0 c 0.56,-1.614 1.632,-2.685 3.629,-3.351 l -13.184,0 c 2.008,0.666 3.084,1.737 3.644,3.352 L -4.499,0 z m -8.98,0 c -0.609,-0.607 -1.082,-1.413 -1.444,-2.48 l 0,2.48 1.444,0 z"
             id="path4734"
             style="fill:#ffffff;fill-opacity:1;fill-rule:evenodd;stroke:none" />
        </g>
        <g
           transform="translate(618.6346,370.1072)"
           id="g4736"
           style="fill:#ffffff">
          <path
             d="m 0,0 c 0.699,0 0.637,0.264 1.118,0.264 l 2.019,0 0,3.991 -0.279,0.186 0,-3.851 -1.569,0 C 0.389,0.59 0.621,0.326 0,0.326 c -0.637,0 -0.388,0.264 -1.289,0.264 l -1.568,0 0,3.851 -0.28,-0.186 0,-3.991 2.019,0 C -0.652,0.264 -0.714,0 0,0 m 0.249,0.885 c 0.31,0.186 0.558,0.202 1.024,0.202 l 1.087,0 0,3.354 c -0.543,0 -0.543,0.14 -1.164,0.14 -0.59,0 -0.947,-0.388 -0.947,-0.777 l 0,-2.919 z m -0.497,0 c -0.326,0.186 -0.559,0.202 -1.025,0.202 l -1.087,0 0,3.354 c 0.543,0 0.543,0.14 1.164,0.14 0.59,0 0.948,-0.388 0.948,-0.777 l 0,-2.919 z m -5.188,0.606 0.336,0 c 0,0.112 -0.077,0.193 -0.17,0.193 -0.093,0 -0.166,-0.081 -0.166,-0.182 l 0,-0.011 z m 0.336,-0.295 -0.336,0 0,-0.027 c 0,-0.101 0.073,-0.182 0.166,-0.182 0.093,0 0.17,0.081 0.17,0.182 l 0,0.027 z m 1.299,-0.28 -1.044,0 c -0.077,-0.14 -0.248,-0.233 -0.419,-0.233 -0.264,0 -0.481,0.202 -0.481,0.466 l 0,0.047 -0.078,0 c -0.093,0 -0.155,0.062 -0.155,0.155 0,0.077 0.062,0.14 0.155,0.14 l 0.078,0 0,0.046 c 0,0.249 0.217,0.466 0.481,0.466 0.186,0 0.357,-0.124 0.419,-0.295 l 1.052,0.014 -0.008,-0.806 z m 7.585,0.806 1.371,0.001 c 0.358,0 0.591,-0.062 0.591,-0.356 0,-0.342 -0.187,-0.451 -0.513,-0.451 l -1.449,0 0,0.806 z m -9.22,1.958 0.336,0 c 0,0.112 -0.077,0.193 -0.17,0.193 -0.093,0 -0.166,-0.081 -0.166,-0.181 l 0,-0.012 z m 0.336,-0.295 -0.336,0 0,-0.026 c 0,-0.101 0.073,-0.182 0.166,-0.182 0.093,0 0.17,0.081 0.17,0.182 l 0,0.026 z m 1.299,-0.279 -1.044,0 c -0.077,-0.14 -0.248,-0.233 -0.419,-0.233 -0.264,0 -0.481,0.202 -0.481,0.466 l 0,0.046 -0.078,0 c -0.093,0 -0.155,0.062 -0.155,0.155 0,0.078 0.062,0.14 0.155,0.14 l 0.078,0 0,0.047 c 0,0.248 0.217,0.466 0.481,0.466 0.186,0 0.357,-0.124 0.419,-0.295 l 1.052,0.014 -0.008,-0.806 z m 7.585,0.806 1.371,10e-4 c 0.358,0 0.591,-0.062 0.591,-0.357 0,-0.341 -0.187,-0.45 -0.513,-0.45 l -1.449,0 0,0.806 z m -11.252,-5.606 0,10.703 c 0.87,-2.563 2.376,-3.619 4.876,-4.006 -0.388,2.5 -1.429,4.006 -4.006,4.875 l 13.184,0 C 4.023,9.009 2.983,7.503 2.595,5.003 5.095,5.39 6.601,6.446 7.456,9.009 l 0,-10.703 -1.443,0 C 5.164,-0.856 4.047,-0.41 2.595,-0.184 2.68,-0.733 2.798,-1.235 2.957,-1.693 l -5.911,-10e-4 c 0.159,0.459 0.276,0.961 0.362,1.51 -1.458,-0.218 -2.578,-0.667 -3.431,-1.513 l -1.445,0.003 z"
             id="path4738"
             style="fill:#ffffff;fill-opacity:1;fill-rule:evenodd;stroke:none" />
        </g>
        <g
           transform="translate(636.3897,353.2301)"
           id="g4740"
           style="fill:#ffffff">
          <path
             d="m 0,0 c 0.118,0.013 0.226,0.034 0.303,0.134 0.061,0.077 0.17,0.299 0.33,0.674 l 1.07,2.519 0.167,0 1.276,-2.905 C 3.231,0.229 3.293,0.121 3.334,0.084 3.401,0.026 3.521,0.011 3.606,-0.001 l 0,-0.189 -1.393,0 0,0.191 c 0.1,0.009 0.224,0.007 0.317,0.048 0.015,0.006 0.034,0.026 0.034,0.093 0,0.077 -0.06,0.239 -0.09,0.308 l -0.197,0.456 -1.257,0 C 0.896,0.595 0.822,0.404 0.797,0.332 0.772,0.262 0.762,0.21 0.762,0.176 0.762,0.107 0.788,0.068 0.836,0.045 0.899,0.016 1.037,0.008 1.109,0.002 l 0,-0.192 L 0,-0.19 0,0 z m 1.654,2.425 -0.502,-1.209 1.009,0 -0.507,1.209 z"
             id="path4742"
             style="fill:#ffffff;fill-opacity:1;fill-rule:evenodd;stroke:none" />
        </g>
        <g
           transform="translate(643.6141,356.3026)"
           id="g4744"
           style="fill:#ffffff">
          <path
             d="m 0,0 c -0.096,-0.006 -0.319,-0.019 -0.395,-0.089 -0.039,-0.034 -0.07,-0.129 -0.07,-0.317 l 0,-1.622 c 0,-0.261 0.036,-0.459 0.103,-0.598 0.124,-0.248 0.359,-0.377 0.723,-0.377 0.761,0 0.901,0.445 0.901,1.081 l 0,1.32 c 0,0.28 -0.036,0.429 -0.085,0.482 -0.086,0.092 -0.275,0.11 -0.39,0.122 l 0,0.193 1.277,0 0,-0.192 C 1.954,-0.01 1.745,-0.031 1.666,-0.127 1.62,-0.184 1.589,-0.333 1.589,-0.602 l 0,-1.32 c 0,-0.353 -0.054,-0.636 -0.167,-0.843 -0.21,-0.383 -0.609,-0.569 -1.175,-0.569 -0.559,0 -0.954,0.182 -1.163,0.561 -0.114,0.202 -0.168,0.464 -0.168,0.783 l 0,1.584 c 0,0.186 -0.031,0.281 -0.07,0.316 -0.074,0.069 -0.293,0.084 -0.388,0.091 l 0,0.194 L 0,0.195 0,0 z"
             id="path4746"
             style="fill:#ffffff;fill-opacity:1;fill-rule:nonzero;stroke:none" />
        </g>
        <g
           transform="translate(648.4106,353.6007)"
           id="g4748"
           style="fill:#ffffff">
          <path
             d="m 0,0 c 0.192,-0.225 0.428,-0.336 0.71,-0.336 0.15,0 0.277,0.048 0.384,0.141 0.106,0.091 0.161,0.219 0.161,0.389 0,0.151 -0.054,0.281 -0.164,0.394 -0.176,0.177 -0.714,0.488 -0.913,0.611 -0.134,0.085 -0.241,0.171 -0.323,0.26 -0.151,0.168 -0.229,0.357 -0.229,0.564 0,0.572 0.423,0.946 0.983,0.946 0.124,0 0.268,-0.031 0.433,-0.09 0.169,-0.058 0.25,-0.081 0.262,-0.081 0.057,0 0.08,0.014 0.089,0.025 0.034,0.041 0.044,0.096 0.056,0.146 l 0.192,0 0.122,-1.183 -0.219,0 C 1.48,2.036 1.38,2.317 1.156,2.475 0.98,2.6 0.811,2.66 0.646,2.66 0.4,2.66 0.181,2.513 0.181,2.248 0.181,2.129 0.217,2.03 0.287,1.948 0.361,1.86 0.48,1.765 0.644,1.664 L 1.089,1.389 C 1.37,1.216 1.572,1.055 1.692,0.905 1.811,0.749 1.871,0.566 1.871,0.358 1.871,0.077 1.763,-0.16 1.552,-0.347 1.341,-0.535 1.072,-0.627 0.75,-0.627 c -0.163,0 -0.334,0.031 -0.51,0.091 -0.176,0.062 -0.261,0.087 -0.275,0.087 -0.049,0 -0.067,-0.014 -0.076,-0.028 -0.026,-0.047 -0.032,-0.091 -0.04,-0.143 l -0.201,0 -0.165,1.183 0.212,0 C -0.23,0.363 -0.14,0.165 0,0"
             id="path4750"
             style="fill:#ffffff;fill-opacity:1;fill-rule:nonzero;stroke:none" />
        </g>
        <g
           transform="translate(655.6011,356.4974)"
           id="g4752"
           style="fill:#ffffff">
          <path
             d="m 0,0 0.031,-0.965 -0.217,0 c -0.031,0.14 -0.095,0.43 -0.221,0.541 -0.074,0.067 -0.247,0.11 -0.542,0.11 l -0.23,0 0,-2.542 c 0,-0.199 0.033,-0.295 0.072,-0.325 0.083,-0.062 0.323,-0.077 0.421,-0.085 l 0,-0.191 -1.582,0 0,0.191 c 0.422,0.033 0.48,0.035 0.48,0.47 l 0,2.482 -0.229,0 c -0.28,0 -0.455,-0.041 -0.542,-0.11 -0.135,-0.108 -0.19,-0.396 -0.217,-0.541 l -0.221,0 L -2.964,0 0,0 z"
             id="path4754"
             style="fill:#ffffff;fill-opacity:1;fill-rule:nonzero;stroke:none" />
        </g>
        <g
           transform="translate(658.0927,353.331)"
           id="g4756"
           style="fill:#ffffff">
          <path
             d="m 0,0 c 0.034,0.041 0.059,0.155 0.059,0.37 l 0,2.195 c 0,0.179 -0.028,0.275 -0.066,0.313 -0.069,0.073 -0.278,0.087 -0.369,0.094 l 0,0.194 1.455,0 C 1.375,3.166 1.625,3.129 1.827,3.052 2.216,2.905 2.416,2.628 2.416,2.229 2.416,1.964 2.328,1.754 2.149,1.607 1.994,1.479 1.792,1.392 1.545,1.344 L 2.533,0.128 C 2.673,-0.044 2.77,-0.079 2.985,-0.1 l 0,-0.191 -0.894,0 -1.207,1.558 -0.205,-0.009 0,-0.947 c 0,-0.191 0.029,-0.287 0.066,-0.32 0.077,-0.066 0.297,-0.083 0.391,-0.09 l 0,-0.192 -1.512,0 0,0.191 C -0.29,-0.092 -0.061,-0.074 0,0 M 1.76,2.234 C 1.76,2.51 1.649,2.69 1.429,2.788 1.31,2.841 1.147,2.869 0.938,2.869 0.789,2.869 0.719,2.856 0.702,2.846 0.695,2.842 0.679,2.821 0.679,2.746 l 0,-1.196 c 0.335,0.015 0.57,0.052 0.71,0.108 0.248,0.102 0.371,0.29 0.371,0.576"
             id="path4758"
             style="fill:#ffffff;fill-opacity:1;fill-rule:evenodd;stroke:none" />
        </g>
        <g
           transform="translate(662.9394,353.2301)"
           id="g4760"
           style="fill:#ffffff">
          <path
             d="m 0,0 c 0.117,0.013 0.226,0.034 0.303,0.134 0.061,0.077 0.17,0.299 0.33,0.674 l 1.07,2.519 0.168,0 1.275,-2.905 C 3.231,0.229 3.293,0.121 3.333,0.084 3.401,0.026 3.521,0.011 3.606,-0.001 l 0,-0.189 -1.394,0 0,0.191 c 0.1,0.009 0.225,0.007 0.318,0.048 0.015,0.006 0.034,0.026 0.035,0.093 0,0.077 -0.062,0.239 -0.091,0.308 l -0.197,0.456 -1.257,0 C 0.896,0.595 0.822,0.404 0.796,0.332 0.773,0.262 0.762,0.21 0.762,0.176 0.762,0.107 0.788,0.068 0.837,0.045 0.899,0.016 1.037,0.008 1.109,0.002 l 0,-0.192 L 0,-0.19 0,0 z m 1.654,2.425 -0.502,-1.209 1.01,0 -0.508,1.209 z"
             id="path4762"
             style="fill:#ffffff;fill-opacity:1;fill-rule:evenodd;stroke:none" />
        </g>
        <g
           transform="translate(668.989,353.3226)"
           id="g4764"
           style="fill:#ffffff">
          <path
             d="m 0,0 c 0.035,0.03 0.066,0.124 0.066,0.319 l 0,2.255 c 0,0.18 -0.029,0.277 -0.067,0.315 -0.071,0.072 -0.285,0.085 -0.378,0.091 l 0,0.195 1.536,0 0,-0.196 C 1.053,2.975 0.849,2.965 0.762,2.897 0.719,2.862 0.687,2.776 0.687,2.608 l 0,-2.435 C 0.687,0.122 0.694,0.088 0.707,0.065 0.714,0.055 0.734,0.039 0.794,0.032 L 0.91,0.022 1.146,0.02 c 0.451,0 0.744,0.037 0.89,0.106 0.208,0.097 0.363,0.394 0.45,0.574 l 0.23,0 -0.277,-0.982 -2.818,0 0,0.189 C -0.289,-0.082 -0.073,-0.062 0,0"
             id="path4766"
             style="fill:#ffffff;fill-opacity:1;fill-rule:nonzero;stroke:none" />
        </g>
        <g
           transform="translate(674.1787,353.3168)"
           id="g4768"
           style="fill:#ffffff">
          <path
             d="m 0,0 c 0.039,0.03 0.071,0.125 0.071,0.325 l 0,2.255 c 0,0.187 -0.032,0.283 -0.074,0.319 -0.081,0.072 -0.319,0.081 -0.418,0.086 l 0,0.196 1.603,0 0,-0.196 C 1.083,2.98 0.845,2.971 0.764,2.899 0.722,2.863 0.69,2.767 0.69,2.58 l 0,-2.255 C 0.69,0.125 0.722,0.03 0.761,0 0.844,-0.063 1.086,-0.077 1.182,-0.085 l 0,-0.191 -1.603,0 0,0.191 C -0.324,-0.077 -0.083,-0.063 0,0"
             id="path4770"
             style="fill:#ffffff;fill-opacity:1;fill-rule:nonzero;stroke:none" />
        </g>
        <g
           transform="translate(677.4657,353.2301)"
           id="g4772"
           style="fill:#ffffff">
          <path
             d="m 0,0 c 0.117,0.013 0.225,0.034 0.302,0.134 0.061,0.077 0.171,0.299 0.33,0.674 l 1.071,2.519 0.167,0 1.275,-2.905 C 3.23,0.229 3.293,0.121 3.333,0.084 3.4,0.026 3.52,0.011 3.605,-0.001 l 0,-0.189 -1.393,0 0,0.191 c 0.1,0.009 0.225,0.007 0.318,0.048 0.015,0.006 0.034,0.026 0.034,0.093 0,0.077 -0.061,0.239 -0.091,0.308 l -0.196,0.456 -1.257,0 C 0.896,0.595 0.821,0.404 0.796,0.332 0.771,0.262 0.762,0.21 0.762,0.176 0.762,0.107 0.787,0.068 0.836,0.045 0.899,0.016 1.036,0.008 1.108,0.002 l 0,-0.192 L 0,-0.19 0,0 z m 1.653,2.425 -0.501,-1.209 1.009,0 -0.508,1.209 z"
             id="path4774"
             style="fill:#ffffff;fill-opacity:1;fill-rule:evenodd;stroke:none" />
        </g>
        <g
           transform="translate(692.7354,378.5856)"
           id="g4776"
           style="fill:#ffffff">
          <path
             d="M 0,0 C 0.007,-0.714 -0.581,-1.336 -1.428,-1.587 L 0.41,-3.994 c 0.186,-0.212 0.357,-0.464 0.609,-0.464 l 0.04,0 0,-0.171 -1.429,0 -2.209,2.91 -0.41,0 0,-2.077 c 0,-0.423 0.172,-0.662 0.582,-0.662 l 0.04,0 0,-0.171 -2.275,0 0,0.171 0.066,0 c 0.397,0 0.569,0.239 0.569,0.662 l 0,4.642 c 0,0.411 -0.172,0.662 -0.569,0.662 l -0.066,0 0,0.172 1.653,0 C -0.555,1.812 -0.01,1.002 0,0 m -2.989,1.167 0,-2.49 0.529,0 c 0.768,0 1.376,0.609 1.376,1.323 0,0.715 -0.608,1.27 -1.376,1.27 0,0 -0.247,0.03 -0.529,-0.103"
             id="path4778"
             style="fill:#ffffff;fill-opacity:1;fill-rule:evenodd;stroke:none" />
        </g>
        <g
           transform="translate(639.9398,373.9827)"
           id="g4780"
           style="fill:#ffffff">
          <path
             d="m 0,0 0,0.225 -0.357,0 c -0.384,0 -0.701,0.357 -0.701,0.754 l 0,6.349 1.468,0 c 0.608,0 0.979,-0.45 1.018,-1.336 l 0.199,0 -0.08,1.905 c 0,0.026 -0.039,0.065 -0.052,0.065 l -6.442,0 C -4.947,7.962 -5,7.923 -5,7.897 l -0.08,-1.905 0.212,0 c 0.04,0.886 0.41,1.336 1.019,1.336 l 1.468,0 0,-6.349 c 0,-0.397 -0.317,-0.754 -0.714,-0.754 l -0.371,0 L -3.466,0 0,0 z"
             id="path4782"
             style="fill:#ffffff;fill-opacity:1;fill-rule:nonzero;stroke:none" />
        </g>
        <g
           transform="translate(664.2047,381.1648)"
           id="g4784"
           style="fill:#ffffff">
          <path
             d="m 0,0 c 0,0.384 -0.225,0.556 -0.529,0.556 l -0.304,0 0,0.238 2.288,0 0,-0.238 -0.264,0 C 0.846,0.556 0.648,0.384 0.648,0 l 0,-4.629 c 0,-1.495 -1.151,-2.646 -3.042,-2.646 -1.891,0 -3.135,1.178 -3.135,2.778 l 0,4.312 c 0,0.384 -0.304,0.741 -0.714,0.741 l -0.093,0 0,0.238 2.937,0 0,-0.238 -0.107,0 c -0.396,0 -0.714,-0.357 -0.714,-0.741 l 0,-4.352 c 0,-1.164 0.728,-2.103 1.944,-2.103 1.165,0 2.276,0.701 2.276,2.011 L 0,0 z"
             id="path4786"
             style="fill:#ffffff;fill-opacity:1;fill-rule:nonzero;stroke:none" />
        </g>
        <g
           transform="translate(646.5001,376.9853)"
           id="g4788"
           style="fill:#ffffff">
          <path
             d="m 0,0 -2.698,0 0,-2.17 c 0,-0.423 0.172,-0.661 0.569,-0.661 l 0.039,0 0,-0.172 -2.261,0 0,0.172 0.039,0 c 0.437,0 0.569,0.238 0.569,0.661 l 0,4.643 c 0,0.41 -0.132,0.662 -0.569,0.662 l -0.039,0 0,0.172 2.261,0 0,-0.172 -0.039,0 c -0.397,0 -0.569,-0.252 -0.569,-0.662 l 0,-2.024 2.698,0 0,2.024 c 0,0.41 -0.172,0.662 -0.595,0.662 l -0.04,0 0,0.172 2.289,0 0,-0.172 -0.066,0 c -0.41,0 -0.569,-0.252 -0.569,-0.662 l 0,-4.643 c 0,-0.423 0.159,-0.661 0.569,-0.661 l 0.066,0 0,-0.172 -2.289,0 0,0.172 0.04,0 C -0.172,-2.831 0,-2.593 0,-2.17 L 0,0 z"
             id="path4790"
             style="fill:#ffffff;fill-opacity:1;fill-rule:nonzero;stroke:none" />
        </g>
        <g
           transform="translate(650.5479,377.0912)"
           id="g4792"
           style="fill:#ffffff">
          <path
             d="m 0,0 0,-2.328 c 0,-0.185 0.146,-0.318 0.317,-0.318 l 1.588,0 c 0.873,0 1.269,0.516 1.481,1.23 l 0.185,0 -0.529,-1.693 -4.696,0 0,0.172 0.04,0 c 0.41,0 0.582,0.238 0.582,0.662 l 0,4.642 c 0,0.41 -0.172,0.662 -0.582,0.662 l -0.04,0 0,0.172 4.551,0 0.106,-1.442 -0.159,0 C 2.804,2.42 2.434,2.777 1.958,2.777 l -1.958,0 0,-2.301 1.825,0 c 0.305,0 0.45,0.331 0.45,0.595 l 0,0.04 0.186,0 0,-1.746 -0.186,0 0,0.039 C 2.275,-0.304 2.13,0 1.825,0 L 0,0 z"
             id="path4794"
             style="fill:#ffffff;fill-opacity:1;fill-rule:nonzero;stroke:none" />
        </g>
        <g
           transform="translate(674.6675,374.8157)"
           id="g4796"
           style="fill:#ffffff">
          <path
             d="m 0,0 c 0,-0.423 0.173,-0.661 0.582,-0.661 l 0.027,0 0,-0.172 -2.249,0 0,0.172 0.026,0 c 0.437,0 0.609,0.238 0.609,0.661 l 0,4.643 c 0,0.41 -0.172,0.661 -0.609,0.661 l -0.026,0 0,0.172 2.249,0 0,-0.172 -0.027,0 C 0.173,5.304 0,5.053 0,4.643 L 0,0 z"
             id="path4798"
             style="fill:#ffffff;fill-opacity:1;fill-rule:nonzero;stroke:none" />
        </g>
        <g
           transform="translate(679.2047,374.0225)"
           id="g4800"
           style="fill:#ffffff">
          <path
             d="m 0,0 2.183,5.542 c 0.172,0.357 0.33,0.556 0.581,0.556 l 0,0.171 -1.455,0 0,-0.171 0.093,0 c 0.185,0 0.384,-0.186 0.304,-0.424 L 0.145,1.785 -1.561,5.674 c -0.093,0.238 0.119,0.424 0.278,0.424 l 0.211,0 0,0.171 -2.142,0 0,-0.171 c 0.251,0 0.423,-0.186 0.582,-0.53 L -0.225,0 C -0.172,-0.066 -0.054,-0.093 0,0"
             id="path4802"
             style="fill:#ffffff;fill-opacity:1;fill-rule:nonzero;stroke:none" />
        </g>
        <g
           transform="translate(684.3236,377.0912)"
           id="g4804"
           style="fill:#ffffff">
          <path
             d="m 0,0 0,-2.328 c 0,-0.185 0.145,-0.318 0.317,-0.318 l 1.587,0 c 0.86,0 1.257,0.516 1.482,1.23 l 0.185,0 -0.542,-1.693 -4.683,0 0,0.172 0.04,0 c 0.41,0 0.569,0.238 0.569,0.662 l 0,4.642 c 0,0.41 -0.159,0.662 -0.569,0.662 l -0.04,0 0,0.172 4.537,0 0.119,-1.442 -0.158,0 C 2.804,2.42 2.42,2.777 1.957,2.777 l -1.957,0 0,-2.301 1.812,0 c 0.317,0 0.463,0.331 0.463,0.595 l 0,0.04 0.185,0 0,-1.746 -0.185,0 0,0.039 C 2.275,-0.304 2.129,0 1.812,0 L 0,0 z"
             id="path4806"
             style="fill:#ffffff;fill-opacity:1;fill-rule:nonzero;stroke:none" />
        </g>
        <g
           transform="translate(694.4555,376.1254)"
           id="g4808"
           style="fill:#ffffff">
          <path
             d="m 0,0 -0.186,0 0,-2.143 0.186,0 c 0.079,0.278 0.318,0.41 0.542,0.278 0.768,-0.41 1.72,-0.476 2.381,0.04 0.635,0.463 0.913,1.375 0.516,2.09 C 3.068,0.966 2.077,1.508 1.31,1.905 0.423,2.407 0.397,3.254 1.071,3.691 1.892,4.167 3.109,3.333 3.109,2.129 l 0.158,0 0,2.038 -0.158,0 C 3.056,3.862 2.831,3.836 2.513,3.968 1.64,4.365 0.925,4.352 0.318,3.796 -0.37,3.161 -0.529,1.878 0.595,1.19 1.27,0.767 2.183,0.291 2.513,-0.159 2.818,-0.569 2.87,-1.058 2.289,-1.561 1.441,-2.301 0,-1.402 0,0"
             id="path4810"
             style="fill:#ffffff;fill-opacity:1;fill-rule:nonzero;stroke:none" />
        </g>
        <g
           transform="translate(667.5118,380.2919)"
           id="g4812"
           style="fill:#ffffff">
          <path
             d="m 0,0 -1.614,0 0,-0.172 c 0.265,0 0.436,-0.026 0.569,-0.185 0.145,-0.159 0.238,-0.278 0.423,-0.489 l 0,-4.815 c 0,-0.304 -0.278,-0.463 -0.556,-0.463 l -0.066,0 0,-0.185 1.759,0 0,0.185 -0.039,0 c -0.292,0 -0.582,0.159 -0.582,0.463 l 0,4.18 4.167,-4.828 0.132,0 0,5.661 c 0,0.318 0.291,0.476 0.569,0.476 l 0.039,0 0,0.172 -1.746,0 0,-0.172 0.054,0 c 0.277,0 0.555,-0.158 0.555,-0.476 l 0,-3.598 L 0,0 z"
             id="path4814"
             style="fill:#ffffff;fill-opacity:1;fill-rule:nonzero;stroke:none" />
        </g>
        <g
           transform="translate(700.3418,374.8157)"
           id="g4816"
           style="fill:#ffffff">
          <path
             d="m 0,0 c 0,-0.423 0.172,-0.661 0.582,-0.661 l 0.04,0 0,-0.172 -2.276,0 0,0.172 0.067,0 c 0.409,0 0.568,0.238 0.568,0.661 l 0,4.643 c 0,0.41 -0.159,0.661 -0.568,0.661 l -0.067,0 0,0.172 2.276,0 0,-0.172 -0.04,0 C 0.172,5.304 0,5.053 0,4.643 L 0,0 z"
             id="path4818"
             style="fill:#ffffff;fill-opacity:1;fill-rule:nonzero;stroke:none" />
        </g>
        <g
           transform="translate(710.0369,376.6678)"
           id="g4820"
           style="fill:#ffffff">
          <path
             d="m 0,0 -1.931,2.949 c -0.198,0.371 -0.41,0.503 -0.661,0.503 l 0,0.185 2.236,0 0,-0.185 -0.146,0 c -0.185,0 -0.358,-0.225 -0.238,-0.463 l 1.587,-2.42 1.442,2.46 C 2.394,3.201 2.262,3.452 2.09,3.452 l -0.159,0 0,0.185 1.548,0 0,-0.185 c -0.277,0 -0.53,-0.185 -0.714,-0.476 l -1.72,-2.936 0,-1.905 c 0,-0.436 0.172,-0.648 0.596,-0.648 l 0.039,0 0,-0.172 -2.302,0 0,0.172 0.04,0 C -0.159,-2.513 0,-2.275 0,-1.839 L 0,0 z"
             id="path4822"
             style="fill:#ffffff;fill-opacity:1;fill-rule:nonzero;stroke:none" />
        </g>
        <g
           transform="translate(704.8651,374.7764)"
           id="g4824"
           style="fill:#ffffff">
          <path
             d="m 0,0 c 0,-0.423 0.172,-0.622 0.582,-0.622 l 0.027,0 0,-0.172 -2.249,0 0,0.172 0.026,0 c 0.41,0 0.609,0.199 0.609,0.622 l 0,5.04 -1.27,0 c -0.476,0 -0.754,-0.332 -0.794,-1.019 l -0.145,0 0.053,1.455 c 0,0.013 0.026,0.04 0.039,0.04 l 5.212,0 c 0.014,0 0.04,-0.027 0.04,-0.04 l 0.066,-1.455 -0.159,0 C 1.997,4.708 1.745,5.04 1.256,5.04 L 0,5.04 0,0 z"
             id="path4826"
             style="fill:#ffffff;fill-opacity:1;fill-rule:nonzero;stroke:none" />
        </g>
        <g
           transform="translate(644.6884,363.1094)"
           id="g4828"
           style="fill:#ffffff">
          <path
             d="m 0,0 c 0,-0.423 0.172,-0.648 0.569,-0.648 l 0.066,0 0,-0.158 -2.275,0 0,0.158 0.04,0 c 0.422,0 0.582,0.251 0.582,0.662 l 0,4.629 c 0,0.424 -0.16,0.688 -0.582,0.688 l -0.04,0 0,0.172 4.828,0 0.105,-1.455 -0.145,0 C 3.108,4.696 2.725,5.067 2.262,5.067 l -2.262,0 0,-2.289 1.839,0 c 0.317,0 0.449,0.291 0.449,0.596 l 0,0.039 0.172,0 0,-1.746 -0.172,0 0,0.026 c 0,0.305 -0.132,0.609 -0.449,0.609 L 0,2.302 0,0 z"
             id="path4830"
             style="fill:#ffffff;fill-opacity:1;fill-rule:nonzero;stroke:none" />
        </g>
        <g
           transform="translate(667.7296,365.4113)"
           id="g4832"
           style="fill:#ffffff">
          <path
             d="m 0,0 0,-2.328 c 0,-0.199 0.159,-0.33 0.344,-0.33 l 1.575,0 c 0.859,0 1.256,0.529 1.481,1.243 l 0.172,0 -0.516,-1.693 -4.696,0 0,0.158 0.04,0 c 0.424,0 0.582,0.251 0.582,0.662 l 0,4.643 c 0,0.41 -0.158,0.674 -0.582,0.674 l -0.04,0 0,0.172 4.537,0 0.106,-1.455 -0.145,0 C 2.831,2.42 2.434,2.765 1.958,2.765 l -1.958,0 0,-2.289 1.839,0 c 0.29,0 0.463,0.291 0.463,0.596 l 0,0.039 0.159,0 0,-1.746 -0.159,0 0,0.026 C 2.302,-0.304 2.129,0 1.839,0 L 0,0 z"
             id="path4834"
             style="fill:#ffffff;fill-opacity:1;fill-rule:nonzero;stroke:none" />
        </g>
        <g
           transform="translate(664.3575,368.0039)"
           id="g4836"
           style="fill:#ffffff">
          <path
             d="m 0,0 c 0,0.278 -0.186,0.436 -0.437,0.436 l -0.172,0 0,0.173 1.72,0 0,-0.173 -0.199,0 C 0.661,0.436 0.502,0.278 0.502,0 l 0,-3.69 c 0,-1.19 -0.912,-2.077 -2.407,-2.077 -1.508,0 -2.5,0.926 -2.5,2.196 l 0,3.399 c 0,0.304 -0.238,0.608 -0.556,0.608 l -0.013,0 0,0.173 2.209,0 0,-0.173 -0.04,0 c -0.291,0 -0.542,-0.304 -0.542,-0.608 l 0,-3.439 c 0,-0.913 0.569,-1.68 1.521,-1.68 0.939,0 1.826,0.569 1.826,1.601 L 0,0 z"
             id="path4838"
             style="fill:#ffffff;fill-opacity:1;fill-rule:nonzero;stroke:none" />
        </g>
        <g
           transform="translate(673.2853,365.4113)"
           id="g4840"
           style="fill:#ffffff">
          <path
             d="m 0,0 0,-2.328 c 0,-0.199 0.146,-0.33 0.317,-0.33 l 1.588,0 c 0.873,0 1.257,0.529 1.482,1.243 l 0.184,0 -0.542,-1.693 -4.669,0 0,0.158 0.027,0 c 0.41,0 0.581,0.251 0.581,0.662 l 0,4.643 c 0,0.41 -0.171,0.674 -0.581,0.674 l -0.027,0 0,0.172 4.524,0 0.106,-1.455 -0.146,0 C 2.804,2.42 2.42,2.765 1.957,2.765 l -1.957,0 0,-2.289 1.812,0 c 0.318,0 0.49,0.291 0.49,0.596 l 0,0.039 0.159,0 0,-1.746 -0.159,0 0,0.026 C 2.302,-0.304 2.13,0 1.812,0 L 0,0 z"
             id="path4842"
             style="fill:#ffffff;fill-opacity:1;fill-rule:nonzero;stroke:none" />
        </g>
        <g
           transform="translate(690.2296,363.1496)"
           id="g4844"
           style="fill:#ffffff">
          <path
             d="m 0,0 c 0,-0.199 0.159,-0.397 0.331,-0.397 l 1.468,0 c 0.86,0 1.257,0.543 1.481,1.27 l 0.186,0 -0.516,-1.719 -4.59,0 0,0.171 0.053,0 c 0.396,0 0.569,0.251 0.569,0.675 l 0,4.603 c 0,0.423 -0.173,0.688 -0.569,0.688 l -0.053,0 0,0.172 2.275,0 0,-0.172 -0.04,0 C 0.159,5.291 0,5.026 0,4.603 L 0,0 z"
             id="path4846"
             style="fill:#ffffff;fill-opacity:1;fill-rule:nonzero;stroke:none" />
        </g>
        <g
           transform="translate(684.079,364.4325)"
           id="g4848"
           style="fill:#ffffff">
          <path
             d="m 0,0 -0.185,0 0,-2.129 0.185,0 c 0.066,0.291 0.304,0.409 0.542,0.278 0.768,-0.397 1.721,-0.49 2.394,0.026 0.635,0.476 0.913,1.376 0.516,2.09 C 3.082,0.979 2.063,1.508 1.323,1.918 0.423,2.42 0.384,3.28 1.084,3.69 1.878,4.18 3.108,3.359 3.108,2.13 l 0.186,0 0,2.063 -0.186,0 C 3.042,3.875 2.831,3.836 2.526,3.968 1.64,4.391 0.913,4.352 0.304,3.81 -0.371,3.175 -0.516,1.878 0.609,1.191 1.283,0.767 2.196,0.304 2.526,-0.159 2.804,-0.542 2.883,-1.045 2.302,-1.561 1.455,-2.288 0,-1.388 0,0"
             id="path4850"
             style="fill:#ffffff;fill-opacity:1;fill-rule:nonzero;stroke:none" />
        </g>
        <g
           transform="translate(678.4441,368.6124)"
           id="g4852"
           style="fill:#ffffff">
          <path
             d="m 0,0 -1.613,0 0,-0.172 c 0.264,0 0.449,-0.039 0.555,-0.185 0.159,-0.172 0.265,-0.278 0.449,-0.503 l 0,-4.802 c 0,-0.317 -0.29,-0.476 -0.569,-0.476 l -0.052,0 0,-0.171 1.746,0 0,0.171 -0.04,0 c -0.29,0 -0.569,0.159 -0.569,0.476 l 0,4.181 4.154,-4.828 0.132,0 0,5.661 c 0,0.304 0.278,0.476 0.556,0.476 l 0.052,0 0,0.172 -1.732,0 0,-0.172 0.039,0 c 0.278,0 0.583,-0.172 0.583,-0.476 l 0,-3.611 L 0,0 z"
             id="path4854"
             style="fill:#ffffff;fill-opacity:1;fill-rule:nonzero;stroke:none" />
        </g>
        <g
           transform="translate(701.8567,368.6124)"
           id="g4856"
           style="fill:#ffffff">
          <path
             d="m 0,0 -1.614,0 0,-0.172 c 0.252,0 0.436,-0.039 0.542,-0.185 0.158,-0.172 0.264,-0.278 0.45,-0.503 l 0,-4.802 c 0,-0.317 -0.292,-0.476 -0.569,-0.476 l -0.04,0 0,-0.171 1.733,0 0,0.171 -0.026,0 c -0.304,0 -0.582,0.159 -0.582,0.476 l 0,4.181 4.153,-4.828 0.132,0 0,5.661 c 0,0.304 0.278,0.476 0.556,0.476 l 0.066,0 0,0.172 -1.706,0 0,-0.172 c 0.278,0 0.582,-0.172 0.582,-0.476 l 0,-3.611 L 0,0 z"
             id="path4858"
             style="fill:#ffffff;fill-opacity:1;fill-rule:nonzero;stroke:none" />
        </g>
        <g
           transform="translate(695.6626,364.7994)"
           id="g4860"
           style="fill:#ffffff">
          <path
             d="M 0,0 1.852,0 0.929,2.135 0,0 z m 3.743,-1.759 c 0.146,-0.344 0.331,-0.542 0.582,-0.542 l 0.066,0 0,-0.172 -2.195,0 0,0.172 0.172,0 c 0.198,0 0.397,0.198 0.304,0.436 l -0.608,1.402 -2.236,0 -0.595,-1.402 c -0.093,-0.238 0.132,-0.436 0.357,-0.436 l 0.079,0 0,-0.172 -1.679,0 0,0.172 0.119,0 c 0.251,0 0.476,0.198 0.647,0.569 L 1.085,3.902 C 1.224,4.06 1.3,3.881 1.3,3.881 l 2.443,-5.64 z"
             id="path4862"
             style="fill:#ffffff;fill-opacity:1;fill-rule:evenodd;stroke:none" />
        </g>
        <g
           transform="translate(709.1083,368.1496)"
           id="g4864"
           style="fill:#ffffff">
          <path
             d="m 0,0 0,-5.371 c 0.251,-0.066 0.383,-0.079 0.622,-0.079 1.904,0 2.817,1.125 2.817,2.765 C 3.452,-2.616 3.551,0.178 0.605,0.106 0.605,0.106 0.228,0.162 0,0 m 4.404,-2.699 c 0,-1.772 -1.415,-3.161 -3.253,-3.161 l -2.923,0 0,0.172 0.053,0 c 0.409,0 0.568,0.251 0.568,0.675 l 0,4.603 c 0,0.423 -0.159,0.688 -0.568,0.688 l -0.053,0 0,0.171 2.397,0 c 4.034,0.126 3.779,-3.148 3.779,-3.148"
             id="path4866"
             style="fill:#ffffff;fill-opacity:1;fill-rule:evenodd;stroke:none" />
        </g>
        <g
           transform="translate(636.2758,366.3989)"
           id="g4868"
           style="fill:#ffffff">
          <path
             d="m 0,0 c 0.007,-2.123 0.982,-3.594 2.368,-3.572 1.296,0 2.368,1.304 2.368,3.632 C 4.686,3.119 3.115,3.532 2.368,3.571 0.618,3.482 -0.005,1.729 0,0 M 2.368,4.061 C 4.686,4.028 6.151,2.249 6.151,0 c 0,-2.222 -1.482,-4.048 -3.783,-4.048 -2.302,0 -3.784,1.826 -3.784,4.048 0.199,4.243 3.784,4.061 3.784,4.061"
             id="path4870"
             style="fill:#ffffff;fill-opacity:1;fill-rule:evenodd;stroke:none" />
        </g>
        <g
           transform="translate(655.0784,369.8392)"
           id="g4872"
           style="fill:#ffffff">
          <path
             d="m 0,0 c 0,0 -2.305,0.109 -2.335,-3.571 0,-2.342 1.045,-3.572 2.368,-3.572 1.283,0 2.354,1.23 2.354,3.572 C 2.387,-1.23 1.283,0 0,0 m 0,0.49 c 0,0 3.767,-0.007 3.829,-4.117 0,-1.826 -0.965,-3.304 -2.553,-3.82 0.344,-0.78 1.284,-1.666 2.58,-1.746 l 0,-0.211 c -1.8,0 -3.386,0.582 -4.59,1.824 -1.879,0.358 -3.043,2.024 -3.043,4.009 0,2.237 1.468,4.043 3.777,4.061"
             id="path4874"
             style="fill:#ffffff;fill-opacity:1;fill-rule:evenodd;stroke:none" />
        </g>
        <g
           transform="translate(628.8686,445.3295)"
           id="g4876"
           style="fill:#ffffff">
          <path
             d="m 0,0 c 0,0 0.13,0.115 0.217,0.173 l 0.402,0.295 c 0.287,0.213 0.43,0.174 0.43,-0.077 0,-0.283 -0.171,-0.488 -0.213,-0.538 0.078,0.042 0.194,0.062 0.194,-0.17 0,-0.175 0.019,-0.318 0.069,-0.341 L 0.855,-0.844 C 0.82,-0.802 0.82,-0.72 0.82,-0.65 c 0,0.275 -0.05,0.356 -0.259,0.201 l -0.333,-0.252 0,-0.615 L 0,-1.486 0,0 z m 0.212,-0.078 c 0.006,-0.166 0.01,-0.337 0.013,-0.458 L 0.6,-0.252 c 0.143,0.105 0.22,0.248 0.22,0.403 0,0.189 -0.104,0.147 -0.224,0.058 L 0.212,-0.078 z"
             id="path4878"
             style="fill:#ffffff;fill-opacity:1;fill-rule:nonzero;stroke:none" />
        </g>
        <g
           transform="translate(626.4897,442.3232)"
           id="g4880"
           style="fill:#ffffff">
          <path
             d="m 0,0 -0.281,-0.145 0,1.545 c 0,0 0.108,0.068 0.23,0.128 L 0.405,1.779 C 0.66,1.914 0.823,1.883 0.823,1.624 0.823,1.469 0.749,1.318 0.622,1.187 0.796,1.233 0.889,1.136 0.889,0.931 0.889,0.687 0.734,0.412 0.366,0.211 L 0,0 z m -0.033,1.316 0.01,-0.422 0.393,0.219 c 0.116,0.062 0.209,0.186 0.209,0.325 0,0.159 -0.078,0.17 -0.209,0.101 L -0.033,1.316 z M -0.018,0.699 -0.006,0.23 0.405,0.455 c 0.147,0.082 0.236,0.217 0.236,0.372 0,0.151 -0.089,0.189 -0.236,0.108 L -0.018,0.699 z"
             id="path4882"
             style="fill:#ffffff;fill-opacity:1;fill-rule:nonzero;stroke:none" />
        </g>
        <g
           transform="translate(625.0007,442.0017)"
           id="g4884"
           style="fill:#ffffff">
          <path
             d="m 0,0 -0.123,-0.466 -0.286,-0.132 0.514,1.8 0.26,0.121 L 1.031,0.052 0.767,-0.067 0.607,0.277 0,0 z M 0.525,0.452 0.268,1.005 0.065,0.242 l 0.46,0.21 z"
             id="path4886"
             style="fill:#ffffff;fill-opacity:1;fill-rule:nonzero;stroke:none" />
        </g>
        <g
           transform="translate(617.6006,437.986)"
           id="g4888"
           style="fill:#ffffff">
          <path
             d="M 0,0 -0.155,-0.411 -0.453,-0.387 0.178,1.146 0.487,1.122 1.119,-0.496 0.813,-0.476 0.666,-0.05 C 0.48,-0.038 0.136,-0.011 0,0 M 0.58,0.197 0.329,0.887 0.081,0.231 0.58,0.197 z"
             id="path4890"
             style="fill:#ffffff;fill-opacity:1;fill-rule:nonzero;stroke:none" />
        </g>
        <g
           transform="translate(613.4626,441.5322)"
           id="g4892"
           style="fill:#ffffff">
          <path
             d="M 0,0 -0.139,-0.357 -0.418,-0.256 0.167,1.072 0.426,0.975 0.987,-0.708 0.712,-0.636 0.592,-0.235 0,0 z M 0.519,0.011 0.298,0.747 0.076,0.182 0.519,0.011 z"
             id="path4894"
             style="fill:#ffffff;fill-opacity:1;fill-rule:nonzero;stroke:none" />
        </g>
        <g
           transform="translate(628.3589,441.5665)"
           id="g4896"
           style="fill:#ffffff">
          <path
             d="m 0,0 c 0.418,0.271 0.352,0.252 0.352,0.731 l 0,0.35 C -0.278,0.67 -0.943,0.274 -1.641,-0.092 l 0,-0.965 c 0,0 0.928,0.601 1.641,1.057 m 1.01,1.527 0,-0.861 c 0,-0.658 -0.058,-0.79 -0.426,-1.037 -0.58,-0.387 -1.49,-1.015 -2.883,-1.835 l 0,1.785 C -3.13,-0.82 -4.003,-1.174 -4.917,-1.459 l -0.007,-2.613 c -1.239,-0.542 -2.992,-0.902 -4.846,-0.902 -1.854,0 -3.614,0.36 -4.852,0.902 l 0,2.614 c -0.914,0.285 -1.787,0.637 -2.615,1.035 l 0,-1.783 c -1.397,0.82 -2.307,1.448 -2.888,1.835 -0.367,0.247 -0.425,0.379 -0.425,1.037 l 0,0.863 c -0.983,0.687 -1.869,1.404 -2.652,2.091 l 0,3.797 2.988,0 c 1.212,-1.897 2.101,-3.256 2.57,-4.014 1.66,-0.949 3.442,-1.707 5.168,-2.183 0.527,-0.143 1.041,-0.264 1.545,-0.353 l 0,-2.362 c 0.379,-0.027 1.946,-0.027 2.326,0 l 0,2.362 c 0.499,0.089 1.018,0.21 1.54,0.353 1.727,0.476 3.546,1.234 5.211,2.183 0,0 1.337,2.145 2.527,4.014 L 3.661,7.415 3.665,3.62 C 2.881,2.933 1.992,2.214 1.01,1.527 m -20.902,-0.443 0,-0.353 c 0,-0.479 -0.062,-0.46 0.356,-0.731 l 1.637,-1.057 0,0.966 c -0.699,0.367 -1.364,0.763 -1.993,1.175 M 3.015,6.426 C 0.584,3.488 -4.274,1.08 -7.761,0.368 l 2.23,-1.34 c 0,0 2.691,0.835 4.729,2.097 2.903,1.797 3.817,2.873 3.817,2.873 l 0,2.428 z M -0.57,4.202 C -0.031,4.557 0.386,4.85 0.386,4.85 L 0.348,5.69 -0.57,4.202 z M -1.796,3.437 z M -18.99,4.27 c -0.259,0.421 -0.519,0.817 -0.898,1.42 l 0,-0.84 c 0.297,-0.224 0.898,-0.58 0.898,-0.58 m -3.555,2.147 -0.006,-2.511 c 2.457,-1.989 5.147,-3.944 8.542,-4.878 l 2.234,1.34 c -3.488,0.712 -8.34,3.115 -10.77,6.049 m 8.59,-8.08 0,-1.949 c 1.123,-0.487 2.59,-0.704 4.185,-0.704 1.598,0 3.061,0.217 4.184,0.704 l 0,1.947 c -1.316,-0.348 -2.713,-0.541 -4.184,-0.541 -2.135,-0.008 -4.179,0.541 -4.181,0.541 l -0.004,0.002 z"
             id="path4898"
             style="fill:#ffffff;fill-opacity:1;fill-rule:nonzero;stroke:none" />
        </g>
        <g
           transform="translate(618.6359,443.0497)"
           id="g4900"
           style="fill:#ffffff">
          <path
             d="m 0,0 c -5.699,1.522 -10.451,6.413 -10.451,11.522 l 0,12.361 20.902,0 0,-12.361 C 10.451,6.413 5.699,1.522 0,0 m -9.783,23.215 0,-11.708 c 0,-4.519 4.084,-9.131 9.783,-10.84 5.684,1.709 9.767,6.321 9.767,10.84 l 0,11.708 -19.55,0 z"
             id="path4902"
             style="fill:#ffffff;fill-opacity:1;fill-rule:nonzero;stroke:none" />
        </g>
        <g
           transform="translate(612.6694,441.439)"
           id="g4904"
           style="fill:#ffffff">
          <path
             d="m 0,0 0.267,-0.105 0,1.526 L 0,1.537 0,0 z"
             id="path4906"
             style="fill:#ffffff;fill-opacity:1;fill-rule:nonzero;stroke:none" />
        </g>
        <g
           transform="translate(611.3376,443.3548)"
           id="g4908"
           style="fill:#ffffff">
          <path
             d="m 0,0 0.41,-0.197 0,-1.312 0.264,-0.128 0,1.293 0.433,-0.178 0,0.232 L 0,0.236 0,0 z"
             id="path4910"
             style="fill:#ffffff;fill-opacity:1;fill-rule:evenodd;stroke:none" />
        </g>
        <g
           transform="translate(610.0099,442.7748)"
           id="g4912"
           style="fill:#ffffff">
          <path
             d="m 0,0 0.24,-0.144 0,1.139 0.008,-0.004 0.588,-1.479 0.244,-0.139 0,1.564 -0.217,0.123 0,-1.153 L 0.855,-0.089 0.267,1.389 0,1.544 0,0 z"
             id="path4914"
             style="fill:#ffffff;fill-opacity:1;fill-rule:nonzero;stroke:none" />
        </g>
        <g
           transform="translate(608.8142,443.5135)"
           id="g4916"
           style="fill:#ffffff">
          <path
             d="m 0,0 0.94,-0.604 0,0.237 -0.712,0.456 0,0.453 0.646,-0.414 0,0.22 -0.646,0.415 0,0.406 0.701,-0.448 0,0.231 L 0,1.544 0,0 z"
             id="path4918"
             style="fill:#ffffff;fill-opacity:1;fill-rule:evenodd;stroke:none" />
        </g>
        <g
           transform="translate(608.3533,443.839)"
           id="g4920"
           style="fill:#ffffff">
          <path
             d="m 0,0 0.244,-0.159 0,1.518 L 0,1.517 0,0 z"
             id="path4922"
             style="fill:#ffffff;fill-opacity:1;fill-rule:nonzero;stroke:none" />
        </g>
        <g
           transform="translate(608.1212,445.0971)"
           id="g4924"
           style="fill:#ffffff">
          <path
             d="m 0,0 c -0.023,0.344 -0.228,0.666 -0.488,0.828 -0.341,0.213 -0.546,-0.027 -0.546,-0.472 0,-0.441 0.205,-0.933 0.546,-1.146 0.279,-0.17 0.472,-0.039 0.488,0.325 l -0.194,0.121 c -0.015,-0.217 -0.116,-0.337 -0.294,-0.225 -0.244,0.151 -0.348,0.507 -0.348,0.801 0,0.298 0.104,0.526 0.348,0.376 0.171,-0.101 0.256,-0.287 0.286,-0.484 L 0,0 z"
             id="path4926"
             style="fill:#ffffff;fill-opacity:1;fill-rule:nonzero;stroke:none" />
        </g>
        <g
           transform="translate(606.0695,446.0919)"
           id="g4928"
           style="fill:#ffffff">
          <path
             d="m 0,0 c 0.004,-0.383 0.205,-0.693 0.449,-0.863 0.213,-0.147 0.426,-0.159 0.426,0.186 0,0.162 -0.066,0.383 -0.209,0.538 C 0.612,-0.074 0.375,0.178 0.36,0.197 0.283,0.282 0.232,0.38 0.232,0.488 0.232,0.643 0.341,0.612 0.426,0.55 0.557,0.461 0.651,0.325 0.658,0.116 L 0.844,-0.011 C 0.844,0.31 0.658,0.612 0.434,0.767 0.24,0.902 0.043,0.89 0.043,0.581 0.043,0.425 0.097,0.224 0.279,0.027 0.426,-0.132 0.527,-0.232 0.6,-0.321 0.643,-0.375 0.689,-0.456 0.689,-0.573 0.689,-0.693 0.627,-0.766 0.461,-0.65 0.31,-0.546 0.19,-0.368 0.19,-0.132 L 0,0 z"
             id="path4930"
             style="fill:#ffffff;fill-opacity:1;fill-rule:nonzero;stroke:none" />
        </g>
        <g
           transform="translate(620.2368,438.6593)"
           id="g4932"
           style="fill:#ffffff">
          <path
             d="m 0,0 c -0.039,0.341 -0.333,0.519 -0.705,0.5 -0.487,-0.027 -0.774,-0.418 -0.766,-0.871 0.008,-0.449 0.306,-0.809 0.793,-0.778 0.399,0.023 0.67,0.297 0.689,0.677 l -0.278,-0.016 c -0.02,-0.228 -0.159,-0.422 -0.414,-0.437 -0.349,-0.023 -0.5,0.271 -0.504,0.569 -0.007,0.302 0.136,0.612 0.484,0.631 0.24,0.015 0.364,-0.112 0.414,-0.291 L 0,0 z"
             id="path4934"
             style="fill:#ffffff;fill-opacity:1;fill-rule:nonzero;stroke:none" />
        </g>
        <g
           transform="translate(630.1416,444.8027)"
           id="g4936"
           style="fill:#ffffff">
          <path
             d="m 0,0 0.821,0.732 0,0.228 -0.623,-0.558 0,0.438 0.565,0.503 0,0.214 -0.565,-0.507 0,0.39 0.611,0.549 0,0.221 L 0,1.486 0,0 z"
             id="path4938"
             style="fill:#ffffff;fill-opacity:1;fill-rule:evenodd;stroke:none" />
        </g>
        <g
           transform="translate(623.3334,440.9391)"
           id="g4940"
           style="fill:#ffffff">
          <path
             d="m 0,0 1.091,0.403 0,0.236 -0.813,-0.294 0,1.312 L 0,1.545 0,0 z"
             id="path4942"
             style="fill:#ffffff;fill-opacity:1;fill-rule:evenodd;stroke:none" />
        </g>
        <g
           transform="translate(627.5137,443.5061)"
           id="g4944"
           style="fill:#ffffff">
          <path
             d="m 0,0 c -0.073,0.375 0.085,0.883 0.449,1.22 0.368,0.336 0.646,0.231 0.72,-0.14 0,0 0.156,-0.613 -0.453,-1.216 C 0.354,-0.446 0.07,-0.368 0,0 M 0.956,0.883 C 0.906,1.13 0.751,1.278 0.488,1.033 0.224,0.793 0.167,0.449 0.213,0.201 0.26,-0.047 0.407,-0.182 0.678,0.047 1.092,0.506 0.956,0.883 0.956,0.883"
             id="path4946"
             style="fill:#ffffff;fill-opacity:1;fill-rule:evenodd;stroke:none" />
        </g>
        <g
           transform="translate(613.1982,457.4314)"
           id="g4948"
           style="fill:#ffffff">
          <path
             d="m 0,0 c 0,-0.101 0.073,-0.182 0.166,-0.182 0.093,0 0.171,0.081 0.171,0.182 l 0,0.027 L 0,0.027 0,0 z M 0.166,0.515 C 0.073,0.515 0,0.434 0,0.333 l 0,-0.012 0.337,0 c 0,0.113 -0.078,0.194 -0.171,0.194 m 0,-2.19 C 0.073,-1.675 0,-1.756 0,-1.857 l 0,-0.011 0.337,0 c 0,0.112 -0.078,0.193 -0.171,0.193 m 10.503,1.422 -1.449,0 0,0.806 1.372,0.001 c 0.357,0 0.59,-0.062 0.59,-0.357 0,-0.341 -0.187,-0.45 -0.513,-0.45 m 0,-2.189 -1.449,0 0,0.806 1.372,10e-4 c 0.357,0 0.59,-0.062 0.59,-0.357 0,-0.342 -0.187,-0.45 -0.513,-0.45 m -2.096,-0.653 -2.018,0 c -0.482,0 -0.42,-0.264 -1.119,-0.264 -0.714,0 -0.652,0.264 -1.118,0.264 l -2.018,0 0,3.991 0.279,0.186 0,-3.851 1.569,0 c 0.9,0 0.652,-0.264 1.288,-0.264 0.621,0 0.389,0.264 1.289,0.264 l 1.569,0 0,3.851 0.279,-0.186 0,-3.991 z m -6.938,2.842 -1.044,0 c -0.077,-0.14 -0.248,-0.233 -0.419,-0.233 -0.263,0 -0.481,0.202 -0.481,0.466 l 0,0.047 -0.078,0 c -0.093,0 -0.155,0.062 -0.155,0.155 0,0.077 0.062,0.139 0.155,0.139 l 0.078,0 0,0.047 c 0,0.249 0.218,0.466 0.481,0.466 0.187,0 0.357,-0.124 0.419,-0.295 L 1.644,0.553 1.635,-0.253 z m 0,-2.189 -1.044,0 c -0.077,-0.14 -0.248,-0.233 -0.419,-0.233 -0.263,0 -0.481,0.201 -0.481,0.465 l 0,0.047 -0.078,0 c -0.093,0 -0.155,0.062 -0.155,0.155 0,0.078 0.062,0.14 0.155,0.14 l 0.078,0 0,0.047 c 0,0.248 0.218,0.465 0.481,0.465 0.187,0 0.357,-0.124 0.419,-0.295 l 1.053,0.015 -0.009,-0.806 z m 1.441,3.524 c 0.544,0 0.544,0.14 1.164,0.14 0.591,0 0.948,-0.388 0.948,-0.776 l 0,-2.92 c -0.326,0.187 -0.559,0.202 -1.025,0.202 l -1.087,0 0,3.354 z M 5.685,0.446 c 0,0.388 0.357,0.776 0.947,0.776 0.621,0 0.621,-0.14 1.165,-0.14 l 0,-3.354 -1.087,0 c -0.466,0 -0.715,-0.015 -1.025,-0.202 l 0,2.92 z m -7.716,-7.979 c 0.361,1.066 0.834,1.871 1.442,2.478 l 0.002,0 C 0.266,-4.21 1.386,-3.76 2.844,-3.543 2.759,-4.091 2.641,-4.593 2.482,-5.052 l 0,0 C 1.922,-6.667 0.846,-7.738 -1.162,-8.404 l 13.184,0 c -1.997,0.666 -3.069,1.737 -3.629,3.351 l 0,0.001 c -0.159,0.459 -0.277,0.96 -0.362,1.509 1.453,-0.225 2.57,-0.671 3.418,-1.51 l 0.002,0 c 0.611,-0.602 1.083,-1.408 1.441,-2.48 l 0,13.183 C 12.037,3.088 10.531,2.032 8.031,1.644 8.419,4.144 9.46,5.65 12.022,6.52 l -13.184,0 C 1.416,5.65 2.456,4.144 2.844,1.644 0.345,2.032 -1.162,3.088 -2.031,5.65 l 0,-13.183 z M 0,-2.189 c 0,-0.101 0.073,-0.183 0.166,-0.183 0.093,0 0.171,0.082 0.171,0.183 l 0,0.026 -0.337,0 0,-0.026 z"
             id="path4950"
             style="fill:#ffffff;fill-opacity:1;fill-rule:evenodd;stroke:none" />
        </g>
        <g
           transform="translate(636.3897,437.1958)"
           id="g4952"
           style="fill:#ffffff">
          <path
             d="m 0,0 c 0.118,0.013 0.226,0.034 0.303,0.134 0.061,0.077 0.17,0.299 0.33,0.674 l 1.07,2.519 0.167,0 1.276,-2.905 C 3.231,0.229 3.293,0.121 3.334,0.083 3.401,0.025 3.521,0.011 3.606,-0.001 l 0,-0.189 -1.393,0 0,0.191 c 0.1,0.009 0.224,0.007 0.317,0.047 0.015,0.007 0.034,0.026 0.034,0.094 0,0.076 -0.06,0.238 -0.09,0.308 l -0.197,0.456 -1.257,0 C 0.896,0.595 0.822,0.404 0.797,0.332 0.772,0.262 0.762,0.21 0.762,0.176 0.762,0.107 0.788,0.068 0.836,0.045 0.899,0.016 1.037,0.007 1.109,0.002 l 0,-0.192 L 0,-0.19 0,0 z m 1.654,2.425 -0.502,-1.209 1.009,0 -0.507,1.209 z"
             id="path4954"
             style="fill:#ffffff;fill-opacity:1;fill-rule:evenodd;stroke:none" />
        </g>
        <g
           transform="translate(643.6141,440.2683)"
           id="g4956"
           style="fill:#ffffff">
          <path
             d="m 0,0 c -0.096,-0.007 -0.319,-0.019 -0.395,-0.089 -0.039,-0.034 -0.07,-0.129 -0.07,-0.318 l 0,-1.621 c 0,-0.262 0.036,-0.46 0.103,-0.598 0.124,-0.248 0.359,-0.377 0.723,-0.377 0.761,0 0.901,0.445 0.901,1.081 l 0,1.32 c 0,0.28 -0.036,0.429 -0.085,0.482 -0.086,0.092 -0.275,0.11 -0.39,0.122 l 0,0.193 1.277,0 0,-0.192 C 1.954,-0.01 1.745,-0.031 1.666,-0.128 1.62,-0.184 1.589,-0.333 1.589,-0.602 l 0,-1.32 c 0,-0.353 -0.054,-0.636 -0.167,-0.843 -0.21,-0.384 -0.609,-0.569 -1.175,-0.569 -0.559,0 -0.954,0.182 -1.163,0.561 -0.114,0.202 -0.168,0.464 -0.168,0.783 l 0,1.583 c 0,0.187 -0.031,0.282 -0.07,0.316 -0.074,0.07 -0.293,0.084 -0.388,0.092 l 0,0.194 L 0,0.195 0,0 z"
             id="path4958"
             style="fill:#ffffff;fill-opacity:1;fill-rule:nonzero;stroke:none" />
        </g>
        <g
           transform="translate(648.4106,437.5664)"
           id="g4960"
           style="fill:#ffffff">
          <path
             d="m 0,0 c 0.192,-0.225 0.428,-0.335 0.71,-0.335 0.15,0 0.277,0.047 0.384,0.14 0.106,0.091 0.161,0.219 0.161,0.389 0,0.151 -0.054,0.281 -0.164,0.394 -0.176,0.177 -0.714,0.488 -0.913,0.611 -0.134,0.084 -0.241,0.171 -0.323,0.26 -0.151,0.168 -0.229,0.357 -0.229,0.564 0,0.573 0.423,0.946 0.983,0.946 0.124,0 0.268,-0.031 0.433,-0.09 0.169,-0.058 0.25,-0.081 0.262,-0.081 0.057,0 0.08,0.014 0.089,0.025 0.034,0.041 0.044,0.096 0.056,0.146 l 0.192,0 0.122,-1.183 -0.219,0 C 1.48,2.036 1.38,2.317 1.156,2.475 0.98,2.6 0.811,2.659 0.646,2.659 0.4,2.659 0.181,2.513 0.181,2.248 0.181,2.129 0.217,2.03 0.287,1.948 0.361,1.86 0.48,1.764 0.644,1.664 L 1.089,1.389 C 1.37,1.216 1.572,1.055 1.692,0.905 1.811,0.749 1.871,0.566 1.871,0.357 c 0,-0.28 -0.108,-0.517 -0.319,-0.704 -0.211,-0.188 -0.48,-0.28 -0.802,-0.28 -0.163,0 -0.334,0.031 -0.51,0.091 -0.176,0.062 -0.261,0.087 -0.275,0.087 -0.049,0 -0.067,-0.014 -0.076,-0.029 -0.026,-0.046 -0.032,-0.09 -0.04,-0.142 l -0.201,0 -0.165,1.183 0.212,0 C -0.23,0.363 -0.14,0.164 0,0"
             id="path4962"
             style="fill:#ffffff;fill-opacity:1;fill-rule:nonzero;stroke:none" />
        </g>
        <g
           transform="translate(655.6011,440.463)"
           id="g4964"
           style="fill:#ffffff">
          <path
             d="m 0,0 0.031,-0.965 -0.217,0 c -0.031,0.14 -0.095,0.43 -0.221,0.54 -0.074,0.068 -0.247,0.111 -0.542,0.111 l -0.23,0 0,-2.542 c 0,-0.199 0.033,-0.295 0.072,-0.325 0.083,-0.062 0.323,-0.077 0.421,-0.085 l 0,-0.191 -1.582,0 0,0.191 c 0.422,0.033 0.48,0.035 0.48,0.47 l 0,2.482 -0.229,0 c -0.28,0 -0.455,-0.041 -0.542,-0.111 -0.135,-0.108 -0.19,-0.395 -0.217,-0.54 l -0.221,0 L -2.964,0 0,0 z"
             id="path4966"
             style="fill:#ffffff;fill-opacity:1;fill-rule:nonzero;stroke:none" />
        </g>
        <g
           transform="translate(658.0927,437.2964)"
           id="g4968"
           style="fill:#ffffff">
          <path
             d="m 0,0 c 0.034,0.041 0.059,0.155 0.059,0.371 l 0,2.194 c 0,0.18 -0.028,0.275 -0.066,0.313 -0.069,0.073 -0.278,0.087 -0.369,0.095 l 0,0.194 1.455,0 C 1.375,3.167 1.625,3.129 1.827,3.052 2.216,2.905 2.416,2.628 2.416,2.229 2.416,1.964 2.328,1.754 2.149,1.607 1.994,1.479 1.792,1.392 1.545,1.344 L 2.533,0.128 C 2.673,-0.043 2.77,-0.079 2.985,-0.1 l 0,-0.19 -0.894,0 -1.207,1.557 -0.205,-0.009 0,-0.947 c 0,-0.191 0.029,-0.286 0.066,-0.32 0.077,-0.066 0.297,-0.083 0.391,-0.09 l 0,-0.191 -1.512,0 0,0.19 C -0.29,-0.092 -0.061,-0.074 0,0 M 1.76,2.234 C 1.76,2.51 1.649,2.69 1.429,2.788 1.31,2.841 1.147,2.87 0.938,2.87 0.789,2.87 0.719,2.857 0.702,2.846 0.695,2.842 0.679,2.821 0.679,2.746 l 0,-1.196 c 0.335,0.015 0.57,0.052 0.71,0.108 0.248,0.102 0.371,0.29 0.371,0.576"
             id="path4970"
             style="fill:#ffffff;fill-opacity:1;fill-rule:evenodd;stroke:none" />
        </g>
        <g
           transform="translate(662.9394,437.1958)"
           id="g4972"
           style="fill:#ffffff">
          <path
             d="m 0,0 c 0.117,0.013 0.226,0.034 0.303,0.134 0.061,0.077 0.17,0.299 0.33,0.674 l 1.07,2.519 0.168,0 1.275,-2.905 C 3.231,0.229 3.293,0.121 3.333,0.083 3.401,0.025 3.521,0.011 3.606,-0.001 l 0,-0.189 -1.394,0 0,0.191 c 0.1,0.009 0.225,0.007 0.318,0.047 0.015,0.007 0.034,0.026 0.035,0.094 0,0.076 -0.062,0.238 -0.091,0.308 l -0.197,0.456 -1.257,0 C 0.896,0.595 0.822,0.404 0.796,0.332 0.773,0.262 0.762,0.21 0.762,0.176 0.762,0.107 0.788,0.068 0.837,0.045 0.899,0.016 1.037,0.007 1.109,0.002 l 0,-0.192 L 0,-0.19 0,0 z m 1.654,2.425 -0.502,-1.209 1.01,0 -0.508,1.209 z"
             id="path4974"
             style="fill:#ffffff;fill-opacity:1;fill-rule:evenodd;stroke:none" />
        </g>
        <g
           transform="translate(668.989,437.2883)"
           id="g4976"
           style="fill:#ffffff">
          <path
             d="m 0,0 c 0.035,0.03 0.066,0.124 0.066,0.319 l 0,2.254 c 0,0.181 -0.029,0.278 -0.067,0.315 -0.071,0.073 -0.285,0.086 -0.378,0.092 l 0,0.195 1.536,0 0,-0.196 C 1.053,2.974 0.849,2.965 0.762,2.897 0.719,2.862 0.687,2.776 0.687,2.608 l 0,-2.435 C 0.687,0.122 0.694,0.088 0.707,0.065 0.714,0.055 0.734,0.039 0.794,0.032 L 0.91,0.022 1.146,0.02 c 0.451,0 0.744,0.037 0.89,0.106 0.208,0.097 0.363,0.394 0.45,0.574 l 0.23,0 -0.277,-0.982 -2.818,0 0,0.19 C -0.289,-0.083 -0.073,-0.062 0,0"
             id="path4978"
             style="fill:#ffffff;fill-opacity:1;fill-rule:nonzero;stroke:none" />
        </g>
        <g
           transform="translate(674.1787,437.2825)"
           id="g4980"
           style="fill:#ffffff">
          <path
             d="m 0,0 c 0.039,0.029 0.071,0.125 0.071,0.325 l 0,2.254 c 0,0.188 -0.032,0.284 -0.074,0.32 -0.081,0.072 -0.319,0.081 -0.418,0.086 l 0,0.196 1.603,0 0,-0.196 C 1.083,2.98 0.845,2.971 0.764,2.899 0.722,2.863 0.69,2.767 0.69,2.579 l 0,-2.254 C 0.69,0.125 0.722,0.029 0.761,0 0.844,-0.063 1.086,-0.078 1.182,-0.085 l 0,-0.191 -1.603,0 0,0.191 C -0.324,-0.078 -0.083,-0.063 0,0"
             id="path4982"
             style="fill:#ffffff;fill-opacity:1;fill-rule:nonzero;stroke:none" />
        </g>
        <g
           transform="translate(677.4657,437.1958)"
           id="g4984"
           style="fill:#ffffff">
          <path
             d="m 0,0 c 0.117,0.013 0.225,0.034 0.302,0.134 0.061,0.077 0.171,0.299 0.33,0.674 l 1.071,2.519 0.167,0 1.275,-2.905 C 3.23,0.229 3.293,0.121 3.333,0.083 3.4,0.025 3.52,0.011 3.605,-0.001 l 0,-0.189 -1.393,0 0,0.191 c 0.1,0.009 0.225,0.007 0.318,0.047 0.015,0.007 0.034,0.026 0.034,0.094 0,0.076 -0.061,0.238 -0.091,0.308 l -0.196,0.456 -1.257,0 C 0.896,0.595 0.821,0.404 0.796,0.332 0.771,0.262 0.762,0.21 0.762,0.176 0.762,0.107 0.787,0.068 0.836,0.045 0.899,0.016 1.036,0.007 1.108,0.002 l 0,-0.192 L 0,-0.19 0,0 z m 1.653,2.425 -0.501,-1.209 1.009,0 -0.508,1.209 z"
             id="path4986"
             style="fill:#ffffff;fill-opacity:1;fill-rule:evenodd;stroke:none" />
        </g>
        <g
           transform="translate(692.7354,462.5512)"
           id="g4988"
           style="fill:#ffffff">
          <path
             d="M 0,0 C 0.007,-0.714 -0.581,-1.336 -1.428,-1.587 L 0.41,-3.994 c 0.186,-0.212 0.357,-0.464 0.609,-0.464 l 0.04,0 0,-0.171 -1.429,0 -2.209,2.909 -0.41,0 0,-2.076 c 0,-0.423 0.172,-0.662 0.582,-0.662 l 0.04,0 0,-0.171 -2.275,0 0,0.171 0.066,0 c 0.397,0 0.569,0.239 0.569,0.662 l 0,4.643 c 0,0.409 -0.172,0.661 -0.569,0.661 l -0.066,0 0,0.172 1.653,0 C -0.555,1.812 -0.01,1.002 0,0 m -2.989,1.167 0,-2.49 0.529,0 c 0.768,0 1.376,0.609 1.376,1.323 0,0.714 -0.608,1.27 -1.376,1.27 0,0 -0.247,0.03 -0.529,-0.103"
             id="path4990"
             style="fill:#ffffff;fill-opacity:1;fill-rule:evenodd;stroke:none" />
        </g>
        <g
           transform="translate(639.9398,457.9481)"
           id="g4992"
           style="fill:#ffffff">
          <path
             d="m 0,0 0,0.225 -0.357,0 c -0.384,0 -0.701,0.357 -0.701,0.754 l 0,6.349 1.468,0 c 0.608,0 0.979,-0.45 1.018,-1.336 l 0.199,0 -0.08,1.905 c 0,0.026 -0.039,0.066 -0.052,0.066 l -6.442,0 c 0,0 -0.053,-0.04 -0.053,-0.066 l -0.08,-1.905 0.212,0 c 0.04,0.886 0.41,1.336 1.019,1.336 l 1.468,0 0,-6.349 c 0,-0.397 -0.317,-0.754 -0.714,-0.754 l -0.371,0 L -3.466,0 0,0 z"
             id="path4994"
             style="fill:#ffffff;fill-opacity:1;fill-rule:nonzero;stroke:none" />
        </g>
        <g
           transform="translate(664.2047,465.1304)"
           id="g4996"
           style="fill:#ffffff">
          <path
             d="m 0,0 c 0,0.384 -0.225,0.556 -0.529,0.556 l -0.304,0 0,0.238 2.288,0 0,-0.238 -0.264,0 C 0.846,0.556 0.648,0.384 0.648,0 l 0,-4.629 c 0,-1.495 -1.151,-2.646 -3.042,-2.646 -1.891,0 -3.135,1.177 -3.135,2.778 l 0,4.312 c 0,0.383 -0.304,0.741 -0.714,0.741 l -0.093,0 0,0.238 2.937,0 0,-0.238 -0.107,0 c -0.396,0 -0.714,-0.358 -0.714,-0.741 l 0,-4.352 c 0,-1.164 0.728,-2.103 1.944,-2.103 1.165,0 2.276,0.701 2.276,2.011 L 0,0 z"
             id="path4998"
             style="fill:#ffffff;fill-opacity:1;fill-rule:nonzero;stroke:none" />
        </g>
        <g
           transform="translate(646.5001,460.9507)"
           id="g5000"
           style="fill:#ffffff">
          <path
             d="m 0,0 -2.698,0 0,-2.169 c 0,-0.424 0.172,-0.662 0.569,-0.662 l 0.039,0 0,-0.172 -2.261,0 0,0.172 0.039,0 c 0.437,0 0.569,0.238 0.569,0.662 l 0,4.642 c 0,0.411 -0.132,0.662 -0.569,0.662 l -0.039,0 0,0.172 2.261,0 0,-0.172 -0.039,0 c -0.397,0 -0.569,-0.251 -0.569,-0.662 l 0,-2.023 2.698,0 0,2.023 c 0,0.411 -0.172,0.662 -0.595,0.662 l -0.04,0 0,0.172 2.289,0 0,-0.172 -0.066,0 c -0.41,0 -0.569,-0.251 -0.569,-0.662 l 0,-4.642 c 0,-0.424 0.159,-0.662 0.569,-0.662 l 0.066,0 0,-0.172 -2.289,0 0,0.172 0.04,0 C -0.172,-2.831 0,-2.593 0,-2.169 L 0,0 z"
             id="path5002"
             style="fill:#ffffff;fill-opacity:1;fill-rule:nonzero;stroke:none" />
        </g>
        <g
           transform="translate(650.5479,461.0566)"
           id="g5004"
           style="fill:#ffffff">
          <path
             d="m 0,0 0,-2.328 c 0,-0.185 0.146,-0.317 0.317,-0.317 l 1.588,0 c 0.873,0 1.269,0.515 1.481,1.23 l 0.185,0 -0.529,-1.694 -4.696,0 0,0.173 0.04,0 c 0.41,0 0.582,0.238 0.582,0.661 l 0,4.643 c 0,0.41 -0.172,0.661 -0.582,0.661 l -0.04,0 0,0.172 4.551,0 0.106,-1.442 -0.159,0 C 2.804,2.421 2.434,2.778 1.958,2.778 l -1.958,0 0,-2.302 1.825,0 c 0.305,0 0.45,0.331 0.45,0.595 l 0,0.04 0.186,0 0,-1.746 -0.186,0 0,0.04 C 2.275,-0.304 2.13,0 1.825,0 L 0,0 z"
             id="path5006"
             style="fill:#ffffff;fill-opacity:1;fill-rule:nonzero;stroke:none" />
        </g>
        <g
           transform="translate(674.6675,458.7813)"
           id="g5008"
           style="fill:#ffffff">
          <path
             d="m 0,0 c 0,-0.423 0.173,-0.661 0.582,-0.661 l 0.027,0 0,-0.172 -2.249,0 0,0.172 0.026,0 c 0.437,0 0.609,0.238 0.609,0.661 l 0,4.643 c 0,0.41 -0.172,0.661 -0.609,0.661 l -0.026,0 0,0.172 2.249,0 0,-0.172 -0.027,0 C 0.173,5.304 0,5.053 0,4.643 L 0,0 z"
             id="path5010"
             style="fill:#ffffff;fill-opacity:1;fill-rule:nonzero;stroke:none" />
        </g>
        <g
           transform="translate(679.2047,457.9879)"
           id="g5012"
           style="fill:#ffffff">
          <path
             d="m 0,0 2.183,5.542 c 0.172,0.357 0.33,0.556 0.581,0.556 l 0,0.172 -1.455,0 0,-0.172 0.093,0 c 0.185,0 0.384,-0.186 0.304,-0.424 L 0.145,1.786 -1.561,5.674 c -0.093,0.238 0.119,0.424 0.278,0.424 l 0.211,0 0,0.172 -2.142,0 0,-0.172 c 0.251,0 0.423,-0.186 0.582,-0.529 L -0.225,0 C -0.172,-0.066 -0.054,-0.093 0,0"
             id="path5014"
             style="fill:#ffffff;fill-opacity:1;fill-rule:nonzero;stroke:none" />
        </g>
        <g
           transform="translate(684.3236,461.0566)"
           id="g5016"
           style="fill:#ffffff">
          <path
             d="m 0,0 0,-2.328 c 0,-0.185 0.145,-0.317 0.317,-0.317 l 1.587,0 c 0.86,0 1.257,0.515 1.482,1.23 l 0.185,0 -0.542,-1.694 -4.683,0 0,0.173 0.04,0 c 0.41,0 0.569,0.238 0.569,0.661 l 0,4.643 c 0,0.41 -0.159,0.661 -0.569,0.661 l -0.04,0 0,0.172 4.537,0 0.119,-1.442 -0.158,0 C 2.804,2.421 2.42,2.778 1.957,2.778 l -1.957,0 0,-2.302 1.812,0 c 0.317,0 0.463,0.331 0.463,0.595 l 0,0.04 0.185,0 0,-1.746 -0.185,0 0,0.04 C 2.275,-0.304 2.129,0 1.812,0 L 0,0 z"
             id="path5018"
             style="fill:#ffffff;fill-opacity:1;fill-rule:nonzero;stroke:none" />
        </g>
        <g
           transform="translate(694.4555,460.091)"
           id="g5020"
           style="fill:#ffffff">
          <path
             d="m 0,0 -0.186,0 0,-2.143 0.186,0 c 0.079,0.278 0.318,0.41 0.542,0.278 0.768,-0.41 1.72,-0.476 2.381,0.04 0.635,0.463 0.913,1.375 0.516,2.09 C 3.068,0.966 2.077,1.508 1.31,1.905 0.423,2.407 0.397,3.254 1.071,3.69 1.892,4.167 3.109,3.333 3.109,2.129 l 0.158,0 0,2.038 -0.158,0 C 3.056,3.862 2.831,3.836 2.513,3.968 1.64,4.365 0.925,4.352 0.318,3.796 -0.37,3.161 -0.529,1.878 0.595,1.19 1.27,0.767 2.183,0.291 2.513,-0.159 2.818,-0.569 2.87,-1.058 2.289,-1.561 1.441,-2.302 0,-1.402 0,0"
             id="path5022"
             style="fill:#ffffff;fill-opacity:1;fill-rule:nonzero;stroke:none" />
        </g>
        <g
           transform="translate(667.5118,464.2576)"
           id="g5024"
           style="fill:#ffffff">
          <path
             d="m 0,0 -1.614,0 0,-0.172 c 0.265,0 0.436,-0.026 0.569,-0.185 0.145,-0.159 0.238,-0.278 0.423,-0.49 l 0,-4.814 c 0,-0.304 -0.278,-0.463 -0.556,-0.463 l -0.066,0 0,-0.185 1.759,0 0,0.185 -0.039,0 c -0.292,0 -0.582,0.159 -0.582,0.463 l 0,4.18 4.167,-4.828 0.132,0 0,5.661 c 0,0.317 0.291,0.476 0.569,0.476 l 0.039,0 0,0.172 -1.746,0 0,-0.172 0.054,0 c 0.277,0 0.555,-0.159 0.555,-0.476 l 0,-3.598 L 0,0 z"
             id="path5026"
             style="fill:#ffffff;fill-opacity:1;fill-rule:nonzero;stroke:none" />
        </g>
        <g
           transform="translate(700.3418,458.7813)"
           id="g5028"
           style="fill:#ffffff">
          <path
             d="m 0,0 c 0,-0.423 0.172,-0.661 0.582,-0.661 l 0.04,0 0,-0.172 -2.276,0 0,0.172 0.067,0 c 0.409,0 0.568,0.238 0.568,0.661 l 0,4.643 c 0,0.41 -0.159,0.661 -0.568,0.661 l -0.067,0 0,0.172 2.276,0 0,-0.172 -0.04,0 C 0.172,5.304 0,5.053 0,4.643 L 0,0 z"
             id="path5030"
             style="fill:#ffffff;fill-opacity:1;fill-rule:nonzero;stroke:none" />
        </g>
        <g
           transform="translate(710.0369,460.6333)"
           id="g5032"
           style="fill:#ffffff">
          <path
             d="m 0,0 -1.931,2.95 c -0.198,0.37 -0.41,0.502 -0.661,0.502 l 0,0.185 2.236,0 0,-0.185 -0.146,0 c -0.185,0 -0.358,-0.225 -0.238,-0.463 l 1.587,-2.42 1.442,2.46 C 2.394,3.201 2.262,3.452 2.09,3.452 l -0.159,0 0,0.185 1.548,0 0,-0.185 c -0.277,0 -0.53,-0.185 -0.714,-0.476 l -1.72,-2.936 0,-1.905 c 0,-0.437 0.172,-0.648 0.596,-0.648 l 0.039,0 0,-0.172 -2.302,0 0,0.172 0.04,0 C -0.159,-2.513 0,-2.275 0,-1.839 L 0,0 z"
             id="path5034"
             style="fill:#ffffff;fill-opacity:1;fill-rule:nonzero;stroke:none" />
        </g>
        <g
           transform="translate(704.8651,458.7419)"
           id="g5036"
           style="fill:#ffffff">
          <path
             d="m 0,0 c 0,-0.423 0.172,-0.622 0.582,-0.622 l 0.027,0 0,-0.172 -2.249,0 0,0.172 0.026,0 c 0.41,0 0.609,0.199 0.609,0.622 l 0,5.04 -1.27,0 c -0.476,0 -0.754,-0.331 -0.794,-1.019 l -0.145,0 0.053,1.455 c 0,0.013 0.026,0.04 0.039,0.04 l 5.212,0 c 0.014,0 0.04,-0.027 0.04,-0.04 l 0.066,-1.455 -0.159,0 C 1.997,4.709 1.745,5.04 1.256,5.04 L 0,5.04 0,0 z"
             id="path5038"
             style="fill:#ffffff;fill-opacity:1;fill-rule:nonzero;stroke:none" />
        </g>
        <g
           transform="translate(644.6884,447.0751)"
           id="g5040"
           style="fill:#ffffff">
          <path
             d="m 0,0 c 0,-0.423 0.172,-0.648 0.569,-0.648 l 0.066,0 0,-0.159 -2.275,0 0,0.159 0.04,0 c 0.422,0 0.582,0.251 0.582,0.662 l 0,4.629 c 0,0.423 -0.16,0.688 -0.582,0.688 l -0.04,0 0,0.172 4.828,0 0.105,-1.455 -0.145,0 C 3.108,4.696 2.725,5.066 2.262,5.066 l -2.262,0 0,-2.288 1.839,0 c 0.317,0 0.449,0.291 0.449,0.596 l 0,0.039 0.172,0 0,-1.746 -0.172,0 0,0.026 c 0,0.305 -0.132,0.609 -0.449,0.609 L 0,2.302 0,0 z"
             id="path5042"
             style="fill:#ffffff;fill-opacity:1;fill-rule:nonzero;stroke:none" />
        </g>
        <g
           transform="translate(667.7296,449.3771)"
           id="g5044"
           style="fill:#ffffff">
          <path
             d="m 0,0 0,-2.328 c 0,-0.199 0.159,-0.331 0.344,-0.331 l 1.575,0 c 0.859,0 1.256,0.53 1.481,1.244 l 0.172,0 -0.516,-1.694 -4.696,0 0,0.159 0.04,0 c 0.424,0 0.582,0.251 0.582,0.662 l 0,4.642 c 0,0.41 -0.158,0.675 -0.582,0.675 l -0.04,0 0,0.172 4.537,0 0.106,-1.455 -0.145,0 C 2.831,2.42 2.434,2.764 1.958,2.764 l -1.958,0 0,-2.288 1.839,0 c 0.29,0 0.463,0.291 0.463,0.596 l 0,0.039 0.159,0 0,-1.746 -0.159,0 0,0.026 C 2.302,-0.304 2.129,0 1.839,0 L 0,0 z"
             id="path5046"
             style="fill:#ffffff;fill-opacity:1;fill-rule:nonzero;stroke:none" />
        </g>
        <g
           transform="translate(664.3575,451.9696)"
           id="g5048"
           style="fill:#ffffff">
          <path
             d="m 0,0 c 0,0.278 -0.186,0.436 -0.437,0.436 l -0.172,0 0,0.172 1.72,0 0,-0.172 -0.199,0 C 0.661,0.436 0.502,0.278 0.502,0 l 0,-3.69 c 0,-1.191 -0.912,-2.077 -2.407,-2.077 -1.508,0 -2.5,0.926 -2.5,2.195 l 0,3.4 c 0,0.304 -0.238,0.608 -0.556,0.608 l -0.013,0 0,0.172 2.209,0 0,-0.172 -0.04,0 c -0.291,0 -0.542,-0.304 -0.542,-0.608 l 0,-3.439 c 0,-0.913 0.569,-1.68 1.521,-1.68 0.939,0 1.826,0.569 1.826,1.601 L 0,0 z"
             id="path5050"
             style="fill:#ffffff;fill-opacity:1;fill-rule:nonzero;stroke:none" />
        </g>
        <g
           transform="translate(673.2853,449.3771)"
           id="g5052"
           style="fill:#ffffff">
          <path
             d="m 0,0 0,-2.328 c 0,-0.199 0.146,-0.331 0.317,-0.331 l 1.588,0 c 0.873,0 1.257,0.53 1.482,1.244 l 0.184,0 -0.542,-1.694 -4.669,0 0,0.159 0.027,0 c 0.41,0 0.581,0.251 0.581,0.662 l 0,4.642 c 0,0.41 -0.171,0.675 -0.581,0.675 l -0.027,0 0,0.172 4.524,0 0.106,-1.455 -0.146,0 C 2.804,2.42 2.42,2.764 1.957,2.764 l -1.957,0 0,-2.288 1.812,0 c 0.318,0 0.49,0.291 0.49,0.596 l 0,0.039 0.159,0 0,-1.746 -0.159,0 0,0.026 C 2.302,-0.304 2.13,0 1.812,0 L 0,0 z"
             id="path5054"
             style="fill:#ffffff;fill-opacity:1;fill-rule:nonzero;stroke:none" />
        </g>
        <g
           transform="translate(690.2296,447.1152)"
           id="g5056"
           style="fill:#ffffff">
          <path
             d="m 0,0 c 0,-0.199 0.159,-0.397 0.331,-0.397 l 1.468,0 c 0.86,0 1.257,0.543 1.481,1.27 l 0.186,0 -0.516,-1.72 -4.59,0 0,0.172 0.053,0 c 0.396,0 0.569,0.251 0.569,0.675 l 0,4.603 c 0,0.423 -0.173,0.688 -0.569,0.688 l -0.053,0 0,0.172 2.275,0 0,-0.172 -0.04,0 C 0.159,5.291 0,5.026 0,4.603 L 0,0 z"
             id="path5058"
             style="fill:#ffffff;fill-opacity:1;fill-rule:nonzero;stroke:none" />
        </g>
        <g
           transform="translate(684.079,448.3979)"
           id="g5060"
           style="fill:#ffffff">
          <path
             d="m 0,0 -0.185,0 0,-2.129 0.185,0 c 0.066,0.291 0.304,0.41 0.542,0.278 0.768,-0.397 1.721,-0.49 2.394,0.026 0.635,0.476 0.913,1.376 0.516,2.09 C 3.082,0.979 2.063,1.508 1.323,1.918 0.423,2.421 0.384,3.28 1.084,3.691 1.878,4.18 3.108,3.36 3.108,2.13 l 0.186,0 0,2.063 -0.186,0 C 3.042,3.876 2.831,3.836 2.526,3.968 1.64,4.392 0.913,4.352 0.304,3.81 -0.371,3.175 -0.516,1.878 0.609,1.191 1.283,0.767 2.196,0.304 2.526,-0.159 2.804,-0.542 2.883,-1.045 2.302,-1.561 1.455,-2.288 0,-1.388 0,0"
             id="path5062"
             style="fill:#ffffff;fill-opacity:1;fill-rule:nonzero;stroke:none" />
        </g>
        <g
           transform="translate(678.4441,452.5778)"
           id="g5064"
           style="fill:#ffffff">
          <path
             d="m 0,0 -1.613,0 0,-0.172 c 0.264,0 0.449,-0.039 0.555,-0.185 0.159,-0.172 0.265,-0.278 0.449,-0.503 l 0,-4.801 c 0,-0.318 -0.29,-0.476 -0.569,-0.476 l -0.052,0 0,-0.172 1.746,0 0,0.172 -0.04,0 c -0.29,0 -0.569,0.158 -0.569,0.476 l 0,4.18 4.154,-4.828 0.132,0 0,5.661 c 0,0.304 0.278,0.476 0.556,0.476 l 0.052,0 0,0.172 -1.732,0 0,-0.172 0.039,0 c 0.278,0 0.583,-0.172 0.583,-0.476 l 0,-3.611 L 0,0 z"
             id="path5066"
             style="fill:#ffffff;fill-opacity:1;fill-rule:nonzero;stroke:none" />
        </g>
        <g
           transform="translate(701.8567,452.5778)"
           id="g5068"
           style="fill:#ffffff">
          <path
             d="m 0,0 -1.614,0 0,-0.172 c 0.252,0 0.436,-0.039 0.542,-0.185 0.158,-0.172 0.264,-0.278 0.45,-0.503 l 0,-4.801 c 0,-0.318 -0.292,-0.476 -0.569,-0.476 l -0.04,0 0,-0.172 1.733,0 0,0.172 -0.026,0 c -0.304,0 -0.582,0.158 -0.582,0.476 l 0,4.18 4.153,-4.828 0.132,0 0,5.661 c 0,0.304 0.278,0.476 0.556,0.476 l 0.066,0 0,0.172 -1.706,0 0,-0.172 c 0.278,0 0.582,-0.172 0.582,-0.476 l 0,-3.611 L 0,0 z"
             id="path5070"
             style="fill:#ffffff;fill-opacity:1;fill-rule:nonzero;stroke:none" />
        </g>
        <g
           transform="translate(695.6626,448.7652)"
           id="g5072"
           style="fill:#ffffff">
          <path
             d="M 0,0 1.852,0 0.929,2.135 0,0 z m 3.743,-1.759 c 0.146,-0.344 0.331,-0.542 0.582,-0.542 l 0.066,0 0,-0.172 -2.195,0 0,0.172 0.172,0 c 0.198,0 0.397,0.198 0.304,0.436 l -0.608,1.402 -2.236,0 -0.595,-1.402 c -0.093,-0.238 0.132,-0.436 0.357,-0.436 l 0.079,0 0,-0.172 -1.679,0 0,0.172 0.119,0 c 0.251,0 0.476,0.198 0.647,0.568 L 1.085,3.902 C 1.224,4.059 1.3,3.881 1.3,3.881 l 2.443,-5.64 z"
             id="path5074"
             style="fill:#ffffff;fill-opacity:1;fill-rule:evenodd;stroke:none" />
        </g>
        <g
           transform="translate(709.1083,452.115)"
           id="g5076"
           style="fill:#ffffff">
          <path
             d="m 0,0 0,-5.37 c 0.251,-0.067 0.383,-0.08 0.622,-0.08 1.904,0 2.817,1.125 2.817,2.765 C 3.452,-2.616 3.551,0.179 0.605,0.106 0.605,0.106 0.228,0.162 0,0 m 4.404,-2.699 c 0,-1.772 -1.415,-3.161 -3.253,-3.161 l -2.923,0 0,0.172 0.053,0 c 0.409,0 0.568,0.251 0.568,0.675 l 0,4.603 c 0,0.423 -0.159,0.688 -0.568,0.688 l -0.053,0 0,0.172 2.397,0 c 4.034,0.125 3.779,-3.149 3.779,-3.149"
             id="path5078"
             style="fill:#ffffff;fill-opacity:1;fill-rule:evenodd;stroke:none" />
        </g>
        <g
           transform="translate(636.2758,450.3644)"
           id="g5080"
           style="fill:#ffffff">
          <path
             d="m 0,0 c 0.007,-2.123 0.982,-3.594 2.368,-3.572 1.296,0 2.368,1.304 2.368,3.632 C 4.686,3.118 3.115,3.532 2.368,3.571 0.618,3.482 -0.005,1.729 0,0 M 2.368,4.061 C 4.686,4.028 6.151,2.249 6.151,0 c 0,-2.222 -1.482,-4.048 -3.783,-4.048 -2.302,0 -3.784,1.826 -3.784,4.048 0.199,4.243 3.784,4.061 3.784,4.061"
             id="path5082"
             style="fill:#ffffff;fill-opacity:1;fill-rule:evenodd;stroke:none" />
        </g>
        <g
           transform="translate(655.0784,453.8049)"
           id="g5084"
           style="fill:#ffffff">
          <path
             d="m 0,0 c 0,0 -2.305,0.109 -2.335,-3.571 0,-2.342 1.045,-3.572 2.368,-3.572 1.283,0 2.354,1.23 2.354,3.572 C 2.387,-1.23 1.283,0 0,0 m 0,0.489 c 0,0 3.767,-0.006 3.829,-4.117 0,-1.825 -0.965,-3.303 -2.553,-3.819 0.344,-0.781 1.284,-1.666 2.58,-1.746 l 0,-0.212 c -1.8,0 -3.386,0.583 -4.59,1.825 -1.879,0.358 -3.043,2.024 -3.043,4.009 0,2.237 1.468,4.043 3.777,4.06"
             id="path5086"
             style="fill:#ffffff;fill-opacity:1;fill-rule:evenodd;stroke:none" />
        </g>
      </g>
    </g>
  </g>
</svg>
